<svg width="17" height="11" viewBox="0 0 17 11" fill="none" xmlns="http://www.w3.org/2000/svg">
<path fill-rule="evenodd" clip-rule="evenodd" d="M14.8301 0.5C14.2778 0.5 13.8301 0.947715 13.8301 1.5V9.5C13.8301 10.0523 14.2778 10.5 14.8301 10.5H15.9035C16.4558 10.5 16.9035 10.0523 16.9035 9.5V1.5C16.9035 0.947715 16.4558 0.5 15.9035 0.5H14.8301ZM9.22008 3.5C9.22008 2.94772 9.66779 2.5 10.2201 2.5H11.2934C11.8457 2.5 12.2934 2.94772 12.2934 3.5V9.5C12.2934 10.0523 11.8457 10.5 11.2934 10.5H10.2201C9.66779 10.5 9.22008 10.0523 9.22008 9.5V3.5ZM5.61004 4.5C5.05775 4.5 4.61004 4.94772 4.61004 5.5V9.5C4.61004 10.0523 5.05776 10.5 5.61004 10.5H6.6834C7.23568 10.5 7.6834 10.0523 7.6834 9.5V5.5C7.6834 4.94772 7.23568 4.5 6.6834 4.5H5.61004ZM1.02445 10.5C0.458663 10.5 0 10.0523 0 9.5V7C0 6.44772 0.458663 6 1.02445 6H2.04891C2.6147 6 3.07336 6.44772 3.07336 7V9.5C3.07336 10.0523 2.6147 10.5 2.04891 10.5H1.02445Z" fill="black"/>
</svg>
