<svg width="16" height="16" viewBox="0 0 16 16" fill="none" xmlns="http://www.w3.org/2000/svg">
<path d="M8.0013 14.6668C11.6832 14.6668 14.668 11.682 14.668 8.00016C14.668 4.31826 11.6832 1.3335 8.0013 1.3335C5.01618 1.3335 2.51748 3.29542 1.66797 6.00016H3.33464" stroke="#94A3B8" stroke-linecap="round" stroke-linejoin="round"/>
<path d="M8 5.3335V8.00016L9.33333 9.3335" stroke="#94A3B8" stroke-linecap="round" stroke-linejoin="round"/>
<path d="M1.33203 8C1.33203 8.22487 1.34216 8.44727 1.36199 8.66667M5.9987 14.6667C5.77096 14.5917 5.5485 14.5043 5.33203 14.4052M2.13829 11.3333C2.00973 11.0856 1.89505 10.8289 1.79534 10.5641M3.21951 12.871C3.4233 13.0905 3.64074 13.2961 3.8704 13.4861" stroke="#94A3B8" stroke-linecap="round" stroke-linejoin="round"/>
</svg>
