<svg width="76" height="80" viewBox="0 0 76 80" fill="none" xmlns="http://www.w3.org/2000/svg">
<g filter="url(#filter0_d_10976_29913)">
<circle cx="40" cy="38" r="20" fill="#38C274"/>
</g>
<path d="M48.5117 38C48.5117 42.6944 44.7061 46.5 40.0117 46.5C35.3173 46.5 31.5117 42.6944 31.5117 38C31.5117 33.3056 35.3173 29.5 40.0117 29.5C44.7061 29.5 48.5117 33.3056 48.5117 38Z" stroke="#2E669B" stroke-width="1.5"/>
<path d="M50.5 38H48.5" stroke="#2E669B" stroke-width="1.5" stroke-linecap="round" stroke-linejoin="round"/>
<path d="M31.5 38H29.5" stroke="#2E669B" stroke-width="1.5" stroke-linecap="round" stroke-linejoin="round"/>
<path d="M40 27.5V29.5" stroke="#2E669B" stroke-width="1.5" stroke-linecap="round" stroke-linejoin="round"/>
<path d="M40 46.5V48.5" stroke="#2E669B" stroke-width="1.5" stroke-linecap="round" stroke-linejoin="round"/>
<path d="M43 38C43 39.6569 41.6568 41 40 41C38.3431 41 37 39.6569 37 38C37 36.3431 38.3431 35 40 35C41.6568 35 43 36.3431 43 38Z" stroke="#2E669B" stroke-width="1.5"/>
<defs>
<filter id="filter0_d_10976_29913" x="0" y="0" width="80" height="80" filterUnits="userSpaceOnUse" color-interpolation-filters="sRGB">
<feFlood flood-opacity="0" result="BackgroundImageFix"/>
<feColorMatrix in="SourceAlpha" type="matrix" values="0 0 0 0 0 0 0 0 0 0 0 0 0 0 0 0 0 0 127 0" result="hardAlpha"/>
<feOffset dy="2"/>
<feGaussianBlur stdDeviation="10"/>
<feComposite in2="hardAlpha" operator="out"/>
<feColorMatrix type="matrix" values="0 0 0 0 0 0 0 0 0 0 0 0 0 0 0 0 0 0 0.1 0"/>
<feBlend mode="normal" in2="BackgroundImageFix" result="effect1_dropShadow_10976_29913"/>
<feBlend mode="normal" in="SourceGraphic" in2="effect1_dropShadow_10976_29913" result="shape"/>
</filter>
</defs>
</svg>
