<svg width="17" height="17" viewBox="0 0 17 17" fill="none" xmlns="http://www.w3.org/2000/svg">
<path d="M8.5013 15.1668C12.1832 15.1668 15.168 12.182 15.168 8.50016C15.168 4.81826 12.1832 1.8335 8.5013 1.8335C5.51618 1.8335 3.01748 3.79542 2.16797 6.50016H3.83464" stroke="#1B4C31" stroke-linecap="round" stroke-linejoin="round"/>
<path d="M8.5 5.8335V8.50016L9.83333 9.8335" stroke="#1B4C31" stroke-linecap="round" stroke-linejoin="round"/>
<path d="M1.83203 8.5C1.83203 8.72487 1.84216 8.94727 1.86199 9.16667M6.4987 15.1667C6.27096 15.0917 6.0485 15.0043 5.83203 14.9052M2.63829 11.8333C2.50973 11.5856 2.39505 11.3289 2.29534 11.0641M3.71951 13.371C3.9233 13.5905 4.14074 13.7961 4.3704 13.9861" stroke="#1B4C31" stroke-linecap="round" stroke-linejoin="round"/>
</svg>
