<svg width="17" height="17" viewBox="0 0 17 17" fill="none" xmlns="http://www.w3.org/2000/svg">
<path d="M8.2487 15.1668C11.9306 15.1668 14.9154 12.1821 14.9154 8.50016C14.9154 4.81826 11.9306 1.8335 8.2487 1.8335C4.5668 1.8335 1.58203 4.81826 1.58203 8.50016C1.58203 12.1821 4.5668 15.1668 8.2487 15.1668Z" stroke="#94A3B8"/>
<path d="M5.25 11.8332C6.80447 10.205 9.6788 10.1284 11.25 11.8332M9.9134 6.83317C9.9134 7.75364 9.16613 8.49984 8.24433 8.49984C7.3226 8.49984 6.57531 7.75364 6.57531 6.83317C6.57531 5.9127 7.3226 5.1665 8.24433 5.1665C9.16613 5.1665 9.9134 5.9127 9.9134 6.83317Z" stroke="#94A3B8" stroke-linecap="round"/>
</svg>
