<svg width="16" height="16" viewBox="0 0 16 16" fill="none" xmlns="http://www.w3.org/2000/svg">
<path d="M7.9987 14.6668C11.6806 14.6668 14.6654 11.6821 14.6654 8.00016C14.6654 4.31826 11.6806 1.3335 7.9987 1.3335C4.3168 1.3335 1.33203 4.31826 1.33203 8.00016C1.33203 11.6821 4.3168 14.6668 7.9987 14.6668Z" stroke="#94A3B8"/>
<path d="M5 11.3332C6.55447 9.70504 9.4288 9.62837 11 11.3332M9.6634 6.33317C9.6634 7.25364 8.91613 7.99984 7.99433 7.99984C7.0726 7.99984 6.32531 7.25364 6.32531 6.33317C6.32531 5.4127 7.0726 4.6665 7.99433 4.6665C8.91613 4.6665 9.6634 5.4127 9.6634 6.33317Z" stroke="#94A3B8" stroke-linecap="round"/>
</svg>
