<svg width="52" height="33" viewBox="0 0 52 33" fill="none" xmlns="http://www.w3.org/2000/svg">
<path d="M7.50661 15.0265L12.945 13.5098L9.19662 11.354L7.30078 13.1848L7.50661 15.0265Z" fill="#2D3134"/>
<path d="M28.3495 25.838L33.7878 24.3214L30.0286 22.1655L28.1328 23.9964L28.3495 25.838Z" fill="#2D3134"/>
<path opacity="0.29" d="M7.50661 15.0265L12.945 13.5098L9.19662 11.354L7.30078 13.1848L7.50661 15.0265Z" fill="black"/>
<path opacity="0.29" d="M28.3495 25.838L33.7878 24.3214L30.0286 22.1655L28.1328 23.9964L28.3495 25.838Z" fill="black"/>
<path d="M32.3256 23.6821C31.5997 23.3138 30.9389 23.2704 30.4514 23.4979L29.4222 24.0504C28.9022 24.2888 28.5664 24.8196 28.5664 25.5996C28.5664 27.1054 29.7906 28.9471 31.2964 29.6946C32.0439 30.0629 32.7156 30.1063 33.2139 29.8679C33.2139 29.8679 34.2322 29.3263 34.3406 29.2613C34.7847 29.0013 35.0556 28.4921 35.0556 27.7879C35.0556 26.2713 33.8314 24.4404 32.3256 23.6821Z" fill="#2D3134"/>
<path opacity="0.29" d="M33.2461 29.857C33.4411 29.7595 34.2428 29.3262 34.3403 29.2612C34.7844 29.0012 35.0553 28.492 35.0553 27.7878C35.0553 27.1812 34.8603 26.5203 34.5244 25.9028L33.4953 26.4553C33.8311 27.0728 34.0261 27.7337 34.0261 28.3403C34.0369 29.077 33.7336 29.6078 33.2461 29.857Z" fill="black"/>
<path d="M34.0381 28.3404C34.0381 29.8463 32.814 30.4638 31.3081 29.7054C29.8023 28.9471 28.5781 27.1163 28.5781 25.6104C28.5781 24.1046 29.8023 23.4871 31.3081 24.2454C32.814 24.9929 34.0381 26.8346 34.0381 28.3404Z" fill="#2D3134"/>
<path d="M33.4324 28.037C33.4324 29.2179 32.4791 29.6945 31.2982 29.1095C30.1174 28.5245 29.1641 27.0837 29.1641 25.9029C29.1641 24.722 30.1174 24.2454 31.2982 24.8304C32.4791 25.4262 33.4324 26.8562 33.4324 28.037Z" fill="#E5E5E5"/>
<path d="M32.7029 28.9904C33.0279 28.8062 33.2229 28.4487 33.2229 27.9396C33.2229 27.8962 33.2229 27.8529 33.2229 27.8204L32.0312 27.6362L32.7029 28.9904Z" fill="#2D3134"/>
<path d="M31.7504 26.6397L32.9962 26.9106C32.7362 26.2931 32.2704 25.6864 31.707 25.2964L31.7504 26.6397Z" fill="#2D3134"/>
<path d="M30.8513 26.1953L30.8946 24.8953C30.3313 24.7328 29.8655 24.8628 29.6055 25.2203L30.8513 26.1953Z" fill="#2D3134"/>
<path d="M29.3789 25.8921C29.3789 25.9354 29.3789 25.9679 29.3789 26.0113C29.3789 26.5204 29.5739 27.0729 29.8989 27.5821L30.5814 26.9104L29.3789 25.8921Z" fill="#2D3134"/>
<path d="M31.2953 27.7881L30.5586 28.3839C30.7861 28.5898 31.0353 28.7631 31.2953 28.8931C31.5553 29.0231 31.8044 29.0989 32.0319 29.1098L31.2953 27.7881Z" fill="#2D3134"/>
<path opacity="0.11" d="M34.0381 28.3404C34.0381 29.8463 32.814 30.4638 31.3081 29.7054C29.8023 28.9471 28.5781 27.1163 28.5781 25.6104C28.5781 24.1046 29.8023 23.4871 31.3081 24.2454C32.814 24.9929 34.0381 26.8346 34.0381 28.3404Z" fill="black"/>
<path d="M11.5053 13.2065C10.7794 12.8382 10.1186 12.7949 9.63109 13.0224L8.60193 13.5749C8.08193 13.8132 7.74609 14.344 7.74609 15.124C7.74609 16.6299 8.97026 18.4715 10.4761 19.219C11.2236 19.5874 11.8953 19.6307 12.3936 19.3924C12.3936 19.3924 13.4119 18.8507 13.5203 18.7857C13.9644 18.5257 14.2353 18.0165 14.2353 17.3124C14.2461 15.7957 13.0219 13.9649 11.5053 13.2065Z" fill="#2D3134"/>
<path opacity="0.29" d="M12.4375 19.3814C12.6325 19.2839 13.4342 18.8506 13.5317 18.7856C13.9758 18.5256 14.2467 18.0164 14.2467 17.3122C14.2467 16.7056 14.0517 16.0447 13.7158 15.4272L12.6867 15.9797C13.0225 16.5972 13.2175 17.2581 13.2175 17.8647C13.2175 18.6014 12.9142 19.1214 12.4375 19.3814Z" fill="black"/>
<path d="M13.2178 17.8541C13.2178 19.3599 11.9936 19.9774 10.4878 19.2191C8.98198 18.4608 7.75781 16.6299 7.75781 15.1241C7.75781 13.6183 8.98198 13.0008 10.4878 13.7591C11.9936 14.5174 13.2178 16.3483 13.2178 17.8541Z" fill="#2D3134"/>
<path d="M12.6238 17.5615C12.6238 18.7423 11.6705 19.219 10.4896 18.634C9.3088 18.049 8.35547 16.6081 8.35547 15.4273C8.35547 14.2465 9.3088 13.7698 10.4896 14.3548C11.6705 14.9398 12.6238 16.3806 12.6238 17.5615Z" fill="#E5E5E5"/>
<path d="M11.8943 18.5041C12.2193 18.3199 12.4143 17.9624 12.4143 17.4532C12.4143 17.4099 12.4143 17.3666 12.4143 17.3341L11.2227 17.1499L11.8943 18.5041Z" fill="#2D3134"/>
<path d="M10.9301 16.1534L12.1759 16.4242C11.9159 15.8067 11.4501 15.2001 10.8867 14.8101L10.9301 16.1534Z" fill="#2D3134"/>
<path d="M10.0427 15.709L10.086 14.409C9.52271 14.2465 9.05687 14.3765 8.79688 14.734L10.0427 15.709Z" fill="#2D3134"/>
<path d="M8.57031 15.4058C8.57031 15.4491 8.57031 15.4816 8.57031 15.5249C8.57031 16.0341 8.76531 16.5866 9.09031 17.0958L9.77281 16.4241L8.57031 15.4058Z" fill="#2D3134"/>
<path d="M10.4867 17.3125L9.75 17.9083C9.9775 18.1142 10.2267 18.2875 10.4867 18.4175C10.7467 18.5475 10.9958 18.6233 11.2233 18.6342L10.4867 17.3125Z" fill="#2D3134"/>
<path opacity="0.11" d="M13.2178 17.8541C13.2178 19.3599 11.9936 19.9774 10.4878 19.2191C8.98198 18.4608 7.75781 16.6299 7.75781 15.1241C7.75781 13.6183 8.98198 13.0008 10.4878 13.7591C11.9936 14.5174 13.2178 16.3483 13.2178 17.8541Z" fill="black"/>
<path d="M47.7754 17.6915C45.6846 15.8281 36.6712 8.74313 35.1654 7.6273C33.6596 6.51147 28.2104 3.08814 24.5487 2.14564C20.8871 1.20314 20.4321 1.75564 19.6846 1.59314C18.9371 1.43064 16.7162 0.910638 13.4446 1.91814C12.0471 2.35147 10.3896 2.82814 9.0354 4.04147C7.23707 5.6448 5.8504 8.13647 5.17874 9.49063L5.03791 9.94563C4.78874 10.7581 4.89707 11.6465 5.33041 12.3723C5.69874 12.9898 6.16457 13.7048 6.51124 14.0948C6.81457 14.4306 7.1829 14.7881 7.49707 15.0915C7.49707 15.0698 7.49707 15.0373 7.49707 15.0156C7.49707 13.8673 8.16874 13.1306 9.20874 13.1306C9.6204 13.1306 10.0646 13.2498 10.5196 13.4773C12.0904 14.2573 13.3579 16.1748 13.3579 17.7456C13.3579 17.9515 13.3362 18.1465 13.2929 18.3306L28.3404 25.849C28.3296 25.7298 28.3187 25.6106 28.3187 25.5023C28.3187 24.354 28.9904 23.6173 30.0304 23.6173C30.4421 23.6173 30.8862 23.7365 31.3412 23.964C32.9121 24.744 34.1796 26.6615 34.1796 28.2323C34.1796 28.4165 34.1579 28.579 34.1254 28.7415L35.3279 29.3373C35.3279 29.3373 37.5812 29.9223 39.0221 29.7923C40.4629 29.6623 43.4312 28.6873 45.8146 27.5065C48.1979 26.3256 50.2129 24.2456 50.2562 23.1623C50.2779 22.7506 49.8662 19.5548 47.7754 17.6915Z" fill="#38C274"/>
<path d="M39.4132 11.3538C39.4132 11.3538 39.2832 10.4438 39.4132 10.2055C39.5432 9.97796 39.7707 9.62046 40.0632 9.88046C40.3557 10.1405 40.6807 10.888 40.3882 11.5813C40.0957 12.2746 39.4132 11.3538 39.4132 11.3538Z" fill="#2D3134"/>
<path opacity="0.3" d="M6.37109 7.80078C6.37109 7.80078 13.3478 12.6216 21.3644 16.9333C29.3811 21.2449 33.5952 23.6933 33.5952 23.6933L28.6444 19.4466L10.8886 9.08995L6.37109 7.80078Z" fill="white"/>
<path d="M11.0625 9.19796L28.6342 19.4571C28.6342 19.4571 26.9333 11.9821 20.9317 8.97046C14.93 5.95879 11.0625 9.19796 11.0625 9.19796Z" fill="#2D3134"/>
<path d="M18.3838 3.65131C20.7238 2.54631 22.6305 2.21047 22.6305 1.98297C22.6305 1.75547 16.618 1.46297 12.9021 3.32631C9.1863 5.18964 9.37047 6.79297 10.7788 6.61964C12.1871 6.44631 14.0721 6.29464 14.668 6.00214C15.2638 5.70964 16.3905 4.59381 18.3838 3.65131Z" fill="#2D3134"/>
<path d="M10.7157 6.37068C10.5749 6.37068 10.2391 6.33818 10.1849 6.08902C10.0982 5.72068 10.5966 4.69152 13.1207 3.43485C15.8832 2.05902 19.7724 1.95068 20.8991 1.95068C21.4732 1.95068 21.9066 1.97235 22.1991 2.00485C22.0474 2.05902 21.8849 2.11318 21.7116 2.16735C20.9316 2.41652 19.7507 2.79568 18.4399 3.42402C17.1074 4.05235 16.1324 4.77818 15.4932 5.24402C15.1574 5.48235 14.8974 5.67735 14.7132 5.77485C14.2582 6.00235 12.8499 6.15402 11.6149 6.29485C11.3657 6.32735 11.1166 6.34902 10.8891 6.37068C10.8241 6.37068 10.7699 6.37068 10.7157 6.37068Z" fill="#656565"/>
<path d="M26.4784 12.1124C26.2618 12.7083 29.7393 18.5799 30.8226 18.8724C31.8951 19.1649 35.1343 19.0674 38.3301 17.3016C41.5259 15.5358 42.1218 14.1708 41.9593 13.6724C41.7968 13.1849 35.6543 8.01743 34.6468 7.91993C33.6393 7.82243 26.7384 11.3866 26.4784 12.1124Z" fill="#2D3134"/>
<path opacity="0.2" d="M35.0039 24.8414C35.0039 24.8414 35.4589 24.2347 36.6831 24.0939C37.9072 23.9639 39.4022 24.0831 40.5181 25.0797C41.3522 25.8272 41.6556 26.1414 41.6556 26.1414C41.6556 26.1414 39.2939 26.9106 38.1239 26.7481C36.9647 26.5856 35.0039 24.8414 35.0039 24.8414Z" fill="white"/>
<path d="M35.2305 24.6356C35.2305 24.6356 35.653 24.0723 36.7796 23.9531C37.9063 23.834 39.293 23.9423 40.3221 24.8631C41.0913 25.5456 41.373 25.8381 41.373 25.8381C41.373 25.8381 39.1955 26.5531 38.1121 26.4015C37.0288 26.2498 35.2305 24.6356 35.2305 24.6356Z" fill="#E5E5E5"/>
<path opacity="0.2" d="M48.1456 22.7182C48.1456 22.7182 49.7923 21.1799 49.7056 20.7465C49.619 20.3024 48.3515 18.114 48.189 18.439C48.0265 18.764 47.6798 19.284 47.8098 19.7282C47.9398 20.1724 48.1781 22.3282 48.1456 22.7182Z" fill="white"/>
<path d="M48.1347 22.415C48.1347 22.415 49.6838 20.8766 49.608 20.4433C49.5213 19.9991 48.2538 17.8108 48.0913 18.1358C47.9288 18.4608 47.5822 18.9808 47.7122 19.425C47.8422 19.8583 48.1672 22.0141 48.1347 22.415Z" fill="#E5E5E5"/>
<path d="M38.3198 28.9039L38.2656 29.3806C38.2656 29.3806 43.1081 28.7631 46.1523 26.8889C49.1856 25.0147 49.9223 23.5522 49.9223 23.5522C49.9223 23.5522 47.5823 26.0872 44.7223 27.2572C41.7215 28.4706 38.3198 28.9039 38.3198 28.9039Z" fill="#2D3134"/>
<path d="M41.2628 13.2716C40.7103 12.7408 39.6594 11.8091 38.3269 10.7366C36.1603 8.98163 34.8928 8.16913 34.5894 8.14746H34.5786C34.1344 8.14746 32.3686 8.88413 30.3969 9.90246C28.1328 11.0616 26.9194 11.885 26.7461 12.1341C26.7678 12.4375 27.3636 13.7266 28.4686 15.5033C29.6928 17.4641 30.5811 18.4391 30.8736 18.5258C31.0361 18.5691 31.2419 18.6016 31.4803 18.6233C32.9103 18.4066 35.3803 17.8541 37.7853 16.435C39.8219 15.2325 40.7969 14.0733 41.2628 13.2716Z" fill="#656565"/>
<path d="M12.5439 8.78629L12.3164 9.46879L19.0764 13.4121L20.1597 9.05712L20.1272 9.01379C18.6972 8.38546 17.2889 8.07129 15.9131 8.07129C14.4722 8.08212 13.3239 8.43962 12.5439 8.78629Z" fill="#656565"/>
<path d="M26.7896 17.9188L27.0604 16.2613C26.9413 16.0122 26.8221 15.763 26.6813 15.503C25.6629 13.5747 23.8646 10.9855 21.0154 9.45801L20.3438 14.1488L26.7896 17.9188Z" fill="#656565"/>
<path opacity="0.2" d="M13.6718 12.1233C13.6718 12.4374 13.4118 12.5674 13.0976 12.4158C12.7834 12.2533 12.5234 11.8741 12.5234 11.5491C12.5234 11.2241 12.7834 11.1049 13.0976 11.2566C13.4118 11.4191 13.6718 11.7983 13.6718 12.1233Z" fill="black"/>
<path d="M12.1789 11.1479L11.9297 11.4296C11.9297 11.4296 13.7389 12.6104 13.9014 12.3721C14.0747 12.1446 12.1789 11.1479 12.1789 11.1479Z" fill="#1F5C3A"/>
<path opacity="0.2" d="M21.3866 16.5105C21.3866 16.8247 21.1266 16.9547 20.8124 16.803C20.4983 16.6405 20.2383 16.2614 20.2383 15.9364C20.2383 15.6222 20.4983 15.4922 20.8124 15.6439C21.1266 15.8064 21.3866 16.1855 21.3866 16.5105Z" fill="black"/>
<path d="M19.8898 15.5249L19.6406 15.8066C19.6406 15.8066 21.4498 16.9874 21.6123 16.7491C21.7856 16.5216 19.8898 15.5249 19.8898 15.5249Z" fill="#1F5C3A"/>
<path opacity="0.2" d="M28.5912 19.4465C28.5912 19.4574 28.3962 20.2049 28.2337 21.1149C28.0821 21.9382 27.9954 24.6682 27.9737 25.1557L19.3504 20.7899C19.3396 20.6165 19.2204 19.0024 19.2204 17.529C19.2204 15.9799 19.6104 14.2574 19.6104 14.2465L19.5129 14.2249C19.5129 14.2465 19.1229 15.9799 19.1229 17.529C19.1229 18.894 19.2204 20.389 19.2529 20.7357L14.9629 18.569C14.8654 18.439 13.8254 17.0199 12.8071 14.864C11.7562 12.6432 12.0054 9.82654 12.0162 9.79404L11.9187 9.7832C11.9187 9.8157 11.6587 12.654 12.7204 14.9074C13.7929 17.1607 14.8871 18.6232 14.8979 18.634L14.9087 18.6449L28.0604 25.3182V25.2424C28.0604 25.2099 28.1579 22.0357 28.3204 21.1365C28.4829 20.2374 28.6779 19.479 28.6779 19.479L28.5912 19.4465Z" fill="black"/>
<path opacity="0.3" d="M38.9044 24.7548C38.9044 25.1448 38.5903 25.6106 38.2003 25.8056C37.8103 26.0006 37.4961 25.8381 37.4961 25.4589C37.4961 25.0689 37.8103 24.6031 38.2003 24.4081C38.5903 24.2131 38.9044 24.3648 38.9044 24.7548Z" fill="black"/>
<path opacity="0.3" d="M39.9867 25.0364C39.9867 25.3073 39.7701 25.6323 39.4992 25.7731C39.2284 25.9031 39.0117 25.7948 39.0117 25.5239C39.0117 25.2531 39.2284 24.9281 39.4992 24.7873C39.7701 24.6573 39.9867 24.7656 39.9867 25.0364Z" fill="black"/>
<path d="M37.3442 25.394C37.3442 25.5348 37.2251 25.719 37.0842 25.784C36.9434 25.8598 36.8242 25.7948 36.8242 25.654C36.8242 25.5132 36.9434 25.329 37.0842 25.264C37.2251 25.1882 37.3442 25.2423 37.3442 25.394Z" fill="white"/>
<path opacity="0.4" d="M38.6113 25.0473C38.6113 25.2423 38.4488 25.4806 38.2646 25.5781C38.0696 25.6756 37.918 25.5998 37.918 25.4048C37.918 25.2098 38.0805 24.9715 38.2646 24.874C38.4488 24.7765 38.6113 24.8523 38.6113 25.0473Z" fill="white"/>
<path opacity="0.4" d="M39.8013 25.2314C39.8013 25.3722 39.6821 25.5564 39.5413 25.6214C39.4004 25.6972 39.2812 25.6322 39.2812 25.4914C39.2812 25.3505 39.4004 25.1664 39.5413 25.1014C39.6821 25.0255 39.8013 25.0905 39.8013 25.2314Z" fill="white"/>
<path d="M36.9536 24.5165C36.9536 24.6574 36.8344 24.8415 36.6936 24.9065C36.5528 24.9824 36.4336 24.9174 36.4336 24.7765C36.4336 24.6357 36.5528 24.4515 36.6936 24.3865C36.8344 24.3107 36.9536 24.3757 36.9536 24.5165Z" fill="white"/>
<path d="M48.5356 18.8183C48.5356 18.9592 48.4165 19.1433 48.2756 19.2083C48.1348 19.2842 48.0156 19.2192 48.0156 19.0783C48.0156 18.9375 48.1348 18.7533 48.2756 18.6883C48.4165 18.6125 48.5356 18.6667 48.5356 18.8183Z" fill="white"/>
<path d="M49.02 19.5004C49.02 19.6412 48.9008 19.8254 48.76 19.8904C48.6192 19.9662 48.5 19.9012 48.5 19.7604C48.5 19.6196 48.6192 19.4354 48.76 19.3704C48.9008 19.2946 49.02 19.3596 49.02 19.5004Z" fill="white"/>
<path opacity="0.3" d="M49.1743 19.9556C49.1743 20.2914 48.9034 20.6923 48.5676 20.8548C48.2318 21.0173 47.9609 20.8873 47.9609 20.5514C47.9609 20.2156 48.2318 19.8148 48.5676 19.6523C48.9034 19.4898 49.1743 19.6306 49.1743 19.9556Z" fill="black"/>
<path opacity="0.4" d="M48.8137 20.3129C48.8137 20.4863 48.6729 20.6921 48.5104 20.7788C48.337 20.8654 48.207 20.7896 48.207 20.6271C48.207 20.4646 48.3479 20.2479 48.5104 20.1613C48.6729 20.0746 48.8137 20.1396 48.8137 20.3129Z" fill="white"/>
<path opacity="0.3" d="M48.6838 20.8655C48.6838 20.5947 48.4671 20.4864 48.1963 20.6164C48.1096 20.6597 48.0337 20.7139 47.9688 20.7897C48.0121 21.0822 48.0554 21.3855 48.0879 21.6455C48.1204 21.6347 48.1638 21.6239 48.2071 21.6022C48.4671 21.4722 48.6838 21.1364 48.6838 20.8655Z" fill="black"/>
<path opacity="0.3" d="M35.2305 24.6248C35.7613 24.5815 37.2563 24.5056 38.1988 24.7331C39.1413 24.9606 40.7771 25.589 41.3621 25.8273C41.2971 25.7623 40.9938 25.459 40.3221 24.8631C39.293 23.9423 37.9063 23.834 36.7796 23.9531C35.7505 24.0615 35.3063 24.5381 35.2305 24.6248Z" fill="black"/>
<path d="M26.1834 16.814C26.1834 16.814 26.9959 17.204 27.3643 17.6915C27.7218 18.179 27.7218 18.439 27.7218 18.439C27.7218 18.439 25.4684 18.9265 24.3526 18.2115C23.1718 17.4423 26.1834 16.814 26.1834 16.814Z" fill="#2D3134"/>
<path d="M32.1094 18.699L32.521 18.6665L36.3127 16.8248L36.5185 16.4456L38.826 15.3731L38.7285 15.189L34.3194 17.1498L34.4494 17.3123L36.161 16.554L36.0635 16.6623L32.3585 18.439L32.1094 18.699Z" fill="#2D3134"/>
<path d="M36.1172 17.6806H36.4747L39.4972 15.4381L39.8655 14.5714L41.0247 13.0981L40.9489 12.9897L38.7714 15.4706L38.858 15.6006L39.443 15.0806L39.2805 15.3731L36.2147 17.4964L36.1172 17.6806Z" fill="#2D3134"/>
<path d="M40.6914 24.8306L41.9481 25.9573C41.9481 25.9573 43.7681 25.6106 45.3931 24.7764C47.0181 23.9423 47.9931 22.8156 47.9931 22.8156L47.8631 21.1689C47.8631 21.1689 47.1264 22.5014 45.0031 23.5523C43.1181 24.4948 40.6914 24.8306 40.6914 24.8306Z" fill="#2D3134"/>
<path opacity="0.29" d="M45.737 27.2138C48.1095 26.0221 50.1353 24.0071 50.1786 22.9238C50.1895 22.7396 50.2003 22.4363 49.9403 21.5805C49.9186 21.5046 49.8211 21.4938 49.7778 21.5588C48.9436 22.7505 47.5245 24.2996 45.3145 25.3613C43.0178 26.4663 40.2011 27.4088 38.0345 27.3005C37.5253 27.2788 37.4386 27.788 37.3953 28.5896C37.3736 29.1096 37.807 29.543 38.327 29.4888C40.1903 29.3046 43.1803 28.4921 45.737 27.2138Z" fill="black"/>
<path d="M5.35391 9.83727C5.35391 9.83727 6.03641 8.0931 6.41557 7.55143C6.79474 7.00977 7.21724 6.52227 7.21724 6.52227L7.09807 6.19727C7.09807 6.19727 6.29641 6.47893 6.15557 6.71727C6.00391 6.96643 5.19141 9.4906 5.19141 9.4906L5.35391 9.83727Z" fill="#CC291F"/>
<path opacity="0.2" d="M41.06 13.5858C41.1358 13.4775 41.2008 13.3691 41.255 13.2716C40.7025 12.7408 39.6516 11.8091 38.3191 10.7366C36.1525 8.98163 34.885 8.16913 34.5816 8.14746H34.5708C34.1266 8.14746 32.3608 8.88413 30.3891 9.90246C28.1249 11.0616 26.9116 11.885 26.7383 12.1341C26.7491 12.2316 26.8141 12.4483 26.9441 12.7408C31.5699 11.2458 36.6291 11.5383 41.06 13.5858Z" fill="black"/>
<path d="M44.2422 26.5963V28.178L47.0914 26.7588V25.188L44.2422 26.5963Z" fill="#E5E5E5"/>
<path opacity="0.2" d="M48.1347 22.415C48.1347 22.415 49.6838 20.8766 49.608 20.4433C49.5213 19.9991 48.2538 17.8108 48.0913 18.1358C47.9288 18.4608 47.5822 18.9808 47.7122 19.425C47.8422 19.8583 48.1672 22.0141 48.1347 22.415Z" fill="black"/>
<path d="M26.63 12.5892C26.2833 11.7333 23.8783 9.00333 21.2133 7.69249C17.855 6.04583 14.93 6.04583 14.3342 6.13249L14.3125 5.99166C14.9192 5.90499 17.8875 5.90499 21.2783 7.56249C22.4592 8.13666 23.7375 9.07916 24.8967 10.2058C25.8175 11.0942 26.565 12.0367 26.7708 12.535L26.63 12.5892Z" fill="#2D3134"/>
<path d="M35.2193 8.375L35.2085 8.36417C34.1252 7.57333 31.2327 5.47167 28.5677 4.17167C25.2202 2.53583 22.6093 2.02667 22.0352 2.02667V1.875C22.6202 1.875 25.2635 2.38417 28.6327 4.04167C31.3085 5.3525 34.201 7.45417 35.2952 8.245L35.306 8.25583L35.2193 8.375Z" fill="#2D3134"/>
<path d="M15.168 15.4165V16.4998L16.2513 17.0415V15.9582L15.168 15.4165Z" fill="#2D3134"/>
<path d="M17.3333 15.4167L16.25 14.875V15.9583L17.3333 16.5V15.4167Z" fill="#2D3134"/>
<path d="M16.25 18.1248L17.3333 18.6665V17.5832L16.25 17.0415V18.1248Z" fill="#2D3134"/>
<path d="M17.3359 16.5V17.5833L18.4193 18.125V17.0417L17.3359 16.5Z" fill="#2D3134"/>
<path d="M19.5013 16.5002L18.418 15.9585V17.0418L19.5013 17.5835V16.5002Z" fill="#2D3134"/>
<path d="M18.418 19.2083L19.5013 19.75V18.6667L18.418 18.125V19.2083Z" fill="#2D3134"/>
<path d="M19.5 17.5835V18.6668L20.5833 19.2085V18.1252L19.5 17.5835Z" fill="#2D3134"/>
<path d="M21.6693 17.5832L20.5859 17.0415V18.1248L21.6693 18.6665V17.5832Z" fill="#2D3134"/>
<path d="M20.5859 20.2918L21.6693 20.8335V19.7502L20.5859 19.2085V20.2918Z" fill="#2D3134"/>
<path d="M21.668 18.6665V19.7498L22.7513 20.2915V19.2082L21.668 18.6665Z" fill="#2D3134"/>
<path d="M26 20.8335V21.9168L27.0833 22.4585V21.3752L26 20.8335Z" fill="#2D3134"/>
<path d="M26.0013 19.7502L24.918 19.2085V20.2918L26.0013 20.8335V19.7502Z" fill="#2D3134"/>
<path d="M24.918 22.4583L26.0013 23V21.9167L24.918 21.375V22.4583Z" fill="#2D3134"/>
<path d="M23.8359 19.75V20.8333L24.9193 21.375V20.2917L23.8359 19.75Z" fill="#2D3134"/>
<path d="M23.8333 18.6667L22.75 18.125V19.2083L23.8333 19.75V18.6667Z" fill="#2D3134"/>
<path d="M22.75 21.3748L23.8333 21.9165V20.8332L22.75 20.2915V21.3748Z" fill="#2D3134"/>
<path d="M23.619 7.7249L28.819 5.1249L26.869 4.1499L21.7773 6.7499L23.619 7.7249Z" fill="#2D3134"/>
<path d="M26.4448 3.10978L23.0865 4.78895C22.9348 4.86478 22.8157 4.98395 22.7398 5.14645L22.0898 6.53311L23.6065 7.29145L28.3732 4.90811L27.6257 3.51061C27.5498 3.35895 27.4198 3.23978 27.2573 3.17478L27.0623 3.08811C26.8782 3.01228 26.6507 3.01228 26.4448 3.10978Z" fill="#E5E5E5"/>
<path opacity="0.11" d="M23.4566 5.15728L22.9149 4.91895C22.8499 4.98395 22.7958 5.04895 22.7633 5.13561L22.1133 6.52228L23.6299 7.28061V5.40645C23.6191 5.30895 23.5541 5.20061 23.4566 5.15728Z" fill="black"/>
<path opacity="0.29" d="M27.6372 3.51052C27.5939 3.43469 27.5397 3.35885 27.4747 3.30469L23.9214 5.08136C23.7372 5.16802 23.6289 5.36302 23.6289 5.55802V7.29136L28.3956 4.90802L27.6372 3.51052Z" fill="black"/>
<path d="M27.5195 4.90817L24.2695 6.53317V5.44984L27.0862 4.0415L27.5195 4.90817Z" fill="#2D3134"/>
<path opacity="0.11" d="M35.5572 25.7949C34.7988 24.9391 30.4655 20.3891 29.3388 18.6124C27.8655 16.3049 25.4605 10.6607 21.0297 8.54822C16.588 6.43572 11.5613 7.33488 10.0447 7.44322C9.12384 7.49738 7.69384 7.16155 6.69718 6.87988C6.04718 7.86572 5.53801 8.81905 5.20218 9.50155L5.06134 9.95655C4.81218 10.7691 4.92051 11.6574 5.35384 12.3832C5.72218 13.0007 6.18801 13.7157 6.53468 14.1057C6.83801 14.4416 7.20634 14.7991 7.52051 15.1024C7.52051 15.0807 7.52051 15.0482 7.52051 15.0266C7.52051 13.8782 8.19218 13.1416 9.23218 13.1416C9.64384 13.1416 10.088 13.2607 10.543 13.4882C12.1138 14.2682 13.3813 16.1857 13.3813 17.7566C13.3813 17.9624 13.3597 18.1574 13.3163 18.3416L28.3638 25.8599C28.353 25.7407 28.3422 25.6216 28.3422 25.5132C28.3422 24.3649 29.0138 23.6282 30.0538 23.6282C30.4655 23.6282 30.9097 23.7474 31.3647 23.9749C32.9355 24.7549 34.203 26.6724 34.203 28.2432C34.203 28.4274 34.1814 28.5899 34.1489 28.7524L35.3513 29.3482C35.3513 29.3482 35.9797 29.5107 36.7814 29.6516C36.5863 28.0591 36.1855 26.5099 35.5572 25.7949Z" fill="black"/>
</svg>
