<svg width="28" height="13" viewBox="0 0 28 13" fill="none" xmlns="http://www.w3.org/2000/svg">
<path opacity="0.44" fill-rule="evenodd" clip-rule="evenodd" d="M25.8555 4.25L26.3154 4.55662C26.9652 4.98981 27.3555 5.71907 27.3555 6.5C27.3555 7.28093 26.9652 8.01019 26.3154 8.44338L25.8555 8.75V4.25ZM2.85547 0.75H22.8555C23.96 0.75 24.8555 1.64543 24.8555 2.75V10.25C24.8555 11.3546 23.96 12.25 22.8555 12.25H2.85547C1.7509 12.25 0.855469 11.3546 0.855469 10.25V2.75C0.855469 1.64543 1.7509 0.75 2.85547 0.75ZM2.85547 1.75C2.30318 1.75 1.85547 2.19772 1.85547 2.75V10.25C1.85547 10.8023 2.30318 11.25 2.85547 11.25H22.8555C23.4078 11.25 23.8555 10.8023 23.8555 10.25V2.75C23.8555 2.19772 23.4078 1.75 22.8555 1.75H2.85547Z" fill="black"/>
<path fill-rule="evenodd" clip-rule="evenodd" d="M3.85547 2.75H18.8555V10.25H3.85547C3.30318 10.25 2.85547 9.80228 2.85547 9.25V3.75C2.85547 3.19772 3.30318 2.75 3.85547 2.75Z" fill="black"/>
</svg>
