<svg width="32" height="25" viewBox="0 0 32 25" fill="none" xmlns="http://www.w3.org/2000/svg">
<g clip-path="url(#clip0_10976_29935)">
<path d="M3.07238 19.356C2.77771 19.3563 2.4952 19.4735 2.28683 19.6819C2.07847 19.8902 1.96127 20.1727 1.96094 20.4674V23.0677C1.96127 23.3624 2.07847 23.6449 2.28683 23.8533C2.4952 24.0616 2.77771 24.1788 3.07238 24.1792H4.48214C4.77681 24.1788 5.05932 24.0616 5.26768 23.8533C5.47605 23.6449 5.59325 23.3624 5.59358 23.0677V20.4674C5.59325 20.1727 5.47605 19.8902 5.26768 19.6819C5.05932 19.4735 4.77681 19.3563 4.48214 19.356H3.07238Z" fill="#38C274"/>
<path d="M29.135 24.2657H27.7253C27.4077 24.2654 27.1032 24.139 26.8786 23.9144C26.654 23.6899 26.5277 23.3854 26.5273 23.0678V20.4675C26.5277 20.1499 26.654 19.8454 26.8786 19.6208C27.1032 19.3962 27.4077 19.2699 27.7253 19.2695H29.135C29.4526 19.2699 29.7571 19.3962 29.9817 19.6208C30.2063 19.8454 30.3326 20.1499 30.333 20.4675V23.0678C30.3326 23.3854 30.2063 23.6899 29.9817 23.9144C29.7571 24.139 29.4526 24.2654 29.135 24.2657Z" fill="#38C274"/>
<path d="M28.1971 22.1833H3.92157C2.81677 22.1833 1.91797 21.532 1.91797 20.7314V16.0634L3.1229 14.7944H29.2302L30.2007 16.066V20.7314C30.2007 21.532 29.3019 22.1833 28.1971 22.1833Z" fill="#38C274"/>
<path d="M29.1183 17.1302H3.26274L3 13.1013L3.1672 12.689L4.13909 10.2974H28.0669L29.3811 13.0132L29.1183 17.1302Z" fill="#38C274"/>
<path d="M29.3385 13.0219L29.1456 16.049H23.457V13.8002L29.1767 12.688L29.3385 13.0219Z" fill="#2E669B"/>
<path d="M8.83799 13.8V16.0488H3.235L3.04297 13.1081L3.20648 12.7051L8.83799 13.8Z" fill="#2E669B"/>
<path d="M27.9209 10.9889H4.28125L6.8026 2.58441C6.90543 2.23731 7.1172 1.93249 7.40662 1.71502C7.69603 1.49754 8.04773 1.37894 8.40974 1.37674L24.0655 1.22762C24.4438 1.22395 24.8124 1.34698 25.1127 1.57711C25.4129 1.80723 25.6275 2.13122 25.7223 2.49746L27.9209 10.9889Z" fill="#38C274"/>
<path d="M26.1011 10.1945L6.09722 9.95732C6.07193 9.95702 6.04707 9.95079 6.02462 9.93913C6.00218 9.92747 5.98278 9.91071 5.968 9.89019C5.95321 9.86967 5.94345 9.84596 5.93949 9.82098C5.93553 9.796 5.93749 9.77045 5.94521 9.74636L7.8629 3.76318C7.87335 3.73057 7.89389 3.70212 7.92156 3.68194C7.94922 3.66175 7.98258 3.65088 8.01683 3.65088H24.1064C24.1406 3.65088 24.1739 3.66175 24.2016 3.68192C24.2293 3.70209 24.2498 3.73052 24.2603 3.76312L26.2569 9.9835C26.2648 10.0079 26.2667 10.0338 26.2625 10.0591C26.2584 10.0844 26.2483 10.1083 26.2331 10.1289C26.2178 10.1495 26.1979 10.1662 26.175 10.1776C26.1521 10.189 26.1267 10.1948 26.1011 10.1945Z" fill="#2E669B"/>
<path d="M18.7982 2.25363H13.4064C13.361 2.25363 13.3198 2.2089 13.2989 2.13685C13.278 2.06309 13.281 1.98463 13.3074 1.91268L13.7521 0.788295C13.7747 0.730986 13.8117 0.696777 13.851 0.696777H18.3536C18.3929 0.696777 18.4299 0.730986 18.4525 0.788295L18.8972 1.91268C18.9236 1.98463 18.9266 2.06309 18.9057 2.13685C18.8848 2.2089 18.8436 2.25363 18.7982 2.25363Z" fill="#38C274"/>
<path d="M4.29615 10.8163H0.75V10.0368C0.750282 9.78485 0.850505 9.54327 1.02868 9.3651C1.20685 9.18693 1.44842 9.08671 1.7004 9.08643H4.29615V10.8163Z" fill="#38C274"/>
<path d="M31.4563 10.8163H27.9102V9.08643H30.5059C30.7579 9.08671 30.9995 9.18693 31.1776 9.3651C31.3558 9.54327 31.456 9.78485 31.4563 10.0368V10.8163Z" fill="#38C274"/>
</g>
<defs>
<clipPath id="clip0_10976_29935">
<rect width="32" height="25" fill="white"/>
</clipPath>
</defs>
</svg>
