<svg width="16" height="16" viewBox="0 0 16 16" fill="none" xmlns="http://www.w3.org/2000/svg">
<path d="M14.9478 6.26C14.8303 5.908 14.5333 5.6555 14.1733 5.6005L10.5188 5.053L8.87383 1.561C8.71033 1.215 8.37583 1 8.00033 1C7.62483 1 7.29033 1.215 7.12683 1.561L5.50583 5.0405L1.82733 5.6005C1.46733 5.6555 1.17083 5.908 1.05283 6.26C0.932333 6.6215 1.02133 7.0135 1.28533 7.283L3.94583 10.006L3.31733 13.844C3.25483 14.2275 3.40983 14.603 3.72283 14.8235C4.02383 15.037 4.41083 15.058 4.73283 14.8805L7.97733 13.0685L11.2678 14.8805C11.5908 15.058 11.9768 15.036 12.2778 14.8235C12.5908 14.603 12.7463 14.2275 12.6833 13.844L12.0538 10.001L14.7153 7.283C14.9793 7.0135 15.0683 6.6215 14.9478 6.26Z" fill="#F7C54F"/>
</svg>
