<svg width="16" height="17" viewBox="0 0 16 17" fill="none" xmlns="http://www.w3.org/2000/svg">
<path d="M7.9987 15.1668C11.6806 15.1668 14.6654 12.1821 14.6654 8.50016C14.6654 4.81826 11.6806 1.8335 7.9987 1.8335C4.3168 1.8335 1.33203 4.81826 1.33203 8.50016C1.33203 12.1821 4.3168 15.1668 7.9987 15.1668Z" stroke="#94A3B8"/>
<path d="M5 11.8332C6.55447 10.205 9.4288 10.1284 11 11.8332M9.6634 6.83317C9.6634 7.75364 8.91613 8.49984 7.99433 8.49984C7.0726 8.49984 6.32531 7.75364 6.32531 6.83317C6.32531 5.9127 7.0726 5.1665 7.99433 5.1665C8.91613 5.1665 9.6634 5.9127 9.6634 6.83317Z" stroke="#94A3B8" stroke-linecap="round"/>
</svg>
