<svg width="32" height="22" viewBox="0 0 32 22" fill="none" xmlns="http://www.w3.org/2000/svg">
<path d="M1.85179 10.3924L5.67656 9.32576L3.04036 7.80957L1.70703 9.09719L1.85179 10.3924Z" fill="#2D3134"/>
<path d="M16.5118 17.9964L20.3365 16.9298L17.6927 15.4136L16.3594 16.7012L16.5118 17.9964Z" fill="#2D3134"/>
<path opacity="0.29" d="M1.85179 10.3924L5.67656 9.32576L3.04036 7.80957L1.70703 9.09719L1.85179 10.3924Z" fill="black"/>
<path opacity="0.29" d="M16.5118 17.9964L20.3365 16.9298L17.6927 15.4136L16.3594 16.7012L16.5118 17.9964Z" fill="black"/>
<path d="M19.3079 16.4801C18.7974 16.2211 18.3326 16.1906 17.9898 16.3506L17.266 16.7392C16.9003 16.9068 16.6641 17.2801 16.6641 17.8287C16.6641 18.8877 17.525 20.183 18.5841 20.7087C19.1098 20.9677 19.5822 20.9982 19.9326 20.8306C19.9326 20.8306 20.6488 20.4496 20.725 20.4039C21.0374 20.2211 21.2279 19.863 21.2279 19.3677C21.2279 18.3011 20.3669 17.0134 19.3079 16.4801Z" fill="#2D3134"/>
<path opacity="0.29" d="M19.957 20.8229C20.0942 20.7544 20.658 20.4496 20.7266 20.4039C21.0389 20.221 21.2294 19.8629 21.2294 19.3677C21.2294 18.941 21.0923 18.4763 20.8561 18.042L20.1323 18.4306C20.3685 18.8648 20.5056 19.3296 20.5056 19.7563C20.5132 20.2744 20.2999 20.6477 19.957 20.8229Z" fill="black"/>
<path d="M20.5119 19.7562C20.5119 20.8152 19.6509 21.2495 18.5919 20.7162C17.5328 20.1828 16.6719 18.8952 16.6719 17.8362C16.6719 16.7771 17.5328 16.3428 18.5919 16.8762C19.6509 17.4019 20.5119 18.6971 20.5119 19.7562Z" fill="#2D3134"/>
<path d="M20.0839 19.5427C20.0839 20.3732 19.4135 20.7085 18.583 20.297C17.7525 19.8856 17.082 18.8723 17.082 18.0418C17.082 17.2113 17.7525 16.8761 18.583 17.2875C19.4135 17.7066 20.0839 18.7123 20.0839 19.5427Z" fill="#E5E5E5"/>
<path d="M19.5739 20.2131C19.8025 20.0836 19.9397 19.8322 19.9397 19.4741C19.9397 19.4436 19.9397 19.4131 19.9397 19.3903L19.1016 19.2607L19.5739 20.2131Z" fill="#2D3134"/>
<path d="M18.9016 18.56L19.7778 18.7505C19.5949 18.3162 19.2673 17.8895 18.8711 17.6152L18.9016 18.56Z" fill="#2D3134"/>
<path d="M18.2707 18.2476L18.3012 17.3333C17.905 17.219 17.5774 17.3105 17.3945 17.5619L18.2707 18.2476Z" fill="#2D3134"/>
<path d="M17.2344 18.0342C17.2344 18.0647 17.2344 18.0875 17.2344 18.118C17.2344 18.4761 17.3715 18.8647 17.6001 19.2227L18.0801 18.7504L17.2344 18.0342Z" fill="#2D3134"/>
<path d="M18.5845 19.3677L18.0664 19.7867C18.2264 19.9315 18.4016 20.0534 18.5845 20.1448C18.7674 20.2362 18.9426 20.2896 19.1026 20.2972L18.5845 19.3677Z" fill="#2D3134"/>
<path opacity="0.11" d="M20.5119 19.7562C20.5119 20.8152 19.6509 21.2495 18.5919 20.7162C17.5328 20.1828 16.6719 18.8952 16.6719 17.8362C16.6719 16.7771 17.5328 16.3428 18.5919 16.8762C19.6509 17.4019 20.5119 18.6971 20.5119 19.7562Z" fill="black"/>
<path d="M4.66334 9.11243C4.15286 8.85338 3.6881 8.82291 3.34525 8.98291L2.62144 9.37148C2.25572 9.5391 2.01953 9.91243 2.01953 10.461C2.01953 11.5201 2.88048 12.8153 3.93953 13.341C4.46525 13.6001 4.93763 13.6305 5.2881 13.4629C5.2881 13.4629 6.00429 13.082 6.08048 13.0362C6.39287 12.8534 6.58334 12.4953 6.58334 12.0001C6.59096 10.9334 5.73001 9.64577 4.66334 9.11243Z" fill="#2D3134"/>
<path opacity="0.29" d="M5.32031 13.4553C5.45746 13.3867 6.02126 13.0819 6.08984 13.0362C6.40222 12.8534 6.59269 12.4953 6.59269 12C6.59269 11.5734 6.45555 11.1086 6.21936 10.6743L5.49555 11.0629C5.73174 11.4972 5.86888 11.9619 5.86888 12.3886C5.86888 12.9067 5.65555 13.2724 5.32031 13.4553Z" fill="black"/>
<path d="M5.86734 12.3812C5.86734 13.4402 5.00639 13.8745 3.94734 13.3412C2.8883 12.8078 2.02734 11.5202 2.02734 10.4612C2.02734 9.40213 2.8883 8.96785 3.94734 9.50118C5.00639 10.0345 5.86734 11.3221 5.86734 12.3812Z" fill="#2D3134"/>
<path d="M5.44722 12.1756C5.44722 13.006 4.77674 13.3413 3.94627 12.9298C3.11579 12.5184 2.44531 11.5051 2.44531 10.6746C2.44531 9.84413 3.11579 9.50889 3.94627 9.92032C4.77674 10.3317 5.44722 11.3451 5.44722 12.1756Z" fill="#E5E5E5"/>
<path d="M4.93723 12.8381C5.1658 12.7086 5.30294 12.4572 5.30294 12.0991C5.30294 12.0686 5.30294 12.0381 5.30294 12.0153L4.46484 11.8857L4.93723 12.8381Z" fill="#2D3134"/>
<path d="M4.25704 11.185L5.13323 11.3755C4.95037 10.9412 4.62275 10.5145 4.22656 10.2402L4.25704 11.185Z" fill="#2D3134"/>
<path d="M3.634 10.8726L3.66448 9.95832C3.26829 9.84403 2.94067 9.93546 2.75781 10.1869L3.634 10.8726Z" fill="#2D3134"/>
<path d="M2.59766 10.6592C2.59766 10.6897 2.59766 10.7125 2.59766 10.743C2.59766 11.1011 2.7348 11.4897 2.96337 11.8478L3.44337 11.3754L2.59766 10.6592Z" fill="#2D3134"/>
<path d="M3.94778 12L3.42969 12.419C3.58969 12.5638 3.76493 12.6857 3.94778 12.7771C4.13064 12.8686 4.30588 12.9219 4.46588 12.9295L3.94778 12Z" fill="#2D3134"/>
<path opacity="0.11" d="M5.86734 12.3812C5.86734 13.4402 5.00639 13.8745 3.94734 13.3412C2.8883 12.8078 2.02734 11.5202 2.02734 10.4612C2.02734 9.40213 2.8883 8.96785 3.94734 9.50118C5.00639 10.0345 5.86734 11.3221 5.86734 12.3812Z" fill="black"/>
<path d="M30.1732 12.2668C28.7027 10.9563 22.3636 5.97345 21.3046 5.18869C20.2456 4.40392 16.4132 1.9963 13.8379 1.33345C11.2627 0.670591 10.9427 1.05916 10.417 0.944876C9.89127 0.830591 8.32936 0.464876 6.02841 1.17345C5.04555 1.47821 3.87984 1.81345 2.92746 2.66678C1.6627 3.7944 0.687459 5.54678 0.215078 6.49916L0.11603 6.81916C-0.0592078 7.39059 0.0169827 8.01535 0.321745 8.52583C0.580792 8.96011 0.908411 9.46297 1.15222 9.73726C1.36555 9.97345 1.6246 10.2249 1.84555 10.4382C1.84555 10.423 1.84555 10.4001 1.84555 10.3849C1.84555 9.57726 2.31793 9.05916 3.04936 9.05916C3.33889 9.05916 3.65127 9.14297 3.97127 9.30297C5.07603 9.85154 5.96746 11.2001 5.96746 12.3049C5.96746 12.4496 5.95222 12.5868 5.92174 12.7163L16.5046 18.0039C16.497 17.9201 16.4894 17.8363 16.4894 17.7601C16.4894 16.9525 16.9617 16.4344 17.6932 16.4344C17.9827 16.4344 18.2951 16.5182 18.6151 16.6782C19.7198 17.2268 20.6113 18.5753 20.6113 19.6801C20.6113 19.8096 20.596 19.9239 20.5732 20.0382L21.4189 20.4573C21.4189 20.4573 23.0036 20.8687 24.017 20.7773C25.0303 20.6858 27.1179 20.0001 28.7941 19.1696C30.4703 18.3392 31.8875 16.8763 31.9179 16.1144C31.9332 15.8249 31.6436 13.5773 30.1732 12.2668Z" fill="#38C274"/>
<path d="M24.2906 7.8096C24.2906 7.8096 24.1992 7.1696 24.2906 7.00198C24.3821 6.84198 24.5421 6.59055 24.7478 6.77341C24.9535 6.95626 25.1821 7.48198 24.9763 7.9696C24.7706 8.45722 24.2906 7.8096 24.2906 7.8096Z" fill="#38C274"/>
<path opacity="0.3" d="M1.05469 5.31055C1.05469 5.31055 5.96135 8.70102 11.5994 11.7334C17.2375 14.7658 20.2014 16.4877 20.2014 16.4877L16.7194 13.501L4.23183 6.21721L1.05469 5.31055Z" fill="white"/>
<path d="M4.35156 6.29355L16.7097 13.5088C16.7097 13.5088 15.5135 8.25164 11.2925 6.13355C7.07156 4.01545 4.35156 6.29355 4.35156 6.29355Z" fill="#2D3134"/>
<path d="M9.50344 2.39273C11.1492 1.61559 12.4901 1.3794 12.4901 1.2194C12.4901 1.0594 8.26154 0.853682 5.64821 2.16416C3.03487 3.47463 3.1644 4.60225 4.15487 4.48035C5.14535 4.35844 6.47106 4.25178 6.89011 4.04606C7.30916 3.84035 8.10154 3.05559 9.50344 2.39273Z" fill="#2D3134"/>
<path d="M4.11021 4.30486C4.01116 4.30486 3.77497 4.282 3.73688 4.10677C3.67592 3.84772 4.0264 3.12391 5.80164 2.2401C7.7445 1.27248 10.4797 1.19629 11.2721 1.19629C11.6759 1.19629 11.9807 1.21153 12.1864 1.23438C12.0797 1.27248 11.9654 1.31057 11.8435 1.34867C11.295 1.52391 10.4645 1.79058 9.54259 2.23248C8.60545 2.67438 7.91973 3.18486 7.47021 3.51248C7.23402 3.6801 7.05116 3.81724 6.92164 3.88581C6.60164 4.04581 5.61116 4.15248 4.74259 4.25153C4.56735 4.27438 4.39212 4.28962 4.23212 4.30486C4.1864 4.30486 4.14831 4.30486 4.11021 4.30486Z" fill="#656565"/>
<path d="M15.1943 8.34302C15.0419 8.76207 17.4876 12.8916 18.2496 13.0973C19.0038 13.303 21.2819 13.2344 23.5296 11.9925C25.7772 10.7506 26.1962 9.79064 26.0819 9.44016C25.9676 9.0973 21.6476 5.46302 20.9391 5.39445C20.2305 5.32588 15.3772 7.83254 15.1943 8.34302Z" fill="#2D3134"/>
<path opacity="0.2" d="M21.1914 17.2953C21.1914 17.2953 21.5114 16.8686 22.3724 16.7696C23.2333 16.6782 24.2847 16.762 25.0695 17.4629C25.6562 17.9886 25.8695 18.2096 25.8695 18.2096C25.8695 18.2096 24.2085 18.7505 23.3857 18.6363C22.5705 18.522 21.1914 17.2953 21.1914 17.2953Z" fill="white"/>
<path d="M21.3516 17.1504C21.3516 17.1504 21.6487 16.7542 22.4411 16.6704C23.2335 16.5866 24.2087 16.6628 24.9325 17.3104C25.4735 17.7904 25.6716 17.9961 25.6716 17.9961C25.6716 17.9961 24.1401 18.499 23.3782 18.3923C22.6163 18.2856 21.3516 17.1504 21.3516 17.1504Z" fill="#E5E5E5"/>
<path opacity="0.2" d="M30.4321 15.8021C30.4321 15.8021 31.5902 14.7202 31.5292 14.4154C31.4682 14.1031 30.5768 12.564 30.4625 12.7926C30.3482 13.0212 30.1044 13.3869 30.1959 13.6993C30.2873 14.0116 30.4549 15.5278 30.4321 15.8021Z" fill="white"/>
<path d="M30.4227 15.5887C30.4227 15.5887 31.5122 14.5068 31.4589 14.2021C31.3979 13.8897 30.5065 12.3506 30.3922 12.5792C30.2779 12.8078 30.0341 13.1735 30.1256 13.4859C30.217 13.7906 30.4456 15.3068 30.4227 15.5887Z" fill="#E5E5E5"/>
<path d="M23.5225 20.1525L23.4844 20.4877C23.4844 20.4877 26.8901 20.0534 29.031 18.7353C31.1644 17.4172 31.6825 16.3887 31.6825 16.3887C31.6825 16.3887 30.0368 18.1715 28.0253 18.9944C25.9148 19.8477 23.5225 20.1525 23.5225 20.1525Z" fill="#2D3134"/>
<path d="M25.5923 9.15801C25.2038 8.78468 24.4647 8.12944 23.5276 7.37515C22.0038 6.14087 21.1123 5.56944 20.899 5.5542H20.8914C20.579 5.5542 19.3371 6.0723 17.9504 6.78849C16.3581 7.60372 15.5047 8.18277 15.3828 8.35801C15.3981 8.57134 15.8171 9.47801 16.5942 10.7275C17.4552 12.1066 18.08 12.7923 18.2857 12.8532C18.4 12.8837 18.5447 12.9066 18.7123 12.9218C19.7181 12.7694 21.4552 12.3809 23.1466 11.3828C24.579 10.5371 25.2647 9.72182 25.5923 9.15801Z" fill="#656565"/>
<path d="M5.39438 6.00383L5.23438 6.48383L9.98866 9.25717L10.7506 6.19431L10.7277 6.16383C9.72199 5.72193 8.73152 5.50098 7.7639 5.50098C6.75057 5.5086 5.94295 5.76002 5.39438 6.00383Z" fill="#656565"/>
<path d="M15.4161 12.4266L15.6066 11.2608C15.5228 11.0856 15.439 10.9104 15.34 10.7275C14.6238 9.37131 13.359 7.55036 11.3552 6.47607L10.8828 9.77512L15.4161 12.4266Z" fill="#656565"/>
<path opacity="0.2" d="M6.18653 8.35069C6.18653 8.57165 6.00367 8.66307 5.78272 8.55641C5.56176 8.44212 5.37891 8.17546 5.37891 7.94688C5.37891 7.71831 5.56176 7.6345 5.78272 7.74117C6.00367 7.85546 6.18653 8.12212 6.18653 8.35069Z" fill="black"/>
<path d="M5.13618 7.66504L4.96094 7.86313C4.96094 7.86313 6.23332 8.69361 6.3476 8.52599C6.46951 8.36599 5.13618 7.66504 5.13618 7.66504Z" fill="#38C274"/>
<path opacity="0.2" d="M11.6123 11.4363C11.6123 11.6572 11.4294 11.7486 11.2085 11.642C10.9875 11.5277 10.8047 11.261 10.8047 11.0325C10.8047 10.8115 10.9875 10.7201 11.2085 10.8267C11.4294 10.941 11.6123 11.2077 11.6123 11.4363Z" fill="#38C274"/>
<path d="M10.562 10.7432L10.3867 10.9413C10.3867 10.9413 11.6591 11.7717 11.7734 11.6041C11.8953 11.4441 10.562 10.7432 10.562 10.7432Z" fill="#38C274"/>
<path opacity="0.2" d="M16.6791 13.5013C16.6791 13.5089 16.5419 14.0346 16.4276 14.6746C16.321 15.2536 16.26 17.1736 16.2448 17.5165L10.18 14.446C10.1724 14.3241 10.0886 13.1889 10.0886 12.1527C10.0886 11.0632 10.3629 9.85174 10.3629 9.84413L10.2943 9.82889C10.2943 9.84413 10.02 11.0632 10.02 12.1527C10.02 13.1127 10.0886 14.1641 10.1115 14.4079L7.09431 12.8841C7.02574 12.7927 6.29431 11.7946 5.57812 10.2784C4.83907 8.71651 5.01431 6.73555 5.02193 6.7127L4.95336 6.70508C4.95336 6.72794 4.7705 8.72413 5.51717 10.3089C6.27145 11.8936 7.04098 12.9222 7.0486 12.9298L7.05622 12.9375L16.3057 17.6308V17.5775C16.3057 17.5546 16.3743 15.3222 16.4886 14.6898C16.6029 14.0575 16.74 13.5241 16.74 13.5241L16.6791 13.5013Z" fill="black"/>
<path opacity="0.3" d="M23.9319 17.2346C23.9319 17.5089 23.7109 17.8365 23.4366 17.9737C23.1624 18.1108 22.9414 17.9965 22.9414 17.7299C22.9414 17.4556 23.1624 17.128 23.4366 16.9908C23.7109 16.8537 23.9319 16.9604 23.9319 17.2346Z" fill="black"/>
<path opacity="0.3" d="M24.6935 17.4325C24.6935 17.623 24.5411 17.8516 24.3507 17.9506C24.1602 18.0421 24.0078 17.9659 24.0078 17.7754C24.0078 17.5849 24.1602 17.3564 24.3507 17.2573C24.5411 17.1659 24.6935 17.2421 24.6935 17.4325Z" fill="black"/>
<path d="M22.8345 17.6837C22.8345 17.7828 22.7507 17.9123 22.6516 17.958C22.5526 18.0113 22.4688 17.9656 22.4688 17.8666C22.4688 17.7675 22.5526 17.638 22.6516 17.5923C22.7507 17.539 22.8345 17.5771 22.8345 17.6837Z" fill="white"/>
<path opacity="0.4" d="M23.7259 17.4403C23.7259 17.5775 23.6116 17.7451 23.4821 17.8136C23.3449 17.8822 23.2383 17.8289 23.2383 17.6917C23.2383 17.5546 23.3526 17.387 23.4821 17.3184C23.6116 17.2498 23.7259 17.3032 23.7259 17.4403Z" fill="white"/>
<path opacity="0.4" d="M24.5649 17.5695C24.5649 17.6686 24.4811 17.7981 24.3821 17.8438C24.283 17.8971 24.1992 17.8514 24.1992 17.7524C24.1992 17.6533 24.283 17.5238 24.3821 17.4781C24.4811 17.4248 24.5649 17.4705 24.5649 17.5695Z" fill="white"/>
<path d="M22.561 17.0666C22.561 17.1656 22.4772 17.2952 22.3782 17.3409C22.2791 17.3942 22.1953 17.3485 22.1953 17.2494C22.1953 17.1504 22.2791 17.0209 22.3782 16.9752C22.4772 16.9218 22.561 16.9675 22.561 17.0666Z" fill="white"/>
<path d="M30.7056 13.0592C30.7056 13.1583 30.6217 13.2878 30.5227 13.3335C30.4237 13.3868 30.3398 13.3411 30.3398 13.2421C30.3398 13.143 30.4237 13.0135 30.5227 12.9678C30.6217 12.9144 30.7056 12.9525 30.7056 13.0592Z" fill="white"/>
<path d="M31.0493 13.5392C31.0493 13.6383 30.9655 13.7678 30.8665 13.8135C30.7674 13.8669 30.6836 13.8212 30.6836 13.7221C30.6836 13.6231 30.7674 13.4935 30.8665 13.4478C30.9655 13.3945 31.0493 13.4402 31.0493 13.5392Z" fill="white"/>
<path opacity="0.3" d="M31.1541 13.8591C31.1541 14.0953 30.9636 14.3772 30.7274 14.4915C30.4913 14.6058 30.3008 14.5144 30.3008 14.2782C30.3008 14.042 30.4913 13.7601 30.7274 13.6458C30.9636 13.5315 31.1541 13.6306 31.1541 13.8591Z" fill="black"/>
<path opacity="0.4" d="M30.9032 14.1106C30.9032 14.2325 30.8042 14.3773 30.6899 14.4382C30.568 14.4992 30.4766 14.4458 30.4766 14.3316C30.4766 14.2173 30.5756 14.0649 30.6899 14.0039C30.8042 13.943 30.9032 13.9887 30.9032 14.1106Z" fill="white"/>
<path opacity="0.3" d="M30.8115 14.499C30.8115 14.3085 30.6591 14.2323 30.4686 14.3237C30.4076 14.3542 30.3543 14.3923 30.3086 14.4456C30.3391 14.6513 30.3695 14.8647 30.3924 15.0475C30.4153 15.0399 30.4457 15.0323 30.4762 15.0171C30.6591 14.9256 30.8115 14.6894 30.8115 14.499Z" fill="black"/>
<path opacity="0.3" d="M21.3516 17.1428C21.7249 17.1123 22.7763 17.059 23.4392 17.219C24.102 17.379 25.2525 17.8209 25.6639 17.9885C25.6182 17.9428 25.4049 17.7295 24.9325 17.3104C24.2087 16.6628 23.2335 16.5866 22.4411 16.6704C21.7173 16.7466 21.4049 17.0818 21.3516 17.1428Z" fill="black"/>
<path d="M14.9885 11.6494C14.9885 11.6494 15.5599 11.9237 15.8189 12.2666C16.0704 12.6094 16.0704 12.7923 16.0704 12.7923C16.0704 12.7923 14.4856 13.1351 13.7008 12.6323C12.8704 12.0913 14.9885 11.6494 14.9885 11.6494Z" fill="#38C274"/>
<path d="M19.1562 12.9754L19.4458 12.9526L22.1124 11.6573L22.2572 11.3906L23.8801 10.6364L23.8115 10.5068L20.7105 11.8859L20.802 12.0002L22.0058 11.4668L21.9372 11.543L19.3315 12.7926L19.1562 12.9754Z" fill="#2D3134"/>
<path d="M21.9766 12.259H22.228L24.3537 10.6819L24.6128 10.0723L25.428 9.03615L25.3747 8.95996L23.8432 10.7047L23.9042 10.7962L24.3156 10.4304L24.2013 10.6362L22.0451 12.1295L21.9766 12.259Z" fill="#2D3134"/>
<path d="M25.1914 17.2876L26.0752 18.08C26.0752 18.08 27.3552 17.8362 28.4981 17.2495C29.6409 16.6629 30.3266 15.8705 30.3266 15.8705L30.2352 14.7124C30.2352 14.7124 29.7171 15.6495 28.2238 16.3886C26.8981 17.0514 25.1914 17.2876 25.1914 17.2876Z" fill="#2D3134"/>
<path opacity="0.29" d="M28.7422 18.9637C30.4108 18.1256 31.8355 16.7085 31.866 15.9466C31.8736 15.817 31.8813 15.6037 31.6984 15.0018C31.6832 14.9485 31.6146 14.9408 31.5841 14.9866C30.9975 15.8247 29.9994 16.9142 28.4451 17.6608C26.8298 18.438 24.8489 19.1008 23.3251 19.0247C22.967 19.0094 22.906 19.3675 22.8755 19.9313C22.8603 20.297 23.1651 20.6018 23.5308 20.5637C24.8413 20.4342 26.9441 19.8627 28.7422 18.9637Z" fill="black"/>
<path opacity="0.11" d="M21.5793 17.9659C21.0459 17.364 17.9983 14.164 17.2059 12.9145C16.1697 11.2917 14.4783 7.32213 11.3621 5.83642C8.23832 4.35071 4.70308 4.98309 3.63642 5.05928C2.9888 5.09737 1.98308 4.86118 1.28213 4.66309C0.824989 5.35642 0.466893 6.0269 0.230703 6.50689L0.131655 6.8269C-0.0435828 7.39832 0.0326077 8.02309 0.33737 8.53356C0.596417 8.96785 0.924036 9.4707 1.16785 9.74499C1.38118 9.98118 1.64023 10.2326 1.86118 10.4459C1.86118 10.4307 1.86118 10.4078 1.86118 10.3926C1.86118 9.58499 2.33356 9.0669 3.06499 9.0669C3.35451 9.0669 3.66689 9.1507 3.98689 9.3107C5.09166 9.85928 5.98308 11.2078 5.98308 12.3126C5.98308 12.4574 5.96785 12.5945 5.93737 12.724L16.5202 18.0117C16.5126 17.9278 16.505 17.844 16.505 17.7678C16.505 16.9602 16.9774 16.4421 17.7088 16.4421C17.9983 16.4421 18.3107 16.5259 18.6307 16.6859C19.7355 17.2345 20.6269 18.5831 20.6269 19.6878C20.6269 19.8174 20.6117 19.9317 20.5888 20.0459L21.4345 20.465C21.4345 20.465 21.8764 20.5793 22.4402 20.6783C22.3031 19.5583 22.0212 18.4688 21.5793 17.9659Z" fill="black"/>
<path d="M0.336942 6.74311C0.336942 6.74311 0.816942 5.51644 1.08361 5.13549C1.35028 4.75453 1.64742 4.41168 1.64742 4.41168L1.56361 4.18311C1.56361 4.18311 0.999799 4.3812 0.900751 4.54882C0.794085 4.72406 0.222656 6.4993 0.222656 6.4993L0.336942 6.74311Z" fill="#38C274"/>
<path opacity="0.2" d="M25.4513 9.37896C25.5046 9.30277 25.5503 9.22658 25.5884 9.15801C25.1999 8.78468 24.4608 8.12944 23.5237 7.37515C21.9999 6.14087 21.1084 5.56944 20.8951 5.5542H20.8875C20.5751 5.5542 19.3332 6.0723 17.9465 6.78849C16.3541 7.60372 15.5008 8.18277 15.3789 8.35801C15.3865 8.42658 15.4322 8.57896 15.5237 8.78468C18.777 7.73325 22.3351 7.93896 25.4513 9.37896Z" fill="black"/>
<path d="M27.6875 18.5295V19.6419L29.6913 18.6438V17.5391L27.6875 18.5295Z" fill="#E5E5E5"/>
<path opacity="0.2" d="M30.4227 15.5887C30.4227 15.5887 31.5122 14.5068 31.4589 14.2021C31.3979 13.8897 30.5065 12.3506 30.3922 12.5792C30.2779 12.8078 30.0341 13.1735 30.1256 13.4859C30.217 13.7906 30.4456 15.3068 30.4227 15.5887Z" fill="black"/>
<path d="M15.2996 8.67815C15.0558 8.07625 13.3643 6.15625 11.4901 5.23434C9.12815 4.07625 7.071 4.07625 6.65196 4.1372L6.63672 4.03815C7.06339 3.9772 9.151 3.9772 11.5358 5.14292C12.3662 5.54673 13.2653 6.20958 14.0805 7.00196C14.7281 7.62673 15.2539 8.28958 15.3986 8.64006L15.2996 8.67815Z" fill="#2D3134"/>
<path d="M21.3427 5.71449L21.3351 5.70688C20.5732 5.15068 18.5389 3.67259 16.6646 2.7583C14.3103 1.60783 12.4741 1.24973 12.0703 1.24973V1.14307C12.4817 1.14307 14.3408 1.50116 16.7103 2.66688C18.5922 3.58878 20.6265 5.06688 21.396 5.62307L21.4036 5.63068L21.3427 5.71449Z" fill="#2D3134"/>
</svg>
