<svg width="32" height="33" viewBox="0 0 32 33" fill="none" xmlns="http://www.w3.org/2000/svg">
<path d="M15.9989 31.1668L21.6269 28.1002C24.2747 26.656 26.4129 24.4308 27.7502 21.7275C29.0875 19.0242 29.5589 15.9744 29.1002 12.9935L27.9989 5.8335C19.9989 5.8335 15.9989 1.8335 15.9989 1.8335C15.9989 1.8335 11.9989 5.8335 3.99891 5.8335L2.89757 12.9908C2.4383 15.9721 2.90944 19.0226 4.24679 21.7264C5.58415 24.4302 7.72266 26.6559 10.3709 28.1002L15.9989 31.1668Z" fill="#38C274"/>
<path d="M13.3328 21.8334C12.9792 21.8333 12.6401 21.6928 12.3901 21.4427L9.72346 18.7761C9.59611 18.6531 9.49453 18.5059 9.42466 18.3433C9.35478 18.1806 9.318 18.0056 9.31646 17.8286C9.31492 17.6515 9.34865 17.476 9.41569 17.3121C9.48274 17.1483 9.58174 16.9994 9.70693 16.8742C9.83212 16.749 9.98099 16.65 10.1449 16.583C10.3087 16.5159 10.4843 16.4822 10.6613 16.4837C10.8384 16.4853 11.0133 16.522 11.176 16.5919C11.3387 16.6618 11.4858 16.7634 11.6088 16.8907L13.3328 18.6147L20.3901 11.5574C20.6416 11.3145 20.9784 11.1801 21.328 11.1832C21.6776 11.1862 22.012 11.3264 22.2592 11.5736C22.5064 11.8208 22.6467 12.1553 22.6497 12.5049C22.6527 12.8544 22.5183 13.1913 22.2755 13.4427L14.2755 21.4427C14.0255 21.6928 13.6864 21.8333 13.3328 21.8334Z" fill="#0E1824"/>
</svg>
