<svg width="32" height="32" viewBox="0 0 32 32" fill="none" xmlns="http://www.w3.org/2000/svg">
<path d="M8 26.1642C7.08124 25.9039 6.35696 25.509 5.75736 24.9094C4 23.1521 4 20.3235 4 14.6667C4 9.00989 4 6.18147 5.75736 4.42411C7.51472 2.66675 10.3431 2.66675 16 2.66675C21.6568 2.66675 24.4853 2.66675 26.2427 4.42411C28 6.18147 28 9.00989 28 14.6667C28 20.3235 28 23.1521 26.2427 24.9094C25.6431 25.509 24.9188 25.9039 24 26.1642" stroke="#38C274" stroke-width="2" stroke-linecap="round"/>
<path d="M16 26.9238C15.4477 26.9238 15.0033 27.3495 14.1144 28.2011C13.2525 29.0267 12.8216 29.4395 12.4583 29.3099C12.4137 29.2941 12.3707 29.2731 12.3302 29.2474C12 29.0382 12 28.4149 12 27.1683V23.0017C12 20.9582 12 19.9365 12.5858 19.3015C13.1716 18.6667 14.1144 18.6667 16 18.6667C17.8856 18.6667 18.8284 18.6667 19.4143 19.3015C20 19.9365 20 20.9582 20 23.0017V27.1683C20 28.4149 20 29.0382 19.6699 29.2474C19.6292 29.2731 19.5863 29.2941 19.5417 29.3099C19.1784 29.4395 18.7475 29.0267 17.8856 28.2011C16.9967 27.3495 16.5523 26.9238 16 26.9238Z" stroke="#38C274" stroke-width="2" stroke-linecap="round" stroke-linejoin="round"/>
<path d="M10.668 13.3333H21.3346" stroke="#38C274" stroke-width="2" stroke-linecap="round" stroke-linejoin="round"/>
<path d="M10.668 8H16.0013" stroke="#38C274" stroke-width="2" stroke-linecap="round" stroke-linejoin="round"/>
</svg>
