<svg width="17" height="17" viewBox="0 0 17 17" fill="none" xmlns="http://www.w3.org/2000/svg">
<path d="M8.2513 15.1668C11.9332 15.1668 14.918 12.182 14.918 8.50016C14.918 4.81826 11.9332 1.8335 8.2513 1.8335C5.26618 1.8335 2.76748 3.79542 1.91797 6.50016H3.58464" stroke="#94A3B8" stroke-linecap="round" stroke-linejoin="round"/>
<path d="M8.25 5.8335V8.50016L9.58333 9.8335" stroke="#94A3B8" stroke-linecap="round" stroke-linejoin="round"/>
<path d="M1.58203 8.5C1.58203 8.72487 1.59216 8.94727 1.61199 9.16667M6.2487 15.1667C6.02096 15.0917 5.7985 15.0043 5.58203 14.9052M2.38829 11.8333C2.25973 11.5856 2.14505 11.3289 2.04534 11.0641M3.46951 13.371C3.6733 13.5905 3.89074 13.7961 4.1204 13.9861" stroke="#94A3B8" stroke-linecap="round" stroke-linejoin="round"/>
</svg>
