<svg width="52" height="37" viewBox="0 0 52 37" fill="none" xmlns="http://www.w3.org/2000/svg">
<path d="M3.00868 17.7445L9.22391 16.0112L4.9401 13.5474L2.77344 15.6397L3.00868 17.7445Z" fill="#2D3134"/>
<path d="M26.8297 30.101L33.0449 28.3676L28.7487 25.9038L26.582 27.9962L26.8297 30.101Z" fill="#2D3134"/>
<path opacity="0.29" d="M3.00868 17.7445L9.22391 16.0112L4.9401 13.5474L2.77344 15.6397L3.00868 17.7445Z" fill="black"/>
<path opacity="0.29" d="M26.8297 30.101L33.0449 28.3676L28.7487 25.9038L26.582 27.9962L26.8297 30.101Z" fill="black"/>
<path d="M31.3743 27.637C30.5448 27.2161 29.7896 27.1666 29.2324 27.4266L28.0562 28.058C27.4619 28.3304 27.0781 28.937 27.0781 29.8285C27.0781 31.5494 28.4772 33.6542 30.1981 34.5085C31.0524 34.9294 31.82 34.979 32.3896 34.7066C32.3896 34.7066 33.5534 34.0875 33.6772 34.0132C34.1848 33.7161 34.4943 33.1342 34.4943 32.3294C34.4943 30.5961 33.0953 28.5037 31.3743 27.637Z" fill="#2D3134"/>
<path opacity="0.29" d="M32.4258 34.6943C32.6486 34.5829 33.5648 34.0877 33.6763 34.0134C34.1839 33.7162 34.4934 33.1343 34.4934 32.3296C34.4934 31.6362 34.2705 30.881 33.8867 30.1753L32.7105 30.8067C33.0944 31.5124 33.3172 32.2677 33.3172 32.961C33.3296 33.8029 32.9829 34.4096 32.4258 34.6943Z" fill="black"/>
<path d="M33.3298 32.961C33.3298 34.682 31.9308 35.3877 30.2098 34.521C28.4889 33.6544 27.0898 31.562 27.0898 29.841C27.0898 28.1201 28.4889 27.4144 30.2098 28.281C31.9308 29.1353 33.3298 31.2401 33.3298 32.961Z" fill="#2D3134"/>
<path d="M32.6359 32.6143C32.6359 33.9638 31.5464 34.5086 30.1969 33.84C28.8473 33.1715 27.7578 31.5248 27.7578 30.1753C27.7578 28.8258 28.8473 28.281 30.1969 28.9496C31.5464 29.6305 32.6359 31.2648 32.6359 32.6143Z" fill="#E5E5E5"/>
<path d="M31.8106 33.7039C32.182 33.4934 32.4049 33.0848 32.4049 32.5029C32.4049 32.4534 32.4049 32.4039 32.4049 32.3667L31.043 32.1562L31.8106 33.7039Z" fill="#2D3134"/>
<path d="M30.7175 31.0172L32.1413 31.3267C31.8442 30.621 31.3118 29.9276 30.668 29.4819L30.7175 31.0172Z" fill="#2D3134"/>
<path d="M29.6933 30.5096L29.7429 29.0239C29.0991 28.8382 28.5667 28.9867 28.2695 29.3953L29.6933 30.5096Z" fill="#2D3134"/>
<path d="M28.0078 30.1631C28.0078 30.2126 28.0078 30.2497 28.0078 30.2993C28.0078 30.8812 28.2307 31.5126 28.6021 32.0945L29.3821 31.3269L28.0078 30.1631Z" fill="#2D3134"/>
<path d="M30.1974 32.3296L29.3555 33.0105C29.6155 33.2458 29.9002 33.4439 30.1974 33.5924C30.4945 33.741 30.7793 33.8277 31.0393 33.8401L30.1974 32.3296Z" fill="#2D3134"/>
<path opacity="0.11" d="M33.3298 32.961C33.3298 34.682 31.9308 35.3877 30.2098 34.521C28.4889 33.6544 27.0898 31.562 27.0898 29.841C27.0898 28.1201 28.4889 27.4144 30.2098 28.281C31.9308 29.1353 33.3298 31.2401 33.3298 32.961Z" fill="black"/>
<path d="M7.57744 15.6649C6.74792 15.2439 5.99268 15.1944 5.43554 15.4544L4.25935 16.0858C3.66506 16.3582 3.28125 16.9649 3.28125 17.8563C3.28125 19.5773 4.6803 21.682 6.40125 22.5363C7.25554 22.9573 8.02315 23.0068 8.59268 22.7344C8.59268 22.7344 9.75649 22.1154 9.8803 22.0411C10.3879 21.7439 10.6974 21.162 10.6974 20.3573C10.7098 18.6239 9.31077 16.5315 7.57744 15.6649Z" fill="#2D3134"/>
<path opacity="0.29" d="M8.64062 22.7222C8.86348 22.6107 9.77967 22.1155 9.8911 22.0412C10.3987 21.7441 10.7082 21.1622 10.7082 20.3574C10.7082 19.6641 10.4854 18.9088 10.1016 18.2031L8.92539 18.8346C9.3092 19.5403 9.53205 20.2955 9.53205 20.9888C9.53205 21.8307 9.18539 22.425 8.64062 22.7222Z" fill="black"/>
<path d="M9.53297 20.9762C9.53297 22.6971 8.13392 23.4028 6.41297 22.5362C4.69202 21.6695 3.29297 19.5771 3.29297 17.8562C3.29297 16.1352 4.69202 15.4295 6.41297 16.2962C8.13392 17.1628 9.53297 19.2552 9.53297 20.9762Z" fill="#2D3134"/>
<path d="M8.85075 20.6417C8.85075 21.9912 7.76123 22.536 6.4117 21.8674C5.06218 21.1988 3.97266 19.5521 3.97266 18.2026C3.97266 16.8531 5.06218 16.3083 6.4117 16.9769C7.76123 17.6455 8.85075 19.2921 8.85075 20.6417Z" fill="#E5E5E5"/>
<path d="M8.02543 21.719C8.39686 21.5085 8.61972 21.1 8.61972 20.5181C8.61972 20.4685 8.61972 20.419 8.61972 20.3819L7.25781 20.1714L8.02543 21.719Z" fill="#2D3134"/>
<path d="M6.92062 19.0323L8.34443 19.3418C8.04728 18.6361 7.5149 17.9428 6.87109 17.4971L6.92062 19.0323Z" fill="#2D3134"/>
<path d="M5.90818 18.5247L5.95771 17.039C5.3139 16.8533 4.78152 17.0019 4.48438 17.4104L5.90818 18.5247Z" fill="#2D3134"/>
<path d="M4.22266 18.1782C4.22266 18.2277 4.22266 18.2649 4.22266 18.3144C4.22266 18.8963 4.44551 19.5277 4.81694 20.1097L5.59694 19.342L4.22266 18.1782Z" fill="#2D3134"/>
<path d="M6.41222 20.3569L5.57031 21.0379C5.83031 21.2731 6.11507 21.4712 6.41222 21.6198C6.70936 21.7684 6.99412 21.855 7.25412 21.8674L6.41222 20.3569Z" fill="#2D3134"/>
<path opacity="0.11" d="M9.53297 20.9762C9.53297 22.6971 8.13392 23.4028 6.41297 22.5362C4.69202 21.6695 3.29297 19.5771 3.29297 17.8562C3.29297 16.1352 4.69202 15.4295 6.41297 16.2962C8.13392 17.1628 9.53297 19.2552 9.53297 20.9762Z" fill="black"/>
<path d="M49.0285 20.7904C46.639 18.6609 36.338 10.5637 34.617 9.28849C32.8961 8.01325 26.6685 4.10087 22.4837 3.02373C18.299 1.94658 17.779 2.57801 16.9247 2.3923C16.0704 2.20658 13.5323 1.6123 9.79324 2.76373C8.1961 3.25896 6.30181 3.80373 4.75419 5.19039C2.69895 7.02277 1.11419 9.87039 0.346572 11.418L0.18562 11.938C-0.0991424 12.8666 0.0246672 13.8818 0.519905 14.7113C0.940858 15.4171 1.47324 16.2342 1.86943 16.6799C2.2161 17.0637 2.63705 17.4723 2.9961 17.819C2.9961 17.7942 2.9961 17.7571 2.9961 17.7323C2.9961 16.4199 3.76371 15.578 4.95229 15.578C5.42276 15.578 5.93038 15.7142 6.45038 15.9742C8.24562 16.8656 9.69419 19.0571 9.69419 20.8523C9.69419 21.0875 9.66943 21.3104 9.6199 21.5209L26.817 30.1132C26.8047 29.9771 26.7923 29.8409 26.7923 29.7171C26.7923 28.4047 27.5599 27.5628 28.7485 27.5628C29.219 27.5628 29.7266 27.699 30.2466 27.959C32.0418 28.8504 33.4904 31.0418 33.4904 32.8371C33.4904 33.0475 33.4656 33.2332 33.4285 33.419L34.8028 34.0999C34.8028 34.0999 37.378 34.7685 39.0247 34.6199C40.6713 34.4713 44.0637 33.3571 46.7875 32.0075C49.5113 30.658 51.8142 28.2809 51.8637 27.0428C51.8885 26.5723 51.418 22.9199 49.0285 20.7904Z" fill="#C2F0D5"/>
<path d="M39.4723 13.5475C39.4723 13.5475 39.3237 12.5075 39.4723 12.2351C39.6209 11.9751 39.8809 11.5665 40.2151 11.8637C40.5494 12.1608 40.9209 13.0151 40.5866 13.8075C40.2523 14.5998 39.4723 13.5475 39.4723 13.5475Z" fill="#C2F0D5"/>
<path opacity="0.3" d="M1.70703 9.48682C1.70703 9.48682 9.68036 14.9963 18.8423 19.924C28.0042 24.8516 32.8204 27.6497 32.8204 27.6497L27.1623 22.7963L6.86989 10.9602L1.70703 9.48682Z" fill="white"/>
<path d="M7.07031 11.0835L27.1522 22.8083C27.1522 22.8083 25.2084 14.2654 18.3494 10.8235C11.4903 7.38161 7.07031 11.0835 7.07031 11.0835Z" fill="#2D3134"/>
<path d="M15.4392 4.74463C18.1135 3.48177 20.2925 3.09796 20.2925 2.83796C20.2925 2.57796 13.4211 2.24368 9.17443 4.3732C4.92776 6.50273 5.13824 8.33511 6.74776 8.13701C8.35729 7.93892 10.5116 7.76558 11.1925 7.4313C11.8735 7.09701 13.1611 5.82177 15.4392 4.74463Z" fill="#2D3134"/>
<path d="M6.67177 7.85221C6.51082 7.85221 6.12701 7.81507 6.0651 7.5303C5.96605 7.10935 6.53558 5.93316 9.42034 4.49697C12.5775 2.92459 17.0222 2.80078 18.3099 2.80078C18.9661 2.80078 19.4613 2.82554 19.7956 2.86269C19.6222 2.92459 19.4365 2.9865 19.2384 3.0484C18.347 3.33316 16.9975 3.7665 15.4994 4.48459C13.9765 5.20269 12.8622 6.03221 12.1318 6.56459C11.748 6.83697 11.4508 7.05983 11.2403 7.17126C10.7203 7.43126 9.11082 7.60459 7.69939 7.76554C7.41462 7.80269 7.12986 7.82745 6.86986 7.85221C6.79558 7.85221 6.73367 7.85221 6.67177 7.85221Z" fill="#656565"/>
<path d="M24.6869 14.4143C24.4392 15.0952 28.4135 21.8057 29.6516 22.14C30.8773 22.4743 34.5792 22.3628 38.2316 20.3448C41.884 18.3267 42.5649 16.7667 42.3792 16.1971C42.1935 15.64 35.1735 9.73428 34.0221 9.62285C32.8707 9.51142 24.984 13.5848 24.6869 14.4143Z" fill="#2D3134"/>
<path opacity="0.2" d="M34.4297 28.9617C34.4297 28.9617 34.9497 28.2683 36.3487 28.1074C37.7478 27.9588 39.4564 28.095 40.7316 29.2341C41.6849 30.0883 42.0316 30.4474 42.0316 30.4474C42.0316 30.4474 39.3325 31.3264 37.9954 31.1407C36.6706 30.955 34.4297 28.9617 34.4297 28.9617Z" fill="white"/>
<path d="M34.6914 28.7266C34.6914 28.7266 35.1743 28.0828 36.4619 27.9466C37.7495 27.8104 39.3343 27.9342 40.5105 28.9866C41.3895 29.7666 41.7114 30.1009 41.7114 30.1009C41.7114 30.1009 39.2228 30.918 37.9847 30.7447C36.7466 30.5714 34.6914 28.7266 34.6914 28.7266Z" fill="#E5E5E5"/>
<path opacity="0.2" d="M49.4477 26.5354C49.4477 26.5354 51.3296 24.7773 51.2306 24.282C51.1315 23.7744 49.6829 21.2735 49.4972 21.6449C49.3115 22.0163 48.9153 22.6106 49.0639 23.1182C49.2125 23.6258 49.4848 26.0896 49.4477 26.5354Z" fill="white"/>
<path d="M49.4374 26.1887C49.4374 26.1887 51.2078 24.4306 51.1212 23.9353C51.0221 23.4277 49.5736 20.9268 49.3879 21.2982C49.2021 21.6696 48.8059 22.2639 48.9545 22.7715C49.1031 23.2668 49.4745 25.7306 49.4374 26.1887Z" fill="#E5E5E5"/>
<path d="M38.2182 33.6045L38.1562 34.1492C38.1562 34.1492 43.6905 33.4435 47.1696 31.3016C50.6362 29.1597 51.4782 27.4883 51.4782 27.4883C51.4782 27.4883 48.8039 30.3854 45.5353 31.7226C42.1058 33.1092 38.2182 33.6045 38.2182 33.6045Z" fill="#2D3134"/>
<path d="M41.5866 15.739C40.9551 15.1323 39.7542 14.0676 38.2313 12.8419C35.7551 10.8361 34.3066 9.90757 33.9599 9.88281H33.9475C33.4399 9.88281 31.4218 10.7247 29.1685 11.8885C26.5809 13.2133 25.1942 14.1542 24.9961 14.439C25.0209 14.7857 25.7018 16.259 26.9647 18.2895C28.3637 20.5304 29.379 21.6447 29.7132 21.7438C29.899 21.7933 30.1342 21.8304 30.4066 21.8552C32.0409 21.6076 34.8637 20.9761 37.6123 19.3542C39.9399 17.98 41.0542 16.6552 41.5866 15.739Z" fill="#656565"/>
<path d="M8.76391 10.613L8.50391 11.393L16.2296 15.8997L17.4677 10.9226L17.4306 10.873C15.7963 10.1549 14.1868 9.7959 12.6144 9.7959C10.9677 9.80828 9.65534 10.2169 8.76391 10.613Z" fill="#656565"/>
<path d="M25.0464 21.0504L25.3559 19.1561C25.2197 18.8713 25.0835 18.5866 24.9225 18.2894C23.7587 16.0856 21.7035 13.1266 18.4473 11.3809L17.6797 16.7418L25.0464 21.0504Z" fill="#656565"/>
<path opacity="0.2" d="M10.0546 14.4268C10.0546 14.7859 9.75743 14.9344 9.39838 14.7611C9.03933 14.5754 8.74219 14.142 8.74219 13.7706C8.74219 13.3992 9.03933 13.263 9.39838 13.4363C9.75743 13.622 10.0546 14.0554 10.0546 14.4268Z" fill="black"/>
<path d="M8.34336 13.3125L8.05859 13.6344C8.05859 13.6344 10.1262 14.9839 10.3119 14.7115C10.51 14.4515 8.34336 13.3125 8.34336 13.3125Z" fill="#C2F0D5"/>
<path opacity="0.2" d="M18.8671 19.4407C18.8671 19.7998 18.5699 19.9484 18.2109 19.775C17.8518 19.5893 17.5547 19.156 17.5547 18.7846C17.5547 18.4255 17.8518 18.2769 18.2109 18.4503C18.5699 18.636 18.8671 19.0693 18.8671 19.4407Z" fill="#C2F0D5"/>
<path d="M17.1598 18.314L16.875 18.6359C16.875 18.6359 18.9426 19.9854 19.1283 19.713C19.3264 19.453 17.1598 18.314 17.1598 18.314Z" fill="#C2F0D5"/>
<path opacity="0.2" d="M27.102 22.7963C27.102 22.8086 26.8792 23.6629 26.6935 24.7029C26.5201 25.6439 26.4211 28.7639 26.3963 29.321L16.5411 24.3315C16.5287 24.1334 16.3925 22.2886 16.3925 20.6048C16.3925 18.8343 16.8382 16.8658 16.8382 16.8534L16.7268 16.8286C16.7268 16.8534 16.2811 18.8343 16.2811 20.6048C16.2811 22.1648 16.3925 23.8734 16.4296 24.2696L11.5268 21.7934C11.4154 21.6448 10.2268 20.0229 9.06298 17.5591C7.86203 15.021 8.14679 11.802 8.15917 11.7648L8.04774 11.7524C8.04774 11.7896 7.7506 15.0334 8.96393 17.6086C10.1896 20.1839 11.4401 21.8553 11.4525 21.8677L11.4649 21.8801L26.4954 29.5067V29.4201C26.4954 29.3829 26.6068 25.7553 26.7925 24.7277C26.9782 23.7001 27.2011 22.8334 27.2011 22.8334L27.102 22.7963Z" fill="black"/>
<path opacity="0.3" d="M38.8869 28.8628C38.8869 29.3085 38.5278 29.8409 38.0821 30.0637C37.6364 30.2866 37.2773 30.1009 37.2773 29.6676C37.2773 29.2218 37.6364 28.6895 38.0821 28.4666C38.5278 28.2437 38.8869 28.4171 38.8869 28.8628Z" fill="black"/>
<path opacity="0.3" d="M40.126 29.1848C40.126 29.4943 39.8784 29.8658 39.5689 30.0267C39.2593 30.1753 39.0117 30.0515 39.0117 29.742C39.0117 29.4324 39.2593 29.061 39.5689 28.9001C39.8784 28.7515 40.126 28.8753 40.126 29.1848Z" fill="black"/>
<path d="M37.106 29.5932C37.106 29.7542 36.9698 29.9647 36.8089 30.0389C36.6479 30.1256 36.5117 30.0513 36.5117 29.8904C36.5117 29.7294 36.6479 29.5189 36.8089 29.4447C36.9698 29.358 37.106 29.4199 37.106 29.5932Z" fill="white"/>
<path opacity="0.4" d="M38.5541 29.1973C38.5541 29.4201 38.3684 29.6925 38.1579 29.8039C37.9351 29.9154 37.7617 29.8287 37.7617 29.6058C37.7617 29.383 37.9474 29.1106 38.1579 28.9992C38.3684 28.8877 38.5541 28.9744 38.5541 29.1973Z" fill="white"/>
<path opacity="0.4" d="M39.9146 29.4073C39.9146 29.5683 39.7784 29.7788 39.6175 29.8531C39.4565 29.9397 39.3203 29.8654 39.3203 29.7045C39.3203 29.5435 39.4565 29.3331 39.6175 29.2588C39.7784 29.1721 39.9146 29.2464 39.9146 29.4073Z" fill="white"/>
<path d="M36.6607 28.5905C36.6607 28.7514 36.5245 28.9619 36.3636 29.0362C36.2026 29.1228 36.0664 29.0485 36.0664 28.8876C36.0664 28.7266 36.2026 28.5162 36.3636 28.4419C36.5245 28.3552 36.6607 28.4295 36.6607 28.5905Z" fill="white"/>
<path d="M49.8951 22.0781C49.8951 22.239 49.7589 22.4495 49.5979 22.5238C49.437 22.6105 49.3008 22.5362 49.3008 22.3752C49.3008 22.2143 49.437 22.0038 49.5979 21.9295C49.7589 21.8429 49.8951 21.9048 49.8951 22.0781Z" fill="white"/>
<path d="M50.4537 22.858C50.4537 23.019 50.3175 23.2295 50.1565 23.3037C49.9956 23.3904 49.8594 23.3161 49.8594 23.1552C49.8594 22.9942 49.9956 22.7837 50.1565 22.7095C50.3175 22.6228 50.4537 22.6971 50.4537 22.858Z" fill="white"/>
<path opacity="0.3" d="M50.6249 23.3782C50.6249 23.762 50.3154 24.2201 49.9316 24.4059C49.5478 24.5916 49.2383 24.443 49.2383 24.0592C49.2383 23.6754 49.5478 23.2173 49.9316 23.0316C50.3154 22.8459 50.6249 23.0068 50.6249 23.3782Z" fill="black"/>
<path opacity="0.4" d="M50.2168 23.7864C50.2168 23.9844 50.0558 24.2197 49.8701 24.3187C49.672 24.4178 49.5234 24.3311 49.5234 24.1454C49.5234 23.9597 49.6844 23.7121 49.8701 23.613C50.0558 23.514 50.2168 23.5883 50.2168 23.7864Z" fill="white"/>
<path opacity="0.3" d="M50.0671 24.4182C50.0671 24.1087 49.8195 23.9849 49.51 24.1335C49.411 24.183 49.3243 24.2449 49.25 24.3316C49.2995 24.6658 49.349 25.0125 49.3862 25.3097C49.4233 25.2973 49.4729 25.2849 49.5224 25.2601C49.8195 25.1116 50.0671 24.7277 50.0671 24.4182Z" fill="black"/>
<path opacity="0.3" d="M34.6914 28.7142C35.2981 28.6647 37.0066 28.578 38.0838 28.838C39.1609 29.098 41.0304 29.8161 41.699 30.0885C41.6247 30.0142 41.2781 29.6675 40.5105 28.9866C39.3343 27.9342 37.7495 27.8104 36.4619 27.9466C35.2857 28.0704 34.7781 28.6152 34.6914 28.7142Z" fill="black"/>
<path d="M24.3514 19.7876C24.3514 19.7876 25.2799 20.2333 25.7009 20.7905C26.1095 21.3476 26.1095 21.6447 26.1095 21.6447C26.1095 21.6447 23.5342 22.2019 22.259 21.3847C20.9095 20.5057 24.3514 19.7876 24.3514 19.7876Z" fill="#38C274"/>
<path d="M31.125 21.9416L31.5955 21.9045L35.9288 19.7997L36.164 19.3664L38.8012 18.1407L38.6898 17.9302L33.6507 20.1711L33.7993 20.3568L35.7555 19.4902L35.644 19.614L31.4098 21.6445L31.125 21.9416Z" fill="#2D3134"/>
<path d="M35.707 20.7779H36.1156L39.5699 18.2151L39.9908 17.2246L41.3156 15.5408L41.2289 15.417L38.7404 18.2522L38.8394 18.4008L39.508 17.8065L39.3223 18.1408L35.8185 20.5675L35.707 20.7779Z" fill="#2D3134"/>
<path d="M40.9297 28.9494L42.3659 30.237C42.3659 30.237 44.4459 29.8408 46.303 28.8875C48.1602 27.9342 49.2744 26.6466 49.2744 26.6466L49.1259 24.7646C49.1259 24.7646 48.284 26.2875 45.8573 27.4885C43.703 28.5656 40.9297 28.9494 40.9297 28.9494Z" fill="#2D3134"/>
<path opacity="0.29" d="M46.7022 31.6733C49.4136 30.3113 51.7289 28.0085 51.7784 26.7704C51.7908 26.5599 51.8031 26.2133 51.506 25.2352C51.4812 25.1485 51.3698 25.1361 51.3203 25.2104C50.367 26.5723 48.745 28.3428 46.2193 29.5561C43.5946 30.819 40.3755 31.8961 37.8993 31.7723C37.3174 31.7475 37.2184 32.3294 37.1689 33.2456C37.1441 33.8399 37.6393 34.3352 38.2336 34.2733C40.3631 34.0628 43.7803 33.1342 46.7022 31.6733Z" fill="black"/>
<path opacity="0.11" d="M35.0614 30.0512C34.1948 29.0731 29.2424 23.8731 27.9548 21.8427C26.271 19.2055 23.5224 12.755 18.4586 10.3407C13.3824 7.92646 7.63763 8.95408 5.90429 9.07789C4.85191 9.1398 3.21763 8.75599 2.07858 8.43408C1.33572 9.56075 0.753819 10.6503 0.370009 11.4303L0.209057 11.9503C-0.0757049 12.8788 0.0481047 13.8941 0.543343 14.7236C0.964295 15.4293 1.49668 16.2465 1.89287 16.6922C2.23953 17.076 2.66049 17.4846 3.01953 17.8312C3.01953 17.8065 3.01953 17.7693 3.01953 17.7446C3.01953 16.4322 3.78715 15.5903 4.97572 15.5903C5.4462 15.5903 5.95382 15.7265 6.47382 15.9865C8.26906 16.8779 9.71763 19.0693 9.71763 20.8646C9.71763 21.0998 9.69287 21.3227 9.64334 21.5331L26.8405 30.1255C26.8281 29.9893 26.8157 29.8531 26.8157 29.7293C26.8157 28.4169 27.5833 27.575 28.7719 27.575C29.2424 27.575 29.75 27.7112 30.27 27.9712C32.0652 28.8627 33.5138 31.0541 33.5138 32.8493C33.5138 33.0598 33.4891 33.2455 33.4519 33.4312L34.8262 34.1122C34.8262 34.1122 35.5443 34.2979 36.4605 34.4588C36.2376 32.6388 35.7795 30.8684 35.0614 30.0512Z" fill="black"/>
<path d="M0.545089 11.8143C0.545089 11.8143 1.32509 9.82096 1.75842 9.20192C2.19176 8.58287 2.67461 8.02573 2.67461 8.02573L2.53842 7.6543C2.53842 7.6543 1.62223 7.9762 1.46128 8.24858C1.28795 8.53334 0.359375 11.4181 0.359375 11.4181L0.545089 11.8143Z" fill="#C2F0D5"/>
<path opacity="0.2" d="M41.352 16.0981C41.4387 15.9742 41.5129 15.8504 41.5748 15.739C40.9434 15.1323 39.7425 14.0676 38.2196 12.8419C35.7434 10.8361 34.2949 9.90757 33.9482 9.88281H33.9358C33.4282 9.88281 31.4101 10.7247 29.1568 11.8885C26.5691 13.2133 25.1825 14.1542 24.9844 14.439C24.9968 14.5504 25.071 14.7981 25.2196 15.1323C30.5063 13.4238 36.2882 13.7581 41.352 16.0981Z" fill="black"/>
<path d="M44.9922 30.9674V32.775L48.2484 31.1531V29.3579L44.9922 30.9674Z" fill="#E5E5E5"/>
<path opacity="0.2" d="M49.4374 26.1887C49.4374 26.1887 51.2078 24.4306 51.1212 23.9353C51.0221 23.4277 49.5736 20.9268 49.3879 21.2982C49.2021 21.6696 48.8059 22.2639 48.9545 22.7715C49.1031 23.2668 49.4745 25.7306 49.4374 26.1887Z" fill="black"/>
<path d="M24.8623 14.9592C24.4661 13.9811 21.7175 10.8611 18.6718 9.36299C14.8337 7.48108 11.4909 7.48108 10.8099 7.58013L10.7852 7.41918C11.4785 7.32013 14.8709 7.32013 18.7461 9.21442C20.0956 9.87061 21.5566 10.9477 22.8813 12.2354C23.9337 13.2506 24.788 14.3277 25.0233 14.8973L24.8623 14.9592Z" fill="#2D3134"/>
<path d="M34.6809 10.1429L34.6685 10.1305C33.4304 9.22673 30.1247 6.82483 27.079 5.33912C23.2533 3.46959 20.2695 2.88769 19.6133 2.88769V2.71436C20.2819 2.71436 23.3028 3.29626 27.1533 5.19055C30.2114 6.68864 33.5171 9.09055 34.7676 9.99436L34.78 10.0067L34.6809 10.1429Z" fill="#2D3134"/>
</svg>
