<svg width="16" height="16" viewBox="0 0 16 16" fill="none" xmlns="http://www.w3.org/2000/svg">
<path d="M10 6L6 9.99973M10 10L6 6.00026" stroke="black" stroke-linecap="round" stroke-linejoin="round"/>
<path d="M1.66797 8.00008C1.66797 5.01452 1.66797 3.52174 2.59546 2.59424C3.52296 1.66675 5.01574 1.66675 8.0013 1.66675C10.9868 1.66675 12.4796 1.66675 13.4072 2.59424C14.3346 3.52174 14.3346 5.01452 14.3346 8.00008C14.3346 10.9856 14.3346 12.4784 13.4072 13.4059C12.4796 14.3334 10.9868 14.3334 8.0013 14.3334C5.01574 14.3334 3.52296 14.3334 2.59546 13.4059C1.66797 12.4784 1.66797 10.9856 1.66797 8.00008Z" stroke="black"/>
</svg>
