<svg width="52" height="36" viewBox="0 0 52 36" fill="none" xmlns="http://www.w3.org/2000/svg">
<path d="M3.00868 17.2445L9.22391 15.5112L4.9401 13.0474L2.77344 15.1397L3.00868 17.2445Z" fill="#2D3134"/>
<path d="M26.8297 29.601L33.0449 27.8676L28.7487 25.4038L26.582 27.4962L26.8297 29.601Z" fill="#2D3134"/>
<path opacity="0.29" d="M3.00868 17.2445L9.22391 15.5112L4.9401 13.0474L2.77344 15.1397L3.00868 17.2445Z" fill="black"/>
<path opacity="0.29" d="M26.8297 29.601L33.0449 27.8676L28.7487 25.4038L26.582 27.4962L26.8297 29.601Z" fill="black"/>
<path d="M31.3743 27.137C30.5448 26.7161 29.7896 26.6666 29.2324 26.9266L28.0562 27.558C27.4619 27.8304 27.0781 28.437 27.0781 29.3285C27.0781 31.0494 28.4772 33.1542 30.1981 34.0085C31.0524 34.4294 31.82 34.479 32.3896 34.2066C32.3896 34.2066 33.5534 33.5875 33.6772 33.5132C34.1848 33.2161 34.4943 32.6342 34.4943 31.8294C34.4943 30.0961 33.0953 28.0037 31.3743 27.137Z" fill="#2D3134"/>
<path opacity="0.29" d="M32.4258 34.1943C32.6486 34.0829 33.5648 33.5877 33.6763 33.5134C34.1839 33.2162 34.4934 32.6343 34.4934 31.8296C34.4934 31.1362 34.2705 30.381 33.8867 29.6753L32.7105 30.3067C33.0944 31.0124 33.3172 31.7677 33.3172 32.461C33.3296 33.3029 32.9829 33.9096 32.4258 34.1943Z" fill="black"/>
<path d="M33.3298 32.461C33.3298 34.182 31.9308 34.8877 30.2098 34.021C28.4889 33.1544 27.0898 31.062 27.0898 29.341C27.0898 27.6201 28.4889 26.9144 30.2098 27.781C31.9308 28.6353 33.3298 30.7401 33.3298 32.461Z" fill="#2D3134"/>
<path d="M32.6359 32.1143C32.6359 33.4638 31.5464 34.0086 30.1969 33.34C28.8473 32.6715 27.7578 31.0248 27.7578 29.6753C27.7578 28.3258 28.8473 27.781 30.1969 28.4496C31.5464 29.1305 32.6359 30.7648 32.6359 32.1143Z" fill="#E5E5E5"/>
<path d="M31.8106 33.2039C32.182 32.9934 32.4049 32.5848 32.4049 32.0029C32.4049 31.9534 32.4049 31.9039 32.4049 31.8667L31.043 31.6562L31.8106 33.2039Z" fill="#2D3134"/>
<path d="M30.7175 30.5172L32.1413 30.8267C31.8442 30.121 31.3118 29.4276 30.668 28.9819L30.7175 30.5172Z" fill="#2D3134"/>
<path d="M29.6933 30.0096L29.7429 28.5239C29.0991 28.3382 28.5667 28.4867 28.2695 28.8953L29.6933 30.0096Z" fill="#2D3134"/>
<path d="M28.0078 29.6631C28.0078 29.7126 28.0078 29.7497 28.0078 29.7993C28.0078 30.3812 28.2307 31.0126 28.6021 31.5945L29.3821 30.8269L28.0078 29.6631Z" fill="#2D3134"/>
<path d="M30.1974 31.8296L29.3555 32.5105C29.6155 32.7458 29.9002 32.9439 30.1974 33.0924C30.4945 33.241 30.7793 33.3277 31.0393 33.3401L30.1974 31.8296Z" fill="#2D3134"/>
<path opacity="0.11" d="M33.3298 32.461C33.3298 34.182 31.9308 34.8877 30.2098 34.021C28.4889 33.1544 27.0898 31.062 27.0898 29.341C27.0898 27.6201 28.4889 26.9144 30.2098 27.781C31.9308 28.6353 33.3298 30.7401 33.3298 32.461Z" fill="black"/>
<path d="M7.57744 15.1649C6.74792 14.7439 5.99268 14.6944 5.43554 14.9544L4.25935 15.5858C3.66506 15.8582 3.28125 16.4649 3.28125 17.3563C3.28125 19.0773 4.6803 21.182 6.40125 22.0363C7.25554 22.4573 8.02315 22.5068 8.59268 22.2344C8.59268 22.2344 9.75649 21.6154 9.8803 21.5411C10.3879 21.2439 10.6974 20.662 10.6974 19.8573C10.7098 18.1239 9.31077 16.0315 7.57744 15.1649Z" fill="#2D3134"/>
<path opacity="0.29" d="M8.64062 22.2222C8.86348 22.1107 9.77967 21.6155 9.8911 21.5412C10.3987 21.2441 10.7082 20.6622 10.7082 19.8574C10.7082 19.1641 10.4854 18.4088 10.1016 17.7031L8.92539 18.3346C9.3092 19.0403 9.53205 19.7955 9.53205 20.4888C9.53205 21.3307 9.18539 21.925 8.64062 22.2222Z" fill="black"/>
<path d="M9.53297 20.4762C9.53297 22.1971 8.13392 22.9028 6.41297 22.0362C4.69202 21.1695 3.29297 19.0771 3.29297 17.3562C3.29297 15.6352 4.69202 14.9295 6.41297 15.7962C8.13392 16.6628 9.53297 18.7552 9.53297 20.4762Z" fill="#2D3134"/>
<path d="M8.85075 20.1417C8.85075 21.4912 7.76123 22.036 6.4117 21.3674C5.06218 20.6988 3.97266 19.0521 3.97266 17.7026C3.97266 16.3531 5.06218 15.8083 6.4117 16.4769C7.76123 17.1455 8.85075 18.7921 8.85075 20.1417Z" fill="#E5E5E5"/>
<path d="M8.02543 21.219C8.39686 21.0085 8.61972 20.6 8.61972 20.0181C8.61972 19.9685 8.61972 19.919 8.61972 19.8819L7.25781 19.6714L8.02543 21.219Z" fill="#2D3134"/>
<path d="M6.92062 18.5323L8.34443 18.8418C8.04728 18.1361 7.5149 17.4428 6.87109 16.9971L6.92062 18.5323Z" fill="#2D3134"/>
<path d="M5.90818 18.0247L5.95771 16.539C5.3139 16.3533 4.78152 16.5019 4.48438 16.9104L5.90818 18.0247Z" fill="#2D3134"/>
<path d="M4.22266 17.6782C4.22266 17.7277 4.22266 17.7649 4.22266 17.8144C4.22266 18.3963 4.44551 19.0277 4.81694 19.6097L5.59694 18.842L4.22266 17.6782Z" fill="#2D3134"/>
<path d="M6.41222 19.8569L5.57031 20.5379C5.83031 20.7731 6.11507 20.9712 6.41222 21.1198C6.70936 21.2684 6.99412 21.355 7.25412 21.3674L6.41222 19.8569Z" fill="#2D3134"/>
<path opacity="0.11" d="M9.53297 20.4762C9.53297 22.1971 8.13392 22.9028 6.41297 22.0362C4.69202 21.1695 3.29297 19.0771 3.29297 17.3562C3.29297 15.6352 4.69202 14.9295 6.41297 15.7962C8.13392 16.6628 9.53297 18.7552 9.53297 20.4762Z" fill="black"/>
<path d="M49.0285 20.2904C46.639 18.1609 36.338 10.0637 34.617 8.78849C32.8961 7.51325 26.6685 3.60087 22.4837 2.52373C18.299 1.44658 17.779 2.07801 16.9247 1.8923C16.0704 1.70658 13.5323 1.1123 9.79324 2.26373C8.1961 2.75896 6.30181 3.30373 4.75419 4.69039C2.69895 6.52277 1.11419 9.37039 0.346572 10.918L0.18562 11.438C-0.0991424 12.3666 0.0246672 13.3818 0.519905 14.2113C0.940858 14.9171 1.47324 15.7342 1.86943 16.1799C2.2161 16.5637 2.63705 16.9723 2.9961 17.319C2.9961 17.2942 2.9961 17.2571 2.9961 17.2323C2.9961 15.9199 3.76371 15.078 4.95229 15.078C5.42276 15.078 5.93038 15.2142 6.45038 15.4742C8.24562 16.3656 9.69419 18.5571 9.69419 20.3523C9.69419 20.5875 9.66943 20.8104 9.6199 21.0209L26.817 29.6132C26.8047 29.4771 26.7923 29.3409 26.7923 29.2171C26.7923 27.9047 27.5599 27.0628 28.7485 27.0628C29.219 27.0628 29.7266 27.199 30.2466 27.459C32.0418 28.3504 33.4904 30.5418 33.4904 32.3371C33.4904 32.5475 33.4656 32.7332 33.4285 32.919L34.8028 33.5999C34.8028 33.5999 37.378 34.2685 39.0247 34.1199C40.6713 33.9713 44.0637 32.8571 46.7875 31.5075C49.5113 30.158 51.8142 27.7809 51.8637 26.5428C51.8885 26.0723 51.418 22.4199 49.0285 20.2904Z" fill="#C2F0D5"/>
<path d="M39.4723 13.0475C39.4723 13.0475 39.3237 12.0075 39.4723 11.7351C39.6209 11.4751 39.8809 11.0665 40.2151 11.3637C40.5494 11.6608 40.9209 12.5151 40.5866 13.3075C40.2523 14.0998 39.4723 13.0475 39.4723 13.0475Z" fill="#C2F0D5"/>
<path opacity="0.3" d="M1.70703 8.98682C1.70703 8.98682 9.68036 14.4963 18.8423 19.424C28.0042 24.3516 32.8204 27.1497 32.8204 27.1497L27.1623 22.2963L6.86989 10.4602L1.70703 8.98682Z" fill="white"/>
<path d="M7.07031 10.5835L27.1522 22.3083C27.1522 22.3083 25.2084 13.7654 18.3494 10.3235C11.4903 6.88161 7.07031 10.5835 7.07031 10.5835Z" fill="#2D3134"/>
<path d="M15.4392 4.24463C18.1135 2.98177 20.2925 2.59796 20.2925 2.33796C20.2925 2.07796 13.4211 1.74368 9.17443 3.8732C4.92776 6.00273 5.13824 7.83511 6.74776 7.63701C8.35729 7.43892 10.5116 7.26558 11.1925 6.9313C11.8735 6.59701 13.1611 5.32177 15.4392 4.24463Z" fill="#2D3134"/>
<path d="M6.67177 7.35221C6.51082 7.35221 6.12701 7.31507 6.0651 7.0303C5.96605 6.60935 6.53558 5.43316 9.42034 3.99697C12.5775 2.42459 17.0222 2.30078 18.3099 2.30078C18.9661 2.30078 19.4613 2.32554 19.7956 2.36269C19.6222 2.42459 19.4365 2.4865 19.2384 2.5484C18.347 2.83316 16.9975 3.2665 15.4994 3.98459C13.9765 4.70269 12.8622 5.53221 12.1318 6.06459C11.748 6.33697 11.4508 6.55983 11.2403 6.67126C10.7203 6.93126 9.11082 7.10459 7.69939 7.26554C7.41462 7.30269 7.12986 7.32745 6.86986 7.35221C6.79558 7.35221 6.73367 7.35221 6.67177 7.35221Z" fill="#656565"/>
<path d="M24.6869 13.9143C24.4392 14.5952 28.4135 21.3057 29.6516 21.64C30.8773 21.9743 34.5792 21.8628 38.2316 19.8448C41.884 17.8267 42.5649 16.2667 42.3792 15.6971C42.1935 15.14 35.1735 9.23428 34.0221 9.12285C32.8707 9.01142 24.984 13.0848 24.6869 13.9143Z" fill="#2D3134"/>
<path opacity="0.2" d="M34.4297 28.4617C34.4297 28.4617 34.9497 27.7683 36.3487 27.6074C37.7478 27.4588 39.4564 27.595 40.7316 28.7341C41.6849 29.5883 42.0316 29.9474 42.0316 29.9474C42.0316 29.9474 39.3325 30.8264 37.9954 30.6407C36.6706 30.455 34.4297 28.4617 34.4297 28.4617Z" fill="white"/>
<path d="M34.6914 28.2266C34.6914 28.2266 35.1743 27.5828 36.4619 27.4466C37.7495 27.3104 39.3343 27.4342 40.5105 28.4866C41.3895 29.2666 41.7114 29.6009 41.7114 29.6009C41.7114 29.6009 39.2228 30.418 37.9847 30.2447C36.7466 30.0714 34.6914 28.2266 34.6914 28.2266Z" fill="#E5E5E5"/>
<path opacity="0.2" d="M49.4477 26.0354C49.4477 26.0354 51.3296 24.2773 51.2306 23.782C51.1315 23.2744 49.6829 20.7735 49.4972 21.1449C49.3115 21.5163 48.9153 22.1106 49.0639 22.6182C49.2125 23.1258 49.4848 25.5896 49.4477 26.0354Z" fill="white"/>
<path d="M49.4374 25.6887C49.4374 25.6887 51.2078 23.9306 51.1212 23.4353C51.0221 22.9277 49.5736 20.4268 49.3879 20.7982C49.2021 21.1696 48.8059 21.7639 48.9545 22.2715C49.1031 22.7668 49.4745 25.2306 49.4374 25.6887Z" fill="#E5E5E5"/>
<path d="M38.2182 33.1045L38.1562 33.6492C38.1562 33.6492 43.6905 32.9435 47.1696 30.8016C50.6362 28.6597 51.4782 26.9883 51.4782 26.9883C51.4782 26.9883 48.8039 29.8854 45.5353 31.2226C42.1058 32.6092 38.2182 33.1045 38.2182 33.1045Z" fill="#2D3134"/>
<path d="M41.5866 15.239C40.9551 14.6323 39.7542 13.5676 38.2313 12.3419C35.7551 10.3361 34.3066 9.40757 33.9599 9.38281H33.9475C33.4399 9.38281 31.4218 10.2247 29.1685 11.3885C26.5809 12.7133 25.1942 13.6542 24.9961 13.939C25.0209 14.2857 25.7018 15.759 26.9647 17.7895C28.3637 20.0304 29.379 21.1447 29.7132 21.2438C29.899 21.2933 30.1342 21.3304 30.4066 21.3552C32.0409 21.1076 34.8637 20.4761 37.6123 18.8542C39.9399 17.48 41.0542 16.1552 41.5866 15.239Z" fill="#656565"/>
<path d="M8.76391 10.113L8.50391 10.893L16.2296 15.3997L17.4677 10.4226L17.4306 10.373C15.7963 9.65495 14.1868 9.2959 12.6144 9.2959C10.9677 9.30828 9.65534 9.71685 8.76391 10.113Z" fill="#656565"/>
<path d="M25.0464 20.5504L25.3559 18.6561C25.2197 18.3713 25.0835 18.0866 24.9225 17.7894C23.7587 15.5856 21.7035 12.6266 18.4473 10.8809L17.6797 16.2418L25.0464 20.5504Z" fill="#656565"/>
<path opacity="0.2" d="M10.0546 13.9268C10.0546 14.2859 9.75743 14.4344 9.39838 14.2611C9.03933 14.0754 8.74219 13.642 8.74219 13.2706C8.74219 12.8992 9.03933 12.763 9.39838 12.9363C9.75743 13.122 10.0546 13.5554 10.0546 13.9268Z" fill="black"/>
<path d="M8.34336 12.8125L8.05859 13.1344C8.05859 13.1344 10.1262 14.4839 10.3119 14.2115C10.51 13.9515 8.34336 12.8125 8.34336 12.8125Z" fill="#C2F0D5"/>
<path opacity="0.2" d="M18.8671 18.9407C18.8671 19.2998 18.5699 19.4484 18.2109 19.275C17.8518 19.0893 17.5547 18.656 17.5547 18.2846C17.5547 17.9255 17.8518 17.7769 18.2109 17.9503C18.5699 18.136 18.8671 18.5693 18.8671 18.9407Z" fill="#C2F0D5"/>
<path d="M17.1598 17.814L16.875 18.1359C16.875 18.1359 18.9426 19.4854 19.1283 19.213C19.3264 18.953 17.1598 17.814 17.1598 17.814Z" fill="#C2F0D5"/>
<path opacity="0.2" d="M27.102 22.2963C27.102 22.3086 26.8792 23.1629 26.6935 24.2029C26.5201 25.1439 26.4211 28.2639 26.3963 28.821L16.5411 23.8315C16.5287 23.6334 16.3925 21.7886 16.3925 20.1048C16.3925 18.3343 16.8382 16.3658 16.8382 16.3534L16.7268 16.3286C16.7268 16.3534 16.2811 18.3343 16.2811 20.1048C16.2811 21.6648 16.3925 23.3734 16.4296 23.7696L11.5268 21.2934C11.4154 21.1448 10.2268 19.5229 9.06298 17.0591C7.86203 14.521 8.14679 11.302 8.15917 11.2648L8.04774 11.2524C8.04774 11.2896 7.7506 14.5334 8.96393 17.1086C10.1896 19.6839 11.4401 21.3553 11.4525 21.3677L11.4649 21.3801L26.4954 29.0067V28.9201C26.4954 28.8829 26.6068 25.2553 26.7925 24.2277C26.9782 23.2001 27.2011 22.3334 27.2011 22.3334L27.102 22.2963Z" fill="black"/>
<path opacity="0.3" d="M38.8869 28.3628C38.8869 28.8085 38.5278 29.3409 38.0821 29.5637C37.6364 29.7866 37.2773 29.6009 37.2773 29.1676C37.2773 28.7218 37.6364 28.1895 38.0821 27.9666C38.5278 27.7437 38.8869 27.9171 38.8869 28.3628Z" fill="black"/>
<path opacity="0.3" d="M40.126 28.6848C40.126 28.9943 39.8784 29.3658 39.5689 29.5267C39.2593 29.6753 39.0117 29.5515 39.0117 29.242C39.0117 28.9324 39.2593 28.561 39.5689 28.4001C39.8784 28.2515 40.126 28.3753 40.126 28.6848Z" fill="black"/>
<path d="M37.106 29.0932C37.106 29.2542 36.9698 29.4647 36.8089 29.5389C36.6479 29.6256 36.5117 29.5513 36.5117 29.3904C36.5117 29.2294 36.6479 29.0189 36.8089 28.9447C36.9698 28.858 37.106 28.9199 37.106 29.0932Z" fill="white"/>
<path opacity="0.4" d="M38.5541 28.6973C38.5541 28.9201 38.3684 29.1925 38.1579 29.3039C37.9351 29.4154 37.7617 29.3287 37.7617 29.1058C37.7617 28.883 37.9474 28.6106 38.1579 28.4992C38.3684 28.3877 38.5541 28.4744 38.5541 28.6973Z" fill="white"/>
<path opacity="0.4" d="M39.9146 28.9073C39.9146 29.0683 39.7784 29.2788 39.6175 29.3531C39.4565 29.4397 39.3203 29.3654 39.3203 29.2045C39.3203 29.0435 39.4565 28.8331 39.6175 28.7588C39.7784 28.6721 39.9146 28.7464 39.9146 28.9073Z" fill="white"/>
<path d="M36.6607 28.0905C36.6607 28.2514 36.5245 28.4619 36.3636 28.5362C36.2026 28.6228 36.0664 28.5485 36.0664 28.3876C36.0664 28.2266 36.2026 28.0162 36.3636 27.9419C36.5245 27.8552 36.6607 27.9295 36.6607 28.0905Z" fill="white"/>
<path d="M49.8951 21.5781C49.8951 21.739 49.7589 21.9495 49.5979 22.0238C49.437 22.1105 49.3008 22.0362 49.3008 21.8752C49.3008 21.7143 49.437 21.5038 49.5979 21.4295C49.7589 21.3429 49.8951 21.4048 49.8951 21.5781Z" fill="white"/>
<path d="M50.4537 22.358C50.4537 22.519 50.3175 22.7295 50.1565 22.8037C49.9956 22.8904 49.8594 22.8161 49.8594 22.6552C49.8594 22.4942 49.9956 22.2837 50.1565 22.2095C50.3175 22.1228 50.4537 22.1971 50.4537 22.358Z" fill="white"/>
<path opacity="0.3" d="M50.6249 22.8782C50.6249 23.262 50.3154 23.7201 49.9316 23.9059C49.5478 24.0916 49.2383 23.943 49.2383 23.5592C49.2383 23.1754 49.5478 22.7173 49.9316 22.5316C50.3154 22.3459 50.6249 22.5068 50.6249 22.8782Z" fill="black"/>
<path opacity="0.4" d="M50.2168 23.2864C50.2168 23.4844 50.0558 23.7197 49.8701 23.8187C49.672 23.9178 49.5234 23.8311 49.5234 23.6454C49.5234 23.4597 49.6844 23.2121 49.8701 23.113C50.0558 23.014 50.2168 23.0883 50.2168 23.2864Z" fill="white"/>
<path opacity="0.3" d="M50.0671 23.9182C50.0671 23.6087 49.8195 23.4849 49.51 23.6335C49.411 23.683 49.3243 23.7449 49.25 23.8316C49.2995 24.1658 49.349 24.5125 49.3862 24.8097C49.4233 24.7973 49.4729 24.7849 49.5224 24.7601C49.8195 24.6116 50.0671 24.2277 50.0671 23.9182Z" fill="black"/>
<path opacity="0.3" d="M34.6914 28.2142C35.2981 28.1647 37.0066 28.078 38.0838 28.338C39.1609 28.598 41.0304 29.3161 41.699 29.5885C41.6247 29.5142 41.2781 29.1675 40.5105 28.4866C39.3343 27.4342 37.7495 27.3104 36.4619 27.4466C35.2857 27.5704 34.7781 28.1152 34.6914 28.2142Z" fill="black"/>
<path d="M24.3514 19.2876C24.3514 19.2876 25.2799 19.7333 25.7009 20.2905C26.1095 20.8476 26.1095 21.1447 26.1095 21.1447C26.1095 21.1447 23.5342 21.7019 22.259 20.8847C20.9095 20.0057 24.3514 19.2876 24.3514 19.2876Z" fill="#38C274"/>
<path d="M31.125 21.4416L31.5955 21.4045L35.9288 19.2997L36.164 18.8664L38.8012 17.6407L38.6898 17.4302L33.6507 19.6711L33.7993 19.8568L35.7555 18.9902L35.644 19.114L31.4098 21.1445L31.125 21.4416Z" fill="#2D3134"/>
<path d="M35.707 20.2779H36.1156L39.5699 17.7151L39.9908 16.7246L41.3156 15.0408L41.2289 14.917L38.7404 17.7522L38.8394 17.9008L39.508 17.3065L39.3223 17.6408L35.8185 20.0675L35.707 20.2779Z" fill="#2D3134"/>
<path d="M40.9297 28.4494L42.3659 29.737C42.3659 29.737 44.4459 29.3408 46.303 28.3875C48.1602 27.4342 49.2744 26.1466 49.2744 26.1466L49.1259 24.2646C49.1259 24.2646 48.284 25.7875 45.8573 26.9885C43.703 28.0656 40.9297 28.4494 40.9297 28.4494Z" fill="#2D3134"/>
<path opacity="0.29" d="M46.7022 31.1733C49.4136 29.8113 51.7289 27.5085 51.7784 26.2704C51.7908 26.0599 51.8031 25.7133 51.506 24.7352C51.4812 24.6485 51.3698 24.6361 51.3203 24.7104C50.367 26.0723 48.745 27.8428 46.2193 29.0561C43.5946 30.319 40.3755 31.3961 37.8993 31.2723C37.3174 31.2475 37.2184 31.8294 37.1689 32.7456C37.1441 33.3399 37.6393 33.8352 38.2336 33.7733C40.3631 33.5628 43.7803 32.6342 46.7022 31.1733Z" fill="black"/>
<path opacity="0.11" d="M35.0614 29.5512C34.1948 28.5731 29.2424 23.3731 27.9548 21.3427C26.271 18.7055 23.5224 12.255 18.4586 9.84075C13.3824 7.42646 7.63763 8.45408 5.90429 8.57789C4.85191 8.6398 3.21763 8.25599 2.07858 7.93408C1.33572 9.06075 0.753819 10.1503 0.370009 10.9303L0.209057 11.4503C-0.0757049 12.3788 0.0481047 13.3941 0.543343 14.2236C0.964295 14.9293 1.49668 15.7465 1.89287 16.1922C2.23953 16.576 2.66049 16.9846 3.01953 17.3312C3.01953 17.3065 3.01953 17.2693 3.01953 17.2446C3.01953 15.9322 3.78715 15.0903 4.97572 15.0903C5.4462 15.0903 5.95382 15.2265 6.47382 15.4865C8.26906 16.3779 9.71763 18.5693 9.71763 20.3646C9.71763 20.5998 9.69287 20.8227 9.64334 21.0331L26.8405 29.6255C26.8281 29.4893 26.8157 29.3531 26.8157 29.2293C26.8157 27.9169 27.5833 27.075 28.7719 27.075C29.2424 27.075 29.75 27.2112 30.27 27.4712C32.0652 28.3627 33.5138 30.5541 33.5138 32.3493C33.5138 32.5598 33.4891 32.7455 33.4519 32.9312L34.8262 33.6122C34.8262 33.6122 35.5443 33.7979 36.4605 33.9588C36.2376 32.1388 35.7795 30.3684 35.0614 29.5512Z" fill="black"/>
<path d="M0.545089 11.3143C0.545089 11.3143 1.32509 9.32096 1.75842 8.70192C2.19176 8.08287 2.67461 7.52573 2.67461 7.52573L2.53842 7.1543C2.53842 7.1543 1.62223 7.4762 1.46128 7.74858C1.28795 8.03334 0.359375 10.9181 0.359375 10.9181L0.545089 11.3143Z" fill="#C2F0D5"/>
<path opacity="0.2" d="M41.352 15.5981C41.4387 15.4742 41.5129 15.3504 41.5748 15.239C40.9434 14.6323 39.7425 13.5676 38.2196 12.3419C35.7434 10.3361 34.2949 9.40757 33.9482 9.38281H33.9358C33.4282 9.38281 31.4101 10.2247 29.1568 11.3885C26.5691 12.7133 25.1825 13.6542 24.9844 13.939C24.9968 14.0504 25.071 14.2981 25.2196 14.6323C30.5063 12.9238 36.2882 13.2581 41.352 15.5981Z" fill="black"/>
<path d="M44.9922 30.4674V32.275L48.2484 30.6531V28.8579L44.9922 30.4674Z" fill="#E5E5E5"/>
<path opacity="0.2" d="M49.4374 25.6887C49.4374 25.6887 51.2078 23.9306 51.1212 23.4353C51.0221 22.9277 49.5736 20.4268 49.3879 20.7982C49.2021 21.1696 48.8059 21.7639 48.9545 22.2715C49.1031 22.7668 49.4745 25.2306 49.4374 25.6887Z" fill="black"/>
<path d="M24.8623 14.4592C24.4661 13.4811 21.7175 10.3611 18.6718 8.86299C14.8337 6.98108 11.4909 6.98108 10.8099 7.08013L10.7852 6.91918C11.4785 6.82013 14.8709 6.82013 18.7461 8.71442C20.0956 9.37061 21.5566 10.4477 22.8813 11.7354C23.9337 12.7506 24.788 13.8277 25.0233 14.3973L24.8623 14.4592Z" fill="#2D3134"/>
<path d="M34.6809 9.64293L34.6685 9.63054C33.4304 8.72673 30.1247 6.32483 27.079 4.83912C23.2533 2.96959 20.2695 2.38769 19.6133 2.38769V2.21436C20.2819 2.21436 23.3028 2.79626 27.1533 4.69055C30.2114 6.18864 33.5171 8.59055 34.7676 9.49436L34.78 9.50673L34.6809 9.64293Z" fill="#2D3134"/>
</svg>
