<svg width="16" height="17" viewBox="0 0 16 17" fill="none" xmlns="http://www.w3.org/2000/svg">
<path d="M14.6654 8.50016C14.6654 12.182 11.6806 15.1668 7.9987 15.1668C4.3168 15.1668 1.33203 12.182 1.33203 8.50016C1.33203 4.81826 4.3168 1.8335 7.9987 1.8335C11.6806 1.8335 14.6654 4.81826 14.6654 8.50016Z" stroke="#1B4C31"/>
<path d="M9.8055 7.20756C9.73943 6.69912 9.15563 5.87764 8.1059 5.87762C6.88616 5.8776 6.37294 6.55313 6.2688 6.8909C6.10633 7.34269 6.13882 8.27156 7.5685 8.37283C9.35563 8.49949 10.0716 8.71043 9.9805 9.80416C9.88936 10.8978 8.89316 11.1342 8.1059 11.1088C7.31856 11.0835 6.03046 10.7218 5.98047 9.74903M7.98096 5.16553V5.88004M7.98096 11.1022V11.8322" stroke="#1B4C31" stroke-linecap="round"/>
</svg>
