<svg width="32" height="22" viewBox="0 0 32 22" fill="none" xmlns="http://www.w3.org/2000/svg">
<path d="M30.1482 10.3924L26.3234 9.32576L28.9596 7.80957L30.293 9.09719L30.1482 10.3924Z" fill="#2D3134"/>
<path d="M15.4882 17.9964L11.6635 16.9298L14.3073 15.4136L15.6406 16.7012L15.4882 17.9964Z" fill="#2D3134"/>
<path opacity="0.29" d="M30.1482 10.3924L26.3234 9.32576L28.9596 7.80957L30.293 9.09719L30.1482 10.3924Z" fill="black"/>
<path opacity="0.29" d="M15.4882 17.9964L11.6635 16.9298L14.3073 15.4136L15.6406 16.7012L15.4882 17.9964Z" fill="black"/>
<path d="M12.6921 16.4801C13.2026 16.2211 13.6674 16.1906 14.0102 16.3506L14.734 16.7392C15.0997 16.9068 15.3359 17.2801 15.3359 17.8287C15.3359 18.8877 14.475 20.183 13.4159 20.7087C12.8902 20.9677 12.4178 20.9982 12.0674 20.8306C12.0674 20.8306 11.3512 20.4496 11.275 20.4039C10.9626 20.2211 10.7721 19.863 10.7721 19.3677C10.7721 18.3011 11.6331 17.0134 12.6921 16.4801Z" fill="#2D3134"/>
<path opacity="0.29" d="M12.043 20.8229C11.9058 20.7544 11.342 20.4496 11.2734 20.4039C10.9611 20.221 10.7706 19.8629 10.7706 19.3677C10.7706 18.941 10.9077 18.4763 11.1439 18.042L11.8677 18.4306C11.6315 18.8648 11.4944 19.3296 11.4944 19.7563C11.4868 20.2744 11.7001 20.6477 12.043 20.8229Z" fill="black"/>
<path d="M11.4881 19.7562C11.4881 20.8152 12.3491 21.2495 13.4081 20.7162C14.4672 20.1828 15.3281 18.8952 15.3281 17.8362C15.3281 16.7771 14.4672 16.3428 13.4081 16.8762C12.3491 17.4019 11.4881 18.6971 11.4881 19.7562Z" fill="#2D3134"/>
<path d="M11.9161 19.5427C11.9161 20.3732 12.5865 20.7085 13.417 20.297C14.2475 19.8856 14.918 18.8723 14.918 18.0418C14.918 17.2113 14.2475 16.8761 13.417 17.2875C12.5865 17.7066 11.9161 18.7123 11.9161 19.5427Z" fill="#E5E5E5"/>
<path d="M12.4261 20.2131C12.1975 20.0836 12.0603 19.8322 12.0603 19.4741C12.0603 19.4436 12.0603 19.4131 12.0603 19.3903L12.8984 19.2607L12.4261 20.2131Z" fill="#2D3134"/>
<path d="M13.0984 18.56L12.2222 18.7505C12.4051 18.3162 12.7327 17.8895 13.1289 17.6152L13.0984 18.56Z" fill="#2D3134"/>
<path d="M13.7293 18.2476L13.6988 17.3333C14.095 17.219 14.4226 17.3105 14.6055 17.5619L13.7293 18.2476Z" fill="#2D3134"/>
<path d="M14.7656 18.0342C14.7656 18.0647 14.7656 18.0875 14.7656 18.118C14.7656 18.4761 14.6285 18.8647 14.3999 19.2227L13.9199 18.7504L14.7656 18.0342Z" fill="#2D3134"/>
<path d="M13.4155 19.3677L13.9336 19.7867C13.7736 19.9315 13.5984 20.0534 13.4155 20.1448C13.2326 20.2362 13.0574 20.2896 12.8974 20.2972L13.4155 19.3677Z" fill="#2D3134"/>
<path opacity="0.11" d="M11.4881 19.7562C11.4881 20.8152 12.3491 21.2495 13.4081 20.7162C14.4672 20.1828 15.3281 18.8952 15.3281 17.8362C15.3281 16.7771 14.4672 16.3428 13.4081 16.8762C12.3491 17.4019 11.4881 18.6971 11.4881 19.7562Z" fill="black"/>
<path d="M27.3367 9.11243C27.8471 8.85338 28.3119 8.82291 28.6548 8.98291L29.3786 9.37148C29.7443 9.5391 29.9805 9.91243 29.9805 10.461C29.9805 11.5201 29.1195 12.8153 28.0605 13.341C27.5348 13.6001 27.0624 13.6305 26.7119 13.4629C26.7119 13.4629 25.9957 13.082 25.9195 13.0362C25.6071 12.8534 25.4167 12.4953 25.4167 12.0001C25.409 10.9334 26.27 9.64577 27.3367 9.11243Z" fill="#2D3134"/>
<path opacity="0.29" d="M26.6797 13.4553C26.5425 13.3867 25.9787 13.0819 25.9102 13.0362C25.5978 12.8534 25.4073 12.4953 25.4073 12C25.4073 11.5734 25.5444 11.1086 25.7806 10.6743L26.5044 11.0629C26.2683 11.4972 26.1311 11.9619 26.1311 12.3886C26.1311 12.9067 26.3444 13.2724 26.6797 13.4553Z" fill="black"/>
<path d="M26.1327 12.3812C26.1327 13.4402 26.9936 13.8745 28.0527 13.3412C29.1117 12.8078 29.9727 11.5202 29.9727 10.4612C29.9727 9.40213 29.1117 8.96785 28.0527 9.50118C26.9936 10.0345 26.1327 11.3221 26.1327 12.3812Z" fill="#2D3134"/>
<path d="M26.5528 12.1756C26.5528 13.006 27.2233 13.3413 28.0537 12.9298C28.8842 12.5184 29.5547 11.5051 29.5547 10.6746C29.5547 9.84413 28.8842 9.50889 28.0537 9.92032C27.2233 10.3317 26.5528 11.3451 26.5528 12.1756Z" fill="#E5E5E5"/>
<path d="M27.0628 12.8381C26.8342 12.7086 26.6971 12.4572 26.6971 12.0991C26.6971 12.0686 26.6971 12.0381 26.6971 12.0153L27.5352 11.8857L27.0628 12.8381Z" fill="#2D3134"/>
<path d="M27.743 11.185L26.8668 11.3755C27.0496 10.9412 27.3772 10.5145 27.7734 10.2402L27.743 11.185Z" fill="#2D3134"/>
<path d="M28.366 10.8726L28.3355 9.95832C28.7317 9.84403 29.0593 9.93546 29.2422 10.1869L28.366 10.8726Z" fill="#2D3134"/>
<path d="M29.4023 10.6592C29.4023 10.6897 29.4023 10.7125 29.4023 10.743C29.4023 11.1011 29.2652 11.4897 29.0366 11.8478L28.5566 11.3754L29.4023 10.6592Z" fill="#2D3134"/>
<path d="M28.0522 12L28.5703 12.419C28.4103 12.5638 28.2351 12.6857 28.0522 12.7771C27.8694 12.8686 27.6941 12.9219 27.5341 12.9295L28.0522 12Z" fill="#2D3134"/>
<path opacity="0.11" d="M26.1327 12.3812C26.1327 13.4402 26.9936 13.8745 28.0527 13.3412C29.1117 12.8078 29.9727 11.5202 29.9727 10.4612C29.9727 9.40213 29.1117 8.96785 28.0527 9.50118C26.9936 10.0345 26.1327 11.3221 26.1327 12.3812Z" fill="black"/>
<path d="M1.82683 12.2668C3.29731 10.9563 9.63635 5.97345 10.6954 5.18869C11.7544 4.40392 15.5868 1.9963 18.1621 1.33345C20.7373 0.670591 21.0573 1.05916 21.583 0.944876C22.1087 0.830591 23.6706 0.464876 25.9716 1.17345C26.9544 1.47821 28.1202 1.81345 29.0725 2.66678C30.3373 3.7944 31.3125 5.54678 31.7849 6.49916L31.884 6.81916C32.0592 7.39059 31.983 8.01535 31.6783 8.52583C31.4192 8.96011 31.0916 9.46297 30.8478 9.73726C30.6344 9.97345 30.3754 10.2249 30.1544 10.4382C30.1544 10.423 30.1544 10.4001 30.1544 10.3849C30.1544 9.57726 29.6821 9.05916 28.9506 9.05916C28.6611 9.05916 28.3487 9.14297 28.0287 9.30297C26.924 9.85154 26.0325 11.2001 26.0325 12.3049C26.0325 12.4496 26.0478 12.5868 26.0783 12.7163L15.4954 18.0039C15.503 17.9201 15.5106 17.8363 15.5106 17.7601C15.5106 16.9525 15.0383 16.4344 14.3068 16.4344C14.0173 16.4344 13.7049 16.5182 13.3849 16.6782C12.2802 17.2268 11.3887 18.5753 11.3887 19.6801C11.3887 19.8096 11.404 19.9239 11.4268 20.0382L10.5811 20.4573C10.5811 20.4573 8.99635 20.8687 7.98302 20.7773C6.96968 20.6858 4.88207 20.0001 3.20588 19.1696C1.52969 18.3392 0.112545 16.8763 0.0820675 16.1144C0.0668297 15.8249 0.356354 13.5773 1.82683 12.2668Z" fill="#38C274"/>
<path d="M7.70937 7.8096C7.70937 7.8096 7.80079 7.1696 7.70937 7.00198C7.61794 6.84198 7.45794 6.59055 7.25222 6.77341C7.04651 6.95626 6.81794 7.48198 7.02365 7.9696C7.22937 8.45722 7.70937 7.8096 7.70937 7.8096Z" fill="#38C274"/>
<path opacity="0.3" d="M30.9453 5.31055C30.9453 5.31055 26.0386 8.70102 20.4006 11.7334C14.7625 14.7658 11.7986 16.4877 11.7986 16.4877L15.2806 13.501L27.7682 6.21721L30.9453 5.31055Z" fill="white"/>
<path d="M27.6484 6.29355L15.2903 13.5088C15.2903 13.5088 16.4865 8.25164 20.7075 6.13355C24.9284 4.01545 27.6484 6.29355 27.6484 6.29355Z" fill="#2D3134"/>
<path d="M22.4966 2.39273C20.8508 1.61559 19.5099 1.3794 19.5099 1.2194C19.5099 1.0594 23.7385 0.853682 26.3518 2.16416C28.9651 3.47463 28.8356 4.60225 27.8451 4.48035C26.8547 4.35844 25.5289 4.25178 25.1099 4.04606C24.6908 3.84035 23.8985 3.05559 22.4966 2.39273Z" fill="#2D3134"/>
<path d="M27.8898 4.30486C27.9888 4.30486 28.225 4.282 28.2631 4.10677C28.3241 3.84772 27.9736 3.12391 26.1984 2.2401C24.2555 1.27248 21.5203 1.19629 20.7279 1.19629C20.3241 1.19629 20.0193 1.21153 19.8136 1.23438C19.9203 1.27248 20.0346 1.31057 20.1565 1.34867C20.705 1.52391 21.5355 1.79058 22.4574 2.23248C23.3946 2.67438 24.0803 3.18486 24.5298 3.51248C24.766 3.6801 24.9488 3.81724 25.0784 3.88581C25.3984 4.04581 26.3888 4.15248 27.2574 4.25153C27.4326 4.27438 27.6079 4.28962 27.7679 4.30486C27.8136 4.30486 27.8517 4.30486 27.8898 4.30486Z" fill="#656565"/>
<path d="M16.8057 8.34302C16.9581 8.76207 14.5124 12.8916 13.7504 13.0973C12.9962 13.303 10.7181 13.2344 8.47045 11.9925C6.22283 10.7506 5.80378 9.79064 5.91807 9.44016C6.03235 9.0973 10.3524 5.46302 11.0609 5.39445C11.7695 5.32588 16.6228 7.83254 16.8057 8.34302Z" fill="#2D3134"/>
<path opacity="0.2" d="M10.8086 17.2953C10.8086 17.2953 10.4886 16.8686 9.62764 16.7696C8.76669 16.6782 7.71526 16.762 6.9305 17.4629C6.34383 17.9886 6.1305 18.2096 6.1305 18.2096C6.1305 18.2096 7.79145 18.7505 8.61431 18.6363C9.42955 18.522 10.8086 17.2953 10.8086 17.2953Z" fill="white"/>
<path d="M10.6484 17.1504C10.6484 17.1504 10.3513 16.7542 9.55891 16.6704C8.76653 16.5866 7.79129 16.6628 7.06749 17.3104C6.52653 17.7904 6.32844 17.9961 6.32844 17.9961C6.32844 17.9961 7.85987 18.499 8.62177 18.3923C9.38368 18.2856 10.6484 17.1504 10.6484 17.1504Z" fill="#E5E5E5"/>
<path opacity="0.2" d="M1.56794 15.8021C1.56794 15.8021 0.409845 14.7202 0.470798 14.4154C0.53175 14.1031 1.42318 12.564 1.53746 12.7926C1.65175 13.0212 1.89556 13.3869 1.80413 13.6993C1.7127 14.0116 1.54508 15.5278 1.56794 15.8021Z" fill="white"/>
<path d="M1.5773 15.5887C1.5773 15.5887 0.487777 14.5068 0.54111 14.2021C0.602063 13.8897 1.49349 12.3506 1.60778 12.5792C1.72206 12.8078 1.96587 13.1735 1.87444 13.4859C1.78301 13.7906 1.55444 15.3068 1.5773 15.5887Z" fill="#E5E5E5"/>
<path d="M8.47753 20.1525L8.51562 20.4877C8.51562 20.4877 5.10991 20.0534 2.96896 18.7353C0.835626 17.4172 0.317532 16.3887 0.317532 16.3887C0.317532 16.3887 1.96325 18.1715 3.97467 18.9944C6.08515 19.8477 8.47753 20.1525 8.47753 20.1525Z" fill="#2D3134"/>
<path d="M6.40766 9.15801C6.79624 8.78468 7.53528 8.12944 8.47243 7.37515C9.99624 6.14087 10.8877 5.56944 11.101 5.5542H11.1086C11.421 5.5542 12.6629 6.0723 14.0496 6.78849C15.6419 7.60372 16.4953 8.18277 16.6172 8.35801C16.6019 8.57134 16.1829 9.47801 15.4058 10.7275C14.5448 12.1066 13.92 12.7923 13.7143 12.8532C13.6 12.8837 13.4553 12.9066 13.2877 12.9218C12.2819 12.7694 10.5448 12.3809 8.85338 11.3828C7.421 10.5371 6.73528 9.72182 6.40766 9.15801Z" fill="#656565"/>
<path d="M26.6056 6.00383L26.7656 6.48383L22.0113 9.25717L21.2494 6.19431L21.2723 6.16383C22.278 5.72193 23.2685 5.50098 24.2361 5.50098C25.2494 5.5086 26.0571 5.76002 26.6056 6.00383Z" fill="#656565"/>
<path d="M16.5839 12.4266L16.3934 11.2608C16.4772 11.0856 16.561 10.9104 16.66 10.7275C17.3762 9.37131 18.641 7.55036 20.6448 6.47607L21.1172 9.77512L16.5839 12.4266Z" fill="#656565"/>
<path opacity="0.2" d="M25.8135 8.35069C25.8135 8.57165 25.9963 8.66307 26.2173 8.55641C26.4382 8.44212 26.6211 8.17546 26.6211 7.94688C26.6211 7.71831 26.4382 7.6345 26.2173 7.74117C25.9963 7.85546 25.8135 8.12212 25.8135 8.35069Z" fill="black"/>
<path d="M26.8638 7.66504L27.0391 7.86313C27.0391 7.86313 25.7667 8.69361 25.6524 8.52599C25.5305 8.36599 26.8638 7.66504 26.8638 7.66504Z" fill="#38C274"/>
<path opacity="0.2" d="M20.3877 11.4363C20.3877 11.6572 20.5706 11.7486 20.7915 11.642C21.0125 11.5277 21.1953 11.261 21.1953 11.0325C21.1953 10.8115 21.0125 10.7201 20.7915 10.8267C20.5706 10.941 20.3877 11.2077 20.3877 11.4363Z" fill="#38C274"/>
<path d="M21.438 10.7432L21.6133 10.9413C21.6133 10.9413 20.3409 11.7717 20.2266 11.6041C20.1047 11.4441 21.438 10.7432 21.438 10.7432Z" fill="#38C274"/>
<path opacity="0.2" d="M15.3209 13.5013C15.3209 13.5089 15.4581 14.0346 15.5724 14.6746C15.679 15.2536 15.74 17.1736 15.7552 17.5165L21.82 14.446C21.8276 14.3241 21.9114 13.1889 21.9114 12.1527C21.9114 11.0632 21.6371 9.85174 21.6371 9.84413L21.7057 9.82889C21.7057 9.84413 21.98 11.0632 21.98 12.1527C21.98 13.1127 21.9114 14.1641 21.8885 14.4079L24.9057 12.8841C24.9743 12.7927 25.7057 11.7946 26.4219 10.2784C27.1609 8.71651 26.9857 6.73555 26.9781 6.7127L27.0466 6.70508C27.0466 6.72794 27.2295 8.72413 26.4828 10.3089C25.7285 11.8936 24.959 12.9222 24.9514 12.9298L24.9438 12.9375L15.6943 17.6308V17.5775C15.6943 17.5546 15.6257 15.3222 15.5114 14.6898C15.3971 14.0575 15.26 13.5241 15.26 13.5241L15.3209 13.5013Z" fill="black"/>
<path opacity="0.3" d="M8.06812 17.2346C8.06812 17.5089 8.28907 17.8365 8.56336 17.9737C8.83764 18.1108 9.05859 17.9965 9.05859 17.7299C9.05859 17.4556 8.83764 17.128 8.56336 16.9908C8.28907 16.8537 8.06812 16.9604 8.06812 17.2346Z" fill="black"/>
<path opacity="0.3" d="M7.30647 17.4325C7.30647 17.623 7.45885 17.8516 7.64933 17.9506C7.83981 18.0421 7.99219 17.9659 7.99219 17.7754C7.99219 17.5849 7.83981 17.3564 7.64933 17.2573C7.45885 17.1659 7.30647 17.2421 7.30647 17.4325Z" fill="black"/>
<path d="M9.16553 17.6837C9.16553 17.7828 9.24935 17.9123 9.34839 17.958C9.44744 18.0113 9.53125 17.9656 9.53125 17.8666C9.53125 17.7675 9.44744 17.638 9.34839 17.5923C9.24935 17.539 9.16553 17.5771 9.16553 17.6837Z" fill="white"/>
<path opacity="0.4" d="M8.2741 17.4403C8.2741 17.5775 8.38838 17.7451 8.51791 17.8136C8.65505 17.8822 8.76172 17.8289 8.76172 17.6917C8.76172 17.5546 8.64743 17.387 8.51791 17.3184C8.38838 17.2498 8.2741 17.3032 8.2741 17.4403Z" fill="white"/>
<path opacity="0.4" d="M7.43507 17.5695C7.43507 17.6686 7.51888 17.7981 7.61792 17.8438C7.71697 17.8971 7.80078 17.8514 7.80078 17.7524C7.80078 17.6533 7.71697 17.5238 7.61792 17.4781C7.51888 17.4248 7.43507 17.4705 7.43507 17.5695Z" fill="white"/>
<path d="M9.43897 17.0666C9.43897 17.1656 9.52278 17.2952 9.62183 17.3409C9.72088 17.3942 9.80469 17.3485 9.80469 17.2494C9.80469 17.1504 9.72088 17.0209 9.62183 16.9752C9.52278 16.9218 9.43897 16.9675 9.43897 17.0666Z" fill="white"/>
<path d="M1.29444 13.0592C1.29444 13.1583 1.37825 13.2878 1.4773 13.3335C1.57635 13.3868 1.66016 13.3411 1.66016 13.2421C1.66016 13.143 1.57635 13.0135 1.4773 12.9678C1.37825 12.9144 1.29444 12.9525 1.29444 13.0592Z" fill="white"/>
<path d="M0.950693 13.5392C0.950693 13.6383 1.0345 13.7678 1.13355 13.8135C1.2326 13.8669 1.31641 13.8212 1.31641 13.7221C1.31641 13.6231 1.2326 13.4935 1.13355 13.4478C1.0345 13.3945 0.950693 13.4402 0.950693 13.5392Z" fill="white"/>
<path opacity="0.3" d="M0.845887 13.8591C0.845887 14.0953 1.03636 14.3772 1.27255 14.4915C1.50874 14.6058 1.69922 14.5144 1.69922 14.2782C1.69922 14.042 1.50874 13.7601 1.27255 13.6458C1.03636 13.5315 0.845887 13.6306 0.845887 13.8591Z" fill="black"/>
<path opacity="0.4" d="M1.09677 14.1106C1.09677 14.2325 1.19582 14.3773 1.31011 14.4382C1.43201 14.4992 1.52344 14.4458 1.52344 14.3316C1.52344 14.2173 1.42439 14.0649 1.31011 14.0039C1.19582 13.943 1.09677 13.9887 1.09677 14.1106Z" fill="white"/>
<path opacity="0.3" d="M1.18855 14.499C1.18855 14.3085 1.34093 14.2323 1.53141 14.3237C1.59236 14.3542 1.64569 14.3923 1.69141 14.4456C1.66093 14.6513 1.63045 14.8647 1.6076 15.0475C1.58474 15.0399 1.55426 15.0323 1.52379 15.0171C1.34093 14.9256 1.18855 14.6894 1.18855 14.499Z" fill="black"/>
<path opacity="0.3" d="M10.6484 17.1428C10.2751 17.1123 9.22368 17.059 8.56082 17.219C7.89796 17.379 6.74749 17.8209 6.33606 17.9885C6.38177 17.9428 6.5951 17.7295 7.06749 17.3104C7.79129 16.6628 8.76653 16.5866 9.55891 16.6704C10.2827 16.7466 10.5951 17.0818 10.6484 17.1428Z" fill="black"/>
<path d="M17.0115 11.6494C17.0115 11.6494 16.4401 11.9237 16.1811 12.2666C15.9296 12.6094 15.9296 12.7923 15.9296 12.7923C15.9296 12.7923 17.5144 13.1351 18.2992 12.6323C19.1296 12.0913 17.0115 11.6494 17.0115 11.6494Z" fill="#38C274"/>
<path d="M12.8438 12.9754L12.5542 12.9526L9.88756 11.6573L9.7428 11.3906L8.11994 10.6364L8.18851 10.5068L11.2895 11.8859L11.198 12.0002L9.99423 11.4668L10.0628 11.543L12.6685 12.7926L12.8438 12.9754Z" fill="#2D3134"/>
<path d="M10.0234 12.259H9.77201L7.64629 10.6819L7.38725 10.0723L6.57201 9.03615L6.62534 8.95996L8.15677 10.7047L8.09582 10.7962L7.68439 10.4304L7.79867 10.6362L9.95487 12.1295L10.0234 12.259Z" fill="#2D3134"/>
<path d="M6.80859 17.2876L5.92478 18.08C5.92478 18.08 4.64478 17.8362 3.50193 17.2495C2.35907 16.6629 1.67336 15.8705 1.67336 15.8705L1.76479 14.7124C1.76479 14.7124 2.28288 15.6495 3.77621 16.3886C5.10193 17.0514 6.80859 17.2876 6.80859 17.2876Z" fill="#2D3134"/>
<path opacity="0.29" d="M3.25779 18.9637C1.58921 18.1256 0.164453 16.7085 0.133977 15.9466C0.126358 15.817 0.118739 15.6037 0.301597 15.0018C0.316834 14.9485 0.385406 14.9408 0.415882 14.9866C1.00255 15.8247 2.00065 16.9142 3.55493 17.6608C5.17017 18.438 7.15112 19.1008 8.67493 19.0247C9.03302 19.0094 9.09398 19.3675 9.12445 19.9313C9.13969 20.297 8.83493 20.6018 8.46922 20.5637C7.15874 20.4342 5.05588 19.8627 3.25779 18.9637Z" fill="black"/>
<path opacity="0.11" d="M10.4207 17.9659C10.9541 17.364 14.0017 14.164 14.7941 12.9145C15.8303 11.2917 17.5217 7.32213 20.6379 5.83642C23.7617 4.35071 27.2969 4.98309 28.3636 5.05928C29.0112 5.09737 30.0169 4.86118 30.7179 4.66309C31.175 5.35642 31.5331 6.0269 31.7693 6.50689L31.8683 6.8269C32.0436 7.39832 31.9674 8.02309 31.6626 8.53356C31.4036 8.96785 31.076 9.4707 30.8322 9.74499C30.6188 9.98118 30.3598 10.2326 30.1388 10.4459C30.1388 10.4307 30.1388 10.4078 30.1388 10.3926C30.1388 9.58499 29.6664 9.0669 28.935 9.0669C28.6455 9.0669 28.3331 9.1507 28.0131 9.3107C26.9083 9.85928 26.0169 11.2078 26.0169 12.3126C26.0169 12.4574 26.0322 12.5945 26.0626 12.724L15.4798 18.0117C15.4874 17.9278 15.495 17.844 15.495 17.7678C15.495 16.9602 15.0226 16.4421 14.2912 16.4421C14.0017 16.4421 13.6893 16.5259 13.3693 16.6859C12.2645 17.2345 11.3731 18.5831 11.3731 19.6878C11.3731 19.8174 11.3883 19.9317 11.4112 20.0459L10.5655 20.465C10.5655 20.465 10.1236 20.5793 9.55977 20.6783C9.69691 19.5583 9.97882 18.4688 10.4207 17.9659Z" fill="black"/>
<path d="M31.6631 6.74311C31.6631 6.74311 31.1831 5.51644 30.9164 5.13549C30.6497 4.75453 30.3526 4.41168 30.3526 4.41168L30.4364 4.18311C30.4364 4.18311 31.0002 4.3812 31.0992 4.54882C31.2059 4.72406 31.7773 6.4993 31.7773 6.4993L31.6631 6.74311Z" fill="#38C274"/>
<path opacity="0.2" d="M6.54871 9.37896C6.49538 9.30277 6.44967 9.22658 6.41157 9.15801C6.80014 8.78468 7.53919 8.12944 8.47633 7.37515C10.0001 6.14087 10.8916 5.56944 11.1049 5.5542H11.1125C11.4249 5.5542 12.6668 6.0723 14.0535 6.78849C15.6459 7.60372 16.4992 8.18277 16.6211 8.35801C16.6135 8.42658 16.5678 8.57896 16.4763 8.78468C13.223 7.73325 9.6649 7.93896 6.54871 9.37896Z" fill="black"/>
<path d="M4.3125 18.5295V19.6419L2.30869 18.6438V17.5391L4.3125 18.5295Z" fill="#E5E5E5"/>
<path opacity="0.2" d="M1.5773 15.5887C1.5773 15.5887 0.487777 14.5068 0.54111 14.2021C0.602063 13.8897 1.49349 12.3506 1.60778 12.5792C1.72206 12.8078 1.96587 13.1735 1.87444 13.4859C1.78301 13.7906 1.55444 15.3068 1.5773 15.5887Z" fill="black"/>
<path d="M16.7004 8.67815C16.9442 8.07625 18.6357 6.15625 20.5099 5.23434C22.8719 4.07625 24.929 4.07625 25.348 4.1372L25.3633 4.03815C24.9366 3.9772 22.849 3.9772 20.4642 5.14292C19.6338 5.54673 18.7347 6.20958 17.9195 7.00196C17.2719 7.62673 16.7461 8.28958 16.6014 8.64006L16.7004 8.67815Z" fill="#2D3134"/>
<path d="M10.6573 5.71449L10.6649 5.70688C11.4268 5.15068 13.4611 3.67259 15.3354 2.7583C17.6897 1.60783 19.5259 1.24973 19.9297 1.24973V1.14307C19.5183 1.14307 17.6592 1.50116 15.2897 2.66688C13.4078 3.58878 11.3735 5.06688 10.604 5.62307L10.5964 5.63068L10.6573 5.71449Z" fill="#2D3134"/>
</svg>
