<svg width="16" height="17" viewBox="0 0 16 17" fill="none" xmlns="http://www.w3.org/2000/svg">
<path d="M8.0013 15.1668C11.6832 15.1668 14.668 12.182 14.668 8.50016C14.668 4.81826 11.6832 1.8335 8.0013 1.8335C5.01618 1.8335 2.51748 3.79542 1.66797 6.50016H3.33464" stroke="#94A3B8" stroke-linecap="round" stroke-linejoin="round"/>
<path d="M8 5.8335V8.50016L9.33333 9.8335" stroke="#94A3B8" stroke-linecap="round" stroke-linejoin="round"/>
<path d="M1.33203 8.5C1.33203 8.72487 1.34216 8.94727 1.36199 9.16667M5.9987 15.1667C5.77096 15.0917 5.5485 15.0043 5.33203 14.9052M2.13829 11.8333C2.00973 11.5856 1.89505 11.3289 1.79534 11.0641M3.21951 13.371C3.4233 13.5905 3.64074 13.7961 3.8704 13.9861" stroke="#94A3B8" stroke-linecap="round" stroke-linejoin="round"/>
</svg>
