<svg width="24" height="24" viewBox="0 0 24 24" fill="none" xmlns="http://www.w3.org/2000/svg">
<path d="M9.00781 17C9.00781 18.1046 8.11238 19 7.00781 19C5.90324 19 5.00781 18.1046 5.00781 17C5.00781 15.8954 5.90324 15 7.00781 15C8.11238 15 9.00781 15.8954 9.00781 17Z" stroke="black" stroke-width="1.5"/>
<path d="M19.0078 17C19.0078 18.1046 18.1124 19 17.0078 19C15.9032 19 15.0078 18.1046 15.0078 17C15.0078 15.8954 15.9032 15 17.0078 15C18.1124 15 19.0078 15.8954 19.0078 17Z" stroke="black" stroke-width="1.5"/>
<path d="M2.00781 10H18.0079M2.00781 10C2.00781 10.78 1.98782 13.04 2.0118 15.26C2.04777 15.98 2.16768 16.58 5.00952 17M2.00781 10C2.22364 8.26 3.16292 6.2 3.64256 5.42M9.00781 10V5M14.998 17H9.00247M2.02379 5H12.2401C12.2401 5 12.7796 5 13.2593 5.048C14.1586 5.132 14.914 5.54 15.6694 6.56C16.4693 7.64 17.0844 9.008 17.8997 9.74C19.2547 10.9564 21.8327 10.58 21.9765 13.16C22.0125 14.48 22.0126 15.92 21.9527 16.16C21.8564 16.8667 21.3114 16.9821 20.6336 17C20.0453 17.0156 19.3363 16.9721 18.9909 17" stroke="#1E293B" stroke-width="1.5" stroke-linecap="round"/>
</svg>
