<svg width="52" height="34" viewBox="0 0 52 34" fill="none" xmlns="http://www.w3.org/2000/svg">
<path d="M7.50661 15.5265L12.945 14.0098L9.19662 11.854L7.30078 13.6848L7.50661 15.5265Z" fill="#2D3134"/>
<path d="M28.3495 26.338L33.7878 24.8214L30.0286 22.6655L28.1328 24.4964L28.3495 26.338Z" fill="#2D3134"/>
<path opacity="0.29" d="M7.50661 15.5265L12.945 14.0098L9.19662 11.854L7.30078 13.6848L7.50661 15.5265Z" fill="black"/>
<path opacity="0.29" d="M28.3495 26.338L33.7878 24.8214L30.0286 22.6655L28.1328 24.4964L28.3495 26.338Z" fill="black"/>
<path d="M32.3256 24.1821C31.5997 23.8138 30.9389 23.7704 30.4514 23.9979L29.4222 24.5504C28.9022 24.7888 28.5664 25.3196 28.5664 26.0996C28.5664 27.6054 29.7906 29.4471 31.2964 30.1946C32.0439 30.5629 32.7156 30.6063 33.2139 30.3679C33.2139 30.3679 34.2322 29.8263 34.3406 29.7613C34.7847 29.5013 35.0556 28.9921 35.0556 28.2879C35.0556 26.7713 33.8314 24.9404 32.3256 24.1821Z" fill="#2D3134"/>
<path opacity="0.29" d="M33.2461 30.357C33.4411 30.2595 34.2428 29.8262 34.3403 29.7612C34.7844 29.5012 35.0553 28.992 35.0553 28.2878C35.0553 27.6812 34.8603 27.0203 34.5244 26.4028L33.4953 26.9553C33.8311 27.5728 34.0261 28.2337 34.0261 28.8403C34.0369 29.577 33.7336 30.1078 33.2461 30.357Z" fill="black"/>
<path d="M34.0381 28.8404C34.0381 30.3463 32.814 30.9638 31.3081 30.2054C29.8023 29.4471 28.5781 27.6163 28.5781 26.1104C28.5781 24.6046 29.8023 23.9871 31.3081 24.7454C32.814 25.4929 34.0381 27.3346 34.0381 28.8404Z" fill="#2D3134"/>
<path d="M33.4324 28.537C33.4324 29.7179 32.4791 30.1945 31.2982 29.6095C30.1174 29.0245 29.1641 27.5837 29.1641 26.4029C29.1641 25.222 30.1174 24.7454 31.2982 25.3304C32.4791 25.9262 33.4324 27.3562 33.4324 28.537Z" fill="#E5E5E5"/>
<path d="M32.7029 29.4904C33.0279 29.3062 33.2229 28.9487 33.2229 28.4396C33.2229 28.3962 33.2229 28.3529 33.2229 28.3204L32.0312 28.1362L32.7029 29.4904Z" fill="#2D3134"/>
<path d="M31.7504 27.1397L32.9962 27.4106C32.7362 26.7931 32.2704 26.1864 31.707 25.7964L31.7504 27.1397Z" fill="#2D3134"/>
<path d="M30.8513 26.6953L30.8946 25.3953C30.3313 25.2328 29.8655 25.3628 29.6055 25.7203L30.8513 26.6953Z" fill="#2D3134"/>
<path d="M29.3789 26.3921C29.3789 26.4354 29.3789 26.4679 29.3789 26.5113C29.3789 27.0204 29.5739 27.5729 29.8989 28.0821L30.5814 27.4104L29.3789 26.3921Z" fill="#2D3134"/>
<path d="M31.2953 28.2881L30.5586 28.8839C30.7861 29.0898 31.0353 29.2631 31.2953 29.3931C31.5553 29.5231 31.8044 29.5989 32.0319 29.6098L31.2953 28.2881Z" fill="#2D3134"/>
<path opacity="0.11" d="M34.0381 28.8404C34.0381 30.3463 32.814 30.9638 31.3081 30.2054C29.8023 29.4471 28.5781 27.6163 28.5781 26.1104C28.5781 24.6046 29.8023 23.9871 31.3081 24.7454C32.814 25.4929 34.0381 27.3346 34.0381 28.8404Z" fill="black"/>
<path d="M11.5053 13.7065C10.7794 13.3382 10.1186 13.2949 9.63109 13.5224L8.60193 14.0749C8.08193 14.3132 7.74609 14.844 7.74609 15.624C7.74609 17.1299 8.97026 18.9715 10.4761 19.719C11.2236 20.0874 11.8953 20.1307 12.3936 19.8924C12.3936 19.8924 13.4119 19.3507 13.5203 19.2857C13.9644 19.0257 14.2353 18.5165 14.2353 17.8124C14.2461 16.2957 13.0219 14.4649 11.5053 13.7065Z" fill="#2D3134"/>
<path opacity="0.29" d="M12.4375 19.8814C12.6325 19.7839 13.4342 19.3506 13.5317 19.2856C13.9758 19.0256 14.2467 18.5164 14.2467 17.8122C14.2467 17.2056 14.0517 16.5447 13.7158 15.9272L12.6867 16.4797C13.0225 17.0972 13.2175 17.7581 13.2175 18.3647C13.2175 19.1014 12.9142 19.6214 12.4375 19.8814Z" fill="black"/>
<path d="M13.2178 18.3541C13.2178 19.8599 11.9936 20.4774 10.4878 19.7191C8.98198 18.9608 7.75781 17.1299 7.75781 15.6241C7.75781 14.1183 8.98198 13.5008 10.4878 14.2591C11.9936 15.0174 13.2178 16.8483 13.2178 18.3541Z" fill="#2D3134"/>
<path d="M12.6238 18.0615C12.6238 19.2423 11.6705 19.719 10.4896 19.134C9.3088 18.549 8.35547 17.1081 8.35547 15.9273C8.35547 14.7465 9.3088 14.2698 10.4896 14.8548C11.6705 15.4398 12.6238 16.8806 12.6238 18.0615Z" fill="#E5E5E5"/>
<path d="M11.8943 19.0041C12.2193 18.8199 12.4143 18.4624 12.4143 17.9532C12.4143 17.9099 12.4143 17.8666 12.4143 17.8341L11.2227 17.6499L11.8943 19.0041Z" fill="#2D3134"/>
<path d="M10.9301 16.6534L12.1759 16.9242C11.9159 16.3067 11.4501 15.7001 10.8867 15.3101L10.9301 16.6534Z" fill="#2D3134"/>
<path d="M10.0427 16.209L10.086 14.909C9.52271 14.7465 9.05687 14.8765 8.79688 15.234L10.0427 16.209Z" fill="#2D3134"/>
<path d="M8.57031 15.9058C8.57031 15.9491 8.57031 15.9816 8.57031 16.0249C8.57031 16.5341 8.76531 17.0866 9.09031 17.5958L9.77281 16.9241L8.57031 15.9058Z" fill="#2D3134"/>
<path d="M10.4867 17.8125L9.75 18.4083C9.9775 18.6142 10.2267 18.7875 10.4867 18.9175C10.7467 19.0475 10.9958 19.1233 11.2233 19.1342L10.4867 17.8125Z" fill="#2D3134"/>
<path opacity="0.11" d="M13.2178 18.3541C13.2178 19.8599 11.9936 20.4774 10.4878 19.7191C8.98198 18.9608 7.75781 17.1299 7.75781 15.6241C7.75781 14.1183 8.98198 13.5008 10.4878 14.2591C11.9936 15.0174 13.2178 16.8483 13.2178 18.3541Z" fill="black"/>
<path d="M47.7754 18.1915C45.6846 16.3281 36.6712 9.24313 35.1654 8.1273C33.6596 7.01147 28.2104 3.58814 24.5487 2.64564C20.8871 1.70314 20.4321 2.25564 19.6846 2.09314C18.9371 1.93064 16.7162 1.41064 13.4446 2.41814C12.0471 2.85147 10.3896 3.32814 9.0354 4.54147C7.23707 6.1448 5.8504 8.63647 5.17874 9.99063L5.03791 10.4456C4.78874 11.2581 4.89707 12.1465 5.33041 12.8723C5.69874 13.4898 6.16457 14.2048 6.51124 14.5948C6.81457 14.9306 7.1829 15.2881 7.49707 15.5915C7.49707 15.5698 7.49707 15.5373 7.49707 15.5156C7.49707 14.3673 8.16874 13.6306 9.20874 13.6306C9.6204 13.6306 10.0646 13.7498 10.5196 13.9773C12.0904 14.7573 13.3579 16.6748 13.3579 18.2456C13.3579 18.4515 13.3362 18.6465 13.2929 18.8306L28.3404 26.349C28.3296 26.2298 28.3187 26.1106 28.3187 26.0023C28.3187 24.854 28.9904 24.1173 30.0304 24.1173C30.4421 24.1173 30.8862 24.2365 31.3412 24.464C32.9121 25.244 34.1796 27.1615 34.1796 28.7323C34.1796 28.9165 34.1579 29.079 34.1254 29.2415L35.3279 29.8373C35.3279 29.8373 37.5812 30.4223 39.0221 30.2923C40.4629 30.1623 43.4312 29.1873 45.8146 28.0065C48.1979 26.8256 50.2129 24.7456 50.2562 23.6623C50.2779 23.2506 49.8662 20.0548 47.7754 18.1915Z" fill="#38C274"/>
<path d="M39.4132 11.8538C39.4132 11.8538 39.2832 10.9438 39.4132 10.7055C39.5432 10.478 39.7707 10.1205 40.0632 10.3805C40.3557 10.6405 40.6807 11.388 40.3882 12.0813C40.0957 12.7746 39.4132 11.8538 39.4132 11.8538Z" fill="#2D3134"/>
<path opacity="0.3" d="M6.37109 8.30078C6.37109 8.30078 13.3478 13.1216 21.3644 17.4333C29.3811 21.7449 33.5952 24.1933 33.5952 24.1933L28.6444 19.9466L10.8886 9.58995L6.37109 8.30078Z" fill="white"/>
<path d="M11.0625 9.69796L28.6342 19.9571C28.6342 19.9571 26.9333 12.4821 20.9317 9.47046C14.93 6.45879 11.0625 9.69796 11.0625 9.69796Z" fill="#2D3134"/>
<path d="M18.3838 4.15131C20.7238 3.04631 22.6305 2.71047 22.6305 2.48297C22.6305 2.25547 16.618 1.96297 12.9021 3.82631C9.1863 5.68964 9.37047 7.29297 10.7788 7.11964C12.1871 6.94631 14.0721 6.79464 14.668 6.50214C15.2638 6.20964 16.3905 5.09381 18.3838 4.15131Z" fill="#2D3134"/>
<path d="M10.7157 6.87068C10.5749 6.87068 10.2391 6.83818 10.1849 6.58902C10.0982 6.22068 10.5966 5.19152 13.1207 3.93485C15.8832 2.55902 19.7724 2.45068 20.8991 2.45068C21.4732 2.45068 21.9066 2.47235 22.1991 2.50485C22.0474 2.55902 21.8849 2.61318 21.7116 2.66735C20.9316 2.91652 19.7507 3.29568 18.4399 3.92402C17.1074 4.55235 16.1324 5.27818 15.4932 5.74402C15.1574 5.98235 14.8974 6.17735 14.7132 6.27485C14.2582 6.50235 12.8499 6.65402 11.6149 6.79485C11.3657 6.82735 11.1166 6.84902 10.8891 6.87068C10.8241 6.87068 10.7699 6.87068 10.7157 6.87068Z" fill="#656565"/>
<path d="M26.4784 12.6124C26.2618 13.2083 29.7393 19.0799 30.8226 19.3724C31.8951 19.6649 35.1343 19.5674 38.3301 17.8016C41.5259 16.0358 42.1218 14.6708 41.9593 14.1724C41.7968 13.6849 35.6543 8.51743 34.6468 8.41993C33.6393 8.32243 26.7384 11.8866 26.4784 12.6124Z" fill="#2D3134"/>
<path opacity="0.2" d="M35.0039 25.3414C35.0039 25.3414 35.4589 24.7347 36.6831 24.5939C37.9072 24.4639 39.4022 24.5831 40.5181 25.5797C41.3522 26.3272 41.6556 26.6414 41.6556 26.6414C41.6556 26.6414 39.2939 27.4106 38.1239 27.2481C36.9647 27.0856 35.0039 25.3414 35.0039 25.3414Z" fill="white"/>
<path d="M35.2305 25.1356C35.2305 25.1356 35.653 24.5723 36.7796 24.4531C37.9063 24.334 39.293 24.4423 40.3221 25.3631C41.0913 26.0456 41.373 26.3381 41.373 26.3381C41.373 26.3381 39.1955 27.0531 38.1121 26.9015C37.0288 26.7498 35.2305 25.1356 35.2305 25.1356Z" fill="#E5E5E5"/>
<path opacity="0.2" d="M48.1456 23.2182C48.1456 23.2182 49.7923 21.6799 49.7056 21.2465C49.619 20.8024 48.3515 18.614 48.189 18.939C48.0265 19.264 47.6798 19.784 47.8098 20.2282C47.9398 20.6724 48.1781 22.8282 48.1456 23.2182Z" fill="white"/>
<path d="M48.1347 22.915C48.1347 22.915 49.6838 21.3766 49.608 20.9433C49.5213 20.4991 48.2538 18.3108 48.0913 18.6358C47.9288 18.9608 47.5822 19.4808 47.7122 19.925C47.8422 20.3583 48.1672 22.5141 48.1347 22.915Z" fill="#E5E5E5"/>
<path d="M38.3198 29.4039L38.2656 29.8806C38.2656 29.8806 43.1081 29.2631 46.1523 27.3889C49.1856 25.5147 49.9223 24.0522 49.9223 24.0522C49.9223 24.0522 47.5823 26.5872 44.7223 27.7572C41.7215 28.9706 38.3198 29.4039 38.3198 29.4039Z" fill="#2D3134"/>
<path d="M41.2628 13.7716C40.7103 13.2408 39.6594 12.3091 38.3269 11.2366C36.1603 9.48163 34.8928 8.66913 34.5894 8.64746H34.5786C34.1344 8.64746 32.3686 9.38413 30.3969 10.4025C28.1328 11.5616 26.9194 12.385 26.7461 12.6341C26.7678 12.9375 27.3636 14.2266 28.4686 16.0033C29.6928 17.9641 30.5811 18.9391 30.8736 19.0258C31.0361 19.0691 31.2419 19.1016 31.4803 19.1233C32.9103 18.9066 35.3803 18.3541 37.7853 16.935C39.8219 15.7325 40.7969 14.5733 41.2628 13.7716Z" fill="#656565"/>
<path d="M12.5439 9.28629L12.3164 9.96879L19.0764 13.9121L20.1597 9.55712L20.1272 9.51379C18.6972 8.88546 17.2889 8.57129 15.9131 8.57129C14.4722 8.58212 13.3239 8.93962 12.5439 9.28629Z" fill="#656565"/>
<path d="M26.7896 18.4188L27.0604 16.7613C26.9413 16.5122 26.8221 16.263 26.6813 16.003C25.6629 14.0747 23.8646 11.4855 21.0154 9.95801L20.3438 14.6488L26.7896 18.4188Z" fill="#656565"/>
<path opacity="0.2" d="M13.6718 12.6233C13.6718 12.9374 13.4118 13.0674 13.0976 12.9158C12.7834 12.7533 12.5234 12.3741 12.5234 12.0491C12.5234 11.7241 12.7834 11.6049 13.0976 11.7566C13.4118 11.9191 13.6718 12.2983 13.6718 12.6233Z" fill="black"/>
<path d="M12.1789 11.6479L11.9297 11.9296C11.9297 11.9296 13.7389 13.1104 13.9014 12.8721C14.0747 12.6446 12.1789 11.6479 12.1789 11.6479Z" fill="#1F5C3A"/>
<path opacity="0.2" d="M21.3866 17.0105C21.3866 17.3247 21.1266 17.4547 20.8124 17.303C20.4983 17.1405 20.2383 16.7614 20.2383 16.4364C20.2383 16.1222 20.4983 15.9922 20.8124 16.1439C21.1266 16.3064 21.3866 16.6855 21.3866 17.0105Z" fill="black"/>
<path d="M19.8898 16.0249L19.6406 16.3066C19.6406 16.3066 21.4498 17.4874 21.6123 17.2491C21.7856 17.0216 19.8898 16.0249 19.8898 16.0249Z" fill="#1F5C3A"/>
<path opacity="0.2" d="M28.5912 19.9465C28.5912 19.9574 28.3962 20.7049 28.2337 21.6149C28.0821 22.4382 27.9954 25.1682 27.9737 25.6557L19.3504 21.2899C19.3396 21.1165 19.2204 19.5024 19.2204 18.029C19.2204 16.4799 19.6104 14.7574 19.6104 14.7465L19.5129 14.7249C19.5129 14.7465 19.1229 16.4799 19.1229 18.029C19.1229 19.394 19.2204 20.889 19.2529 21.2357L14.9629 19.069C14.8654 18.939 13.8254 17.5199 12.8071 15.364C11.7562 13.1432 12.0054 10.3265 12.0162 10.294L11.9187 10.2832C11.9187 10.3157 11.6587 13.154 12.7204 15.4074C13.7929 17.6607 14.8871 19.1232 14.8979 19.134L14.9087 19.1449L28.0604 25.8182V25.7424C28.0604 25.7099 28.1579 22.5357 28.3204 21.6365C28.4829 20.7374 28.6779 19.979 28.6779 19.979L28.5912 19.9465Z" fill="black"/>
<path opacity="0.3" d="M38.9044 25.2548C38.9044 25.6448 38.5903 26.1106 38.2003 26.3056C37.8103 26.5006 37.4961 26.3381 37.4961 25.9589C37.4961 25.5689 37.8103 25.1031 38.2003 24.9081C38.5903 24.7131 38.9044 24.8648 38.9044 25.2548Z" fill="black"/>
<path opacity="0.3" d="M39.9867 25.5364C39.9867 25.8073 39.7701 26.1323 39.4992 26.2731C39.2284 26.4031 39.0117 26.2948 39.0117 26.0239C39.0117 25.7531 39.2284 25.4281 39.4992 25.2873C39.7701 25.1573 39.9867 25.2656 39.9867 25.5364Z" fill="black"/>
<path d="M37.3442 25.894C37.3442 26.0348 37.2251 26.219 37.0842 26.284C36.9434 26.3598 36.8242 26.2948 36.8242 26.154C36.8242 26.0132 36.9434 25.829 37.0842 25.764C37.2251 25.6882 37.3442 25.7423 37.3442 25.894Z" fill="white"/>
<path opacity="0.4" d="M38.6113 25.5473C38.6113 25.7423 38.4488 25.9806 38.2646 26.0781C38.0696 26.1756 37.918 26.0998 37.918 25.9048C37.918 25.7098 38.0805 25.4715 38.2646 25.374C38.4488 25.2765 38.6113 25.3523 38.6113 25.5473Z" fill="white"/>
<path opacity="0.4" d="M39.8013 25.7314C39.8013 25.8722 39.6821 26.0564 39.5413 26.1214C39.4004 26.1972 39.2812 26.1322 39.2812 25.9914C39.2812 25.8505 39.4004 25.6664 39.5413 25.6014C39.6821 25.5255 39.8013 25.5905 39.8013 25.7314Z" fill="white"/>
<path d="M36.9536 25.0165C36.9536 25.1574 36.8344 25.3415 36.6936 25.4065C36.5528 25.4824 36.4336 25.4174 36.4336 25.2765C36.4336 25.1357 36.5528 24.9515 36.6936 24.8865C36.8344 24.8107 36.9536 24.8757 36.9536 25.0165Z" fill="white"/>
<path d="M48.5356 19.3183C48.5356 19.4592 48.4165 19.6433 48.2756 19.7083C48.1348 19.7842 48.0156 19.7192 48.0156 19.5783C48.0156 19.4375 48.1348 19.2533 48.2756 19.1883C48.4165 19.1125 48.5356 19.1667 48.5356 19.3183Z" fill="white"/>
<path d="M49.02 20.0004C49.02 20.1412 48.9008 20.3254 48.76 20.3904C48.6192 20.4662 48.5 20.4012 48.5 20.2604C48.5 20.1196 48.6192 19.9354 48.76 19.8704C48.9008 19.7946 49.02 19.8596 49.02 20.0004Z" fill="white"/>
<path opacity="0.3" d="M49.1743 20.4556C49.1743 20.7914 48.9034 21.1923 48.5676 21.3548C48.2318 21.5173 47.9609 21.3873 47.9609 21.0514C47.9609 20.7156 48.2318 20.3148 48.5676 20.1523C48.9034 19.9898 49.1743 20.1306 49.1743 20.4556Z" fill="black"/>
<path opacity="0.4" d="M48.8137 20.8129C48.8137 20.9863 48.6729 21.1921 48.5104 21.2788C48.337 21.3654 48.207 21.2896 48.207 21.1271C48.207 20.9646 48.3479 20.7479 48.5104 20.6613C48.6729 20.5746 48.8137 20.6396 48.8137 20.8129Z" fill="white"/>
<path opacity="0.3" d="M48.6838 21.3655C48.6838 21.0947 48.4671 20.9864 48.1963 21.1164C48.1096 21.1597 48.0337 21.2139 47.9688 21.2897C48.0121 21.5822 48.0554 21.8855 48.0879 22.1455C48.1204 22.1347 48.1638 22.1239 48.2071 22.1022C48.4671 21.9722 48.6838 21.6364 48.6838 21.3655Z" fill="black"/>
<path opacity="0.3" d="M35.2305 25.1248C35.7613 25.0815 37.2563 25.0056 38.1988 25.2331C39.1413 25.4606 40.7771 26.089 41.3621 26.3273C41.2971 26.2623 40.9938 25.959 40.3221 25.3631C39.293 24.4423 37.9063 24.334 36.7796 24.4531C35.7505 24.5615 35.3063 25.0381 35.2305 25.1248Z" fill="black"/>
<path d="M26.1834 17.314C26.1834 17.314 26.9959 17.704 27.3643 18.1915C27.7218 18.679 27.7218 18.939 27.7218 18.939C27.7218 18.939 25.4684 19.4265 24.3526 18.7115C23.1718 17.9423 26.1834 17.314 26.1834 17.314Z" fill="#2D3134"/>
<path d="M32.1094 19.199L32.521 19.1665L36.3127 17.3248L36.5185 16.9456L38.826 15.8731L38.7285 15.689L34.3194 17.6498L34.4494 17.8123L36.161 17.054L36.0635 17.1623L32.3585 18.939L32.1094 19.199Z" fill="#2D3134"/>
<path d="M36.1172 18.1806H36.4747L39.4972 15.9381L39.8655 15.0714L41.0247 13.5981L40.9489 13.4897L38.7714 15.9706L38.858 16.1006L39.443 15.5806L39.2805 15.8731L36.2147 17.9964L36.1172 18.1806Z" fill="#2D3134"/>
<path d="M40.6914 25.3306L41.9481 26.4573C41.9481 26.4573 43.7681 26.1106 45.3931 25.2764C47.0181 24.4423 47.9931 23.3156 47.9931 23.3156L47.8631 21.6689C47.8631 21.6689 47.1264 23.0014 45.0031 24.0523C43.1181 24.9948 40.6914 25.3306 40.6914 25.3306Z" fill="#2D3134"/>
<path opacity="0.29" d="M45.737 27.7138C48.1095 26.5221 50.1353 24.5071 50.1786 23.4238C50.1895 23.2396 50.2003 22.9363 49.9403 22.0805C49.9186 22.0046 49.8211 21.9938 49.7778 22.0588C48.9436 23.2505 47.5245 24.7996 45.3145 25.8613C43.0178 26.9663 40.2011 27.9088 38.0345 27.8005C37.5253 27.7788 37.4386 28.288 37.3953 29.0896C37.3736 29.6096 37.807 30.043 38.327 29.9888C40.1903 29.8046 43.1803 28.9921 45.737 27.7138Z" fill="black"/>
<path d="M5.35391 10.3373C5.35391 10.3373 6.03641 8.5931 6.41557 8.05143C6.79474 7.50977 7.21724 7.02227 7.21724 7.02227L7.09807 6.69727C7.09807 6.69727 6.29641 6.97893 6.15557 7.21727C6.00391 7.46643 5.19141 9.9906 5.19141 9.9906L5.35391 10.3373Z" fill="#CC291F"/>
<path opacity="0.2" d="M41.06 14.0858C41.1358 13.9775 41.2008 13.8691 41.255 13.7716C40.7025 13.2408 39.6516 12.3091 38.3191 11.2366C36.1525 9.48163 34.885 8.66913 34.5816 8.64746H34.5708C34.1266 8.64746 32.3608 9.38413 30.3891 10.4025C28.1249 11.5616 26.9116 12.385 26.7383 12.6341C26.7491 12.7316 26.8141 12.9483 26.9441 13.2408C31.5699 11.7458 36.6291 12.0383 41.06 14.0858Z" fill="black"/>
<path d="M44.2422 27.0963V28.678L47.0914 27.2588V25.688L44.2422 27.0963Z" fill="#E5E5E5"/>
<path opacity="0.2" d="M48.1347 22.915C48.1347 22.915 49.6838 21.3766 49.608 20.9433C49.5213 20.4991 48.2538 18.3108 48.0913 18.6358C47.9288 18.9608 47.5822 19.4808 47.7122 19.925C47.8422 20.3583 48.1672 22.5141 48.1347 22.915Z" fill="black"/>
<path d="M26.63 13.0892C26.2833 12.2333 23.8783 9.50333 21.2133 8.19249C17.855 6.54583 14.93 6.54583 14.3342 6.63249L14.3125 6.49166C14.9192 6.40499 17.8875 6.40499 21.2783 8.06249C22.4592 8.63666 23.7375 9.57916 24.8967 10.7058C25.8175 11.5942 26.565 12.5367 26.7708 13.035L26.63 13.0892Z" fill="#2D3134"/>
<path d="M35.2193 8.875L35.2085 8.86417C34.1252 8.07333 31.2327 5.97167 28.5677 4.67167C25.2202 3.03583 22.6093 2.52667 22.0352 2.52667V2.375C22.6202 2.375 25.2635 2.88417 28.6327 4.54167C31.3085 5.8525 34.201 7.95417 35.2952 8.745L35.306 8.75583L35.2193 8.875Z" fill="#2D3134"/>
<path d="M15.168 15.9165V16.9998L16.2513 17.5415V16.4582L15.168 15.9165Z" fill="#2D3134"/>
<path d="M17.3333 15.9167L16.25 15.375V16.4583L17.3333 17V15.9167Z" fill="#2D3134"/>
<path d="M16.25 18.6248L17.3333 19.1665V18.0832L16.25 17.5415V18.6248Z" fill="#2D3134"/>
<path d="M17.3359 17V18.0833L18.4193 18.625V17.5417L17.3359 17Z" fill="#2D3134"/>
<path d="M19.5013 17.0002L18.418 16.4585V17.5418L19.5013 18.0835V17.0002Z" fill="#2D3134"/>
<path d="M18.418 19.7083L19.5013 20.25V19.1667L18.418 18.625V19.7083Z" fill="#2D3134"/>
<path d="M19.5 18.0835V19.1668L20.5833 19.7085V18.6252L19.5 18.0835Z" fill="#2D3134"/>
<path d="M21.6693 18.0832L20.5859 17.5415V18.6248L21.6693 19.1665V18.0832Z" fill="#2D3134"/>
<path d="M20.5859 20.7918L21.6693 21.3335V20.2502L20.5859 19.7085V20.7918Z" fill="#2D3134"/>
<path d="M21.668 19.1665V20.2498L22.7513 20.7915V19.7082L21.668 19.1665Z" fill="#2D3134"/>
<path d="M26 21.3335V22.4168L27.0833 22.9585V21.8752L26 21.3335Z" fill="#2D3134"/>
<path d="M26.0013 20.2502L24.918 19.7085V20.7918L26.0013 21.3335V20.2502Z" fill="#2D3134"/>
<path d="M24.918 22.9583L26.0013 23.5V22.4167L24.918 21.875V22.9583Z" fill="#2D3134"/>
<path d="M23.8359 20.25V21.3333L24.9193 21.875V20.7917L23.8359 20.25Z" fill="#2D3134"/>
<path d="M23.8333 19.1667L22.75 18.625V19.7083L23.8333 20.25V19.1667Z" fill="#2D3134"/>
<path d="M22.75 21.8748L23.8333 22.4165V21.3332L22.75 20.7915V21.8748Z" fill="#2D3134"/>
<path d="M23.619 8.2249L28.819 5.6249L26.869 4.6499L21.7773 7.2499L23.619 8.2249Z" fill="#2D3134"/>
<path d="M26.4448 3.60978L23.0865 5.28895C22.9348 5.36478 22.8157 5.48395 22.7398 5.64645L22.0898 7.03311L23.6065 7.79145L28.3732 5.40811L27.6257 4.01061C27.5498 3.85895 27.4198 3.73978 27.2573 3.67478L27.0623 3.58811C26.8782 3.51228 26.6507 3.51228 26.4448 3.60978Z" fill="#E5E5E5"/>
<path opacity="0.11" d="M23.4566 5.65728L22.9149 5.41895C22.8499 5.48395 22.7958 5.54895 22.7633 5.63561L22.1133 7.02228L23.6299 7.78061V5.90645C23.6191 5.80895 23.5541 5.70061 23.4566 5.65728Z" fill="black"/>
<path opacity="0.29" d="M27.6372 4.01052C27.5939 3.93469 27.5397 3.85885 27.4747 3.80469L23.9214 5.58136C23.7372 5.66802 23.6289 5.86302 23.6289 6.05802V7.79136L28.3956 5.40802L27.6372 4.01052Z" fill="black"/>
<path d="M27.5195 5.40817L24.2695 7.03317V5.94984L27.0862 4.5415L27.5195 5.40817Z" fill="#2D3134"/>
<path opacity="0.11" d="M35.5572 26.2949C34.7988 25.4391 30.4655 20.8891 29.3388 19.1124C27.8655 16.8049 25.4605 11.1607 21.0297 9.04822C16.588 6.93572 11.5613 7.83488 10.0447 7.94322C9.12384 7.99738 7.69384 7.66155 6.69718 7.37988C6.04718 8.36572 5.53801 9.31905 5.20218 10.0015L5.06134 10.4566C4.81218 11.2691 4.92051 12.1574 5.35384 12.8832C5.72218 13.5007 6.18801 14.2157 6.53468 14.6057C6.83801 14.9416 7.20634 15.2991 7.52051 15.6024C7.52051 15.5807 7.52051 15.5482 7.52051 15.5266C7.52051 14.3782 8.19218 13.6416 9.23218 13.6416C9.64384 13.6416 10.088 13.7607 10.543 13.9882C12.1138 14.7682 13.3813 16.6857 13.3813 18.2566C13.3813 18.4624 13.3597 18.6574 13.3163 18.8416L28.3638 26.3599C28.353 26.2407 28.3422 26.1216 28.3422 26.0132C28.3422 24.8649 29.0138 24.1282 30.0538 24.1282C30.4655 24.1282 30.9097 24.2474 31.3647 24.4749C32.9355 25.2549 34.203 27.1724 34.203 28.7432C34.203 28.9274 34.1814 29.0899 34.1489 29.2524L35.3513 29.8482C35.3513 29.8482 35.9797 30.0107 36.7814 30.1516C36.5863 28.5591 36.1855 27.0099 35.5572 26.2949Z" fill="black"/>
</svg>
