<svg width="16" height="16" viewBox="0 0 16 16" fill="none" xmlns="http://www.w3.org/2000/svg">
<path d="M9 13.3334C9 13.3334 9.66667 13.3334 10.3333 14.6667C10.3333 14.6667 12.451 11.3334 14.3333 10.6667" stroke="black" stroke-linecap="round" stroke-linejoin="round"/>
<path d="M4.66797 10.6666H7.33464M4.66797 7.33325H10.0013" stroke="black" stroke-linecap="round"/>
<path d="M4.33334 2.33325C3.29614 2.36437 2.67774 2.47981 2.24985 2.9081C1.66406 3.49443 1.66406 4.43812 1.66406 6.32549V10.6629C1.66406 12.5503 1.66406 13.4939 2.24985 14.0803C2.83564 14.6666 3.77845 14.6666 5.66406 14.6666H7.33074M10.3281 2.33325C11.3653 2.36437 11.9837 2.47981 12.4116 2.90811C12.9974 3.49443 12.9974 4.43812 12.9974 6.32549V8.99992" stroke="black" stroke-linecap="round"/>
<path d="M4.33203 2.49992C4.33203 1.85559 4.85437 1.33325 5.4987 1.33325H9.16537C9.80971 1.33325 10.332 1.85559 10.332 2.49992C10.332 3.14425 9.80971 3.66659 9.16537 3.66659H5.4987C4.85437 3.66659 4.33203 3.14425 4.33203 2.49992Z" stroke="black" stroke-linejoin="round"/>
</svg>
