<svg width="301" height="190" viewBox="0 0 301 190" fill="none" xmlns="http://www.w3.org/2000/svg">
<path d="M5.42969 184.805C11.1439 184.233 20.6275 177.885 25.7575 175.086C33.4468 170.892 42.4028 168.433 49.4732 163.585C62.0089 154.989 79.8484 145.773 80.8565 128.636C81.5039 117.63 86.6025 106.357 89.2373 95.2909C92.6681 80.8816 108.728 92.4548 116.163 93.3295C124.576 94.3192 129.235 104.041 138.63 104.563C143.304 104.823 149.293 103.368 153.787 104.652C157.489 105.71 160.115 109.378 164.307 109.378C169.18 109.378 171.452 112.224 176.433 109.378C180.517 107.044 184.419 104.699 188.38 102.602C199.371 96.783 203.749 83.8252 205.944 71.7535C207.565 62.837 207.146 51.6034 198.722 46.7895C193.692 43.915 177.133 40.8294 178.84 33.1485C181.421 21.5337 198.192 21.1862 206.746 16.2978C214.387 11.9317 222.41 7.6067 230.997 5.15319C234.957 4.0217 243.922 21.3087 246.154 25.2135C251.789 35.0751 266.843 26.5443 271.831 20.3099C275.96 15.1484 295.903 10.1908 295.903 20.3099C295.903 24.0262 289.727 26.6066 289.484 30.7412C289.194 35.6669 291.089 41.429 291.089 46.7895" stroke="#C2F0D5" stroke-opacity="0.7" stroke-width="10" stroke-linecap="round" stroke-linejoin="round"/>
<path d="M5.42969 184.805C11.1439 184.233 20.6275 177.885 25.7575 175.086C33.4468 170.892 42.4028 168.433 49.4732 163.585C62.0089 154.989 79.8484 145.773 80.8565 128.636C81.5039 117.63 86.6025 106.357 89.2373 95.2909C92.6681 80.8816 108.728 92.4548 116.163 93.3295C124.576 94.3192 129.235 104.041 138.63 104.563C143.304 104.823 149.293 103.368 153.787 104.652C157.489 105.71 160.115 109.378 164.307 109.378C169.18 109.378 171.452 112.224 176.433 109.378C180.517 107.044 184.419 104.699 188.38 102.602C199.371 96.783 203.749 83.8252 205.944 71.7535C207.565 62.837 207.146 51.6034 198.722 46.7895C193.692 43.915 177.133 40.8294 178.84 33.1485C181.421 21.5337 198.192 21.1862 206.746 16.2978C214.387 11.9317 222.41 7.6067 230.997 5.15319C234.957 4.0217 243.922 21.3087 246.154 25.2135C251.789 35.0751 266.843 26.5443 271.831 20.3099C275.96 15.1484 295.903 10.1908 295.903 20.3099C295.903 24.0262 289.727 26.6066 289.484 30.7412C289.194 35.6669 291.089 41.429 291.089 46.7895" stroke="#38C274" stroke-width="4" stroke-linecap="round" stroke-linejoin="round"/>
</svg>
