<svg width="18" height="13" viewBox="0 0 18 13" fill="none" xmlns="http://www.w3.org/2000/svg">
<path d="M8.66365 2.99216C11.1334 2.99226 13.5086 3.92402 15.2985 5.59485C15.4333 5.72384 15.6487 5.72222 15.7815 5.5912L17.0699 4.31448C17.1371 4.24803 17.1746 4.15802 17.174 4.06436C17.1735 3.97071 17.1349 3.88114 17.0669 3.81546C12.369 -0.605154 4.95754 -0.605154 0.259644 3.81546C0.191592 3.88109 0.15298 3.97063 0.152352 4.06429C0.151725 4.15794 0.189133 4.24798 0.2563 4.31448L1.54508 5.5912C1.67774 5.72241 1.89335 5.72404 2.02805 5.59485C3.81817 3.92391 6.19371 2.99215 8.66365 2.99216ZM8.66365 7.14588C10.0206 7.1458 11.3291 7.64103 12.3349 8.53533C12.471 8.66225 12.6853 8.6595 12.8179 8.52912L14.1048 7.2524C14.1726 7.18543 14.2102 7.09458 14.2092 7.00018C14.2083 6.90578 14.1688 6.8157 14.0996 6.7501C11.0367 3.95256 6.29324 3.95256 3.23027 6.7501C3.16108 6.8157 3.1216 6.90582 3.12069 7.00026C3.11979 7.09469 3.15752 7.18553 3.22544 7.2524L4.51199 8.52912C4.6446 8.6595 4.85891 8.66225 4.99495 8.53533C6.00013 7.64162 7.30761 7.14644 8.66365 7.14588ZM11.1368 10.1929C11.2056 10.1266 11.2435 10.0353 11.2416 9.94062C11.2396 9.84595 11.1979 9.75628 11.1264 9.69277C9.70474 8.51211 7.62256 8.51211 6.20089 9.69277C6.12931 9.75622 6.08758 9.84587 6.08554 9.94054C6.0835 10.0352 6.12133 10.1265 6.19011 10.1929L8.4166 12.3987C8.48185 12.4635 8.57082 12.5 8.66365 12.5C8.75648 12.5 8.84545 12.4635 8.91071 12.3987L11.1368 10.1929Z" fill="black"/>
</svg>
